<?xml version="1.0" encoding="utf-8"?>
<!-- Generator: Adobe Illustrator 16.0.3, SVG Export Plug-In . SVG Version: 6.00 Build 0)  -->
<!DOCTYPE svg PUBLIC "-//W3C//DTD SVG 1.1//EN" "http://www.w3.org/Graphics/SVG/1.1/DTD/svg11.dtd">
<svg version="1.1" id="Layer_1" xmlns="http://www.w3.org/2000/svg" xmlns:xlink="http://www.w3.org/1999/xlink" x="0px" y="0px"
	 width="1280px" height="800px" viewBox="0 0 1280 800" enable-background="new 0 0 1280 800" xml:space="preserve">
<path opacity="0.2" fill="#E9202B" enable-background="new    " d="M508.415,352.952c-41.21,16.892-82.42,33.76-123.629,50.642
	c-0.06,0.021-0.11,0.041-0.15,0.061c-0.771-0.311-1.54-0.62-2.311-0.939c-3.8-1.561-7.61-3.109-11.41-4.671
	c-13.22-5.42-26.44-10.829-39.65-16.238c-23.47-9.62-46.95-19.23-70.42-28.852c41.21-16.89,82.42-33.76,123.63-50.64
	c0.06-0.03,0.12-0.05,0.16-0.07c0.76,0.32,1.53,0.63,2.3,0.95c3.81,1.56,7.61,3.12,11.42,4.67c13.21,5.42,26.43,10.83,39.65,16.25
	C461.475,333.723,484.945,343.332,508.415,352.952z M473.975,352.952c0-0.06,0-0.109-0.01-0.16c-0.03-0.739-0.512-1.43-1.271-1.409
	c-22.86-9.36-45.72-18.721-68.59-28.091c-5.08-2.08-10.16-4.159-15.25-6.239c-1.28-0.53-3.49-2.03-4.94-1.44
	c-9.57,3.92-19.14,7.84-28.71,11.76c-19.64,8.04-39.28,16.09-58.92,24.13c-1.42,0.591-1.42,2.311,0,2.9
	c0.23,0.09,0.46,0.19,0.69,0.28c22.73,9.31,45.46,18.608,68.18,27.93c5.08,2.08,10.17,4.16,15.25,6.24
	c1.28,0.53,3.5,2.03,4.94,1.438c0.15-0.06,0.29-0.118,0.44-0.18c9.42-3.86,18.85-7.72,28.271-11.58c19.55-8,39.09-16.01,58.64-24.01
	c0.76,0.02,1.24-0.67,1.271-1.41C473.975,353.062,473.975,353.013,473.975,352.952z"/>
<path opacity="0.2" enable-background="new    " d="M433.735,352.792c-12.729,5.21-25.47,10.431-38.2,15.65
	c-2.97,1.21-5.94,2.43-8.91,3.65c-0.66,0.27-1.32,0.54-1.98,0.81c-0.02,0.01-0.03,0.01-0.04,0.021c-0.05-0.03-0.12-0.07-0.22-0.11
	c-6.02-2.46-12.03-4.93-18.05-7.39c-10.27-4.21-20.56-8.421-30.84-12.631c12.73-5.21,25.47-10.43,38.2-15.649
	c2.98-1.21,5.95-2.43,8.92-3.65c0.66-0.27,1.31-0.54,1.97-0.81c0.01-0.01,0.03-0.01,0.04-0.021c0.05,0.03,0.12,0.07,0.22,0.11
	c6.02,2.46,12.04,4.93,18.05,7.39C413.175,344.372,423.455,348.582,433.735,352.792z"/>
<path opacity="0.2" enable-background="new    " d="M513.735,352.792c0.01,0.051,0.021,0.11,0.01,0.16
	C513.745,352.902,513.735,352.852,513.735,352.792z"/>
<path opacity="0.2" enable-background="new    " d="M513.745,352.952c0.012,0.061,0,0.11-0.01,0.16
	C513.735,353.062,513.745,353.002,513.745,352.952z"/>
<path opacity="0.2" enable-background="new    " d="M513.735,352.792c-0.07-0.52-0.38-1.04-0.979-1.279
	c-0.102-0.04-0.2-0.08-0.302-0.12C513.225,351.352,513.705,352.042,513.735,352.792z"/>
<path opacity="0.2" enable-background="new    " d="M512.755,354.402c0.6-0.25,0.908-0.76,0.979-1.29c-0.02,0.74-0.5,1.42-1.26,1.41
	C512.565,354.482,512.665,354.442,512.755,354.402z"/>
<path opacity="0.2" enable-background="new    " d="M512.755,351.513c0.6,0.239,0.908,0.76,0.979,1.279c0,0.061,0.01,0.11,0.01,0.16
	s-0.01,0.11-0.01,0.16c-0.07,0.53-0.38,1.04-0.979,1.29c-0.092,0.04-0.19,0.08-0.28,0.12c-0.16,0-0.33-0.04-0.521-0.12
	c-0.63-0.26-1.27-0.52-1.898-0.78c-0.55-0.22-1.091-0.449-1.642-0.67c1.182-0.479,2.36-0.97,3.54-1.45
	c0.182-0.069,0.352-0.109,0.5-0.109C512.555,351.432,512.655,351.473,512.755,351.513z"/>
<path opacity="0.2" fill="#231F20" enable-background="new    " d="M473.965,352.792c0.01,0.051,0.01,0.101,0.01,0.16
	C473.975,352.902,473.965,352.852,473.965,352.792z"/>
<path opacity="0.2" fill="#231F20" enable-background="new    " d="M473.975,352.952c0,0.061,0,0.11-0.01,0.16
	C473.965,353.053,473.975,353.002,473.975,352.952z"/>
<path opacity="0.2" fill="#231F20" enable-background="new    " d="M473.965,352.792c-0.07-0.52-0.382-1.04-0.99-1.29
	c-0.09-0.04-0.19-0.079-0.28-0.119C473.455,351.362,473.935,352.053,473.965,352.792z"/>
<path opacity="0.2" fill="#231F20" enable-background="new    " d="M472.975,354.402c0.608-0.25,0.92-0.77,0.99-1.29
	c-0.03,0.74-0.512,1.43-1.271,1.41C472.785,354.482,472.885,354.442,472.975,354.402z"/>
<path opacity="0.2" fill="#231F20" enable-background="new    " d="M472.975,351.502c0.608,0.25,0.92,0.771,0.99,1.29
	c0,0.061,0.01,0.11,0.01,0.16s-0.01,0.101-0.01,0.16c-0.07,0.521-0.382,1.04-0.99,1.29c-0.09,0.04-0.19,0.08-0.28,0.12
	c-0.16-0.01-0.33-0.05-0.51-0.12c-1.18-0.479-2.36-0.97-3.54-1.45c1.18-0.479,2.36-0.97,3.54-1.45c0.18-0.069,0.35-0.109,0.51-0.119
	C472.785,351.423,472.885,351.462,472.975,351.502z"/>
<path opacity="0.2" fill="#231F20" enable-background="new    " d="M436.105,351.883c0.47-0.011,0.76,0.449,0.74,0.909
	c-0.012-0.34-0.19-0.68-0.58-0.84C436.215,351.932,436.155,351.912,436.105,351.883z"/>
<path opacity="0.2" fill="#231F20" enable-background="new    " d="M436.845,352.792c0.02,0.48-0.28,0.94-0.762,0.91
	c0.062-0.02,0.12-0.05,0.182-0.069C436.655,353.473,436.834,353.133,436.845,352.792z"/>
<path opacity="0.2" fill="#231F20" enable-background="new    " d="M435.796,353.642c-0.69-0.28-1.37-0.561-2.062-0.851
	c0.69-0.279,1.37-0.56,2.062-0.84c0.108-0.05,0.22-0.069,0.31-0.069c0.05,0.029,0.11,0.05,0.16,0.069c0.39,0.16,0.568,0.5,0.58,0.84
	c-0.012,0.341-0.19,0.681-0.58,0.841c-0.062,0.02-0.12,0.05-0.182,0.069C435.995,353.702,435.895,353.682,435.796,353.642z"/>
<path opacity="0.2" enable-background="new    " d="M384.835,302.022c0.08,0.03,0.07,0.09-0.2,0.22
	c-0.061-0.02-0.12-0.05-0.18-0.069C384.215,302.072,384.685,301.982,384.835,302.022z"/>
<path opacity="0.2" enable-background="new    " d="M384.815,403.732c0.23,0.1-0.24,0.189-0.39,0.15
	c-0.08-0.031-0.07-0.093,0.21-0.23C384.695,403.682,384.755,403.712,384.815,403.732z"/>
<path opacity="0.2" fill="#231F20" enable-background="new    " d="M384.615,387.372c0.21,0.13,0.21,0.2,0.14,0.23
	c-0.13,0.05-0.51-0.04-0.15-0.23C384.605,387.372,384.605,387.372,384.615,387.372z"/>
<path opacity="0.2" fill="#231F20" enable-background="new    " d="M384.605,372.923
	C384.955,373.133,384.285,373.072,384.605,372.923L384.605,372.923z"/>
<path opacity="0.2" fill="#231F20" enable-background="new    " d="M384.625,332.662
	C384.265,332.452,384.965,332.502,384.625,332.662L384.625,332.662z"/>
<path opacity="0.2" fill="#231F20" enable-background="new    " d="M384.645,318.532c-0.61-0.37,0.56-0.28,0.01,0
	C384.655,318.522,384.655,318.522,384.645,318.532z"/>
<path opacity="0.2" fill="#231F20" enable-background="new    " d="M435.796,351.952c-0.69,0.28-1.37,0.561-2.062,0.84
	c-10.28-4.21-20.56-8.42-30.84-12.63c-6.01-2.46-12.03-4.93-18.05-7.39c-0.1-0.04-0.17-0.08-0.22-0.11c0.34-0.16-0.36-0.21,0,0
	c-0.01,0.011-0.03,0.011-0.04,0.021c-0.66,0.27-1.31,0.54-1.97,0.81c-2.97,1.22-5.94,2.44-8.92,3.65
	c-12.73,5.22-25.47,10.439-38.2,15.649c-0.69-0.29-1.37-0.569-2.06-0.85l-0.06-0.15c11.35-4.659,22.69-9.3,34.04-13.949
	c5.6-2.301,11.19-4.591,16.79-6.881c0.84-0.35,2.14,0.54,2.88,0.841c2.97,1.22,5.94,2.439,8.92,3.649
	c13.37,5.48,26.73,10.96,40.1,16.43C436.015,351.883,435.905,351.902,435.796,351.952z"/>
<path opacity="0.2" fill="#231F20" enable-background="new    " d="M333.435,351.942c0.69,0.28,1.37,0.56,2.06,0.85
	c-0.689,0.28-1.37,0.561-2.06,0.841C333.435,353.072,333.435,352.513,333.435,351.942z"/>
<path opacity="0.2" fill="#231F20" enable-background="new    " d="M395.535,368.442c12.73-5.22,25.471-10.44,38.2-15.65
	c0.69,0.29,1.37,0.57,2.062,0.851c0.1,0.04,0.198,0.06,0.289,0.06c-11.421,4.69-22.851,9.36-34.271,14.04
	c-5.59,2.3-11.19,4.59-16.78,6.88c-0.84,0.352-2.14-0.54-2.89-0.84c-2.97-1.22-5.94-2.438-8.91-3.648
	c-13.42-5.5-26.84-11-40.26-16.49c-0.83-0.34-0.83-1.351,0-1.69c0.13-0.05,0.27-0.109,0.4-0.16l0.06,0.15c0,0.57,0,1.13,0,1.69
	c0.69-0.28,1.37-0.561,2.06-0.841c10.28,4.21,20.57,8.421,30.84,12.631c6.02,2.46,12.03,4.93,18.05,7.39
	c0.1,0.04,0.17,0.08,0.22,0.11c-0.32,0.148,0.35,0.21,0,0c0.01-0.012,0.02-0.012,0.04-0.021c0.66-0.27,1.32-0.54,1.98-0.81
	C389.595,370.872,392.565,369.652,395.535,368.442z"/>
<path opacity="0.2" fill="#231F20" enable-background="new    " d="M297.085,354.402c0-0.97,0-1.93,0-2.9
	c1.18,0.48,2.36,0.971,3.54,1.45C299.445,353.432,298.265,353.923,297.085,354.402z"/>
<g opacity="0.2">
	<path fill="#E9202B" d="M385.785,390.112c-0.15,0.062-0.29,0.12-0.44,0.18c-1.44,0.592-3.66-0.908-4.94-1.438
		c-5.08-2.08-10.17-4.16-15.25-6.24c-22.72-9.32-45.45-18.62-68.18-27.93l0.11-0.28c1.18-0.479,2.36-0.97,3.54-1.45
		c17.58,7.21,35.16,14.4,52.74,21.61c10.29,4.21,20.58,8.43,30.87,12.64c0.16,0.07,0.28,0.13,0.37,0.17
		c-0.36,0.19,0.02,0.28,0.15,0.23L385.785,390.112z"/>
	<g>
		<path fill="#E9202B" d="M403.305,379.723c21.778-8.932,43.56-17.84,65.34-26.771c1.18,0.48,2.36,0.97,3.54,1.45
			c0.18,0.07,0.35,0.11,0.51,0.12c-19.55,8-39.09,16.01-58.64,24.01c-9.42,3.86-18.85,7.72-28.271,11.58l-1.03-2.51
			c0.07-0.03,0.07-0.102-0.14-0.23c0.021-0.01,0.04-0.02,0.07-0.028c1.12-0.46,2.25-0.92,3.38-1.382
			C393.145,383.883,398.225,381.803,403.305,379.723z"/>
		<path fill="#E9202B" d="M404.105,323.292c22.87,9.37,45.729,18.73,68.59,28.091c-0.16,0.01-0.33,0.05-0.51,0.119
			c-1.18,0.48-2.36,0.971-3.54,1.45c-17.58-7.21-35.17-14.399-52.75-21.609c-10.29-4.21-20.58-8.431-30.87-12.641
			c-0.16-0.069-0.28-0.13-0.37-0.17c0.55-0.28-0.62-0.37-0.01,0c-0.02,0.01-0.04,0.021-0.07,0.03c-1.12,0.46-2.25,0.92-3.37,1.38
			c-5.09,2.08-10.17,4.16-15.25,6.25c-21.78,8.92-43.55,17.83-65.33,26.76c-1.18-0.479-2.36-0.97-3.54-1.45c0,0.971,0,1.931,0,2.9
			l-0.11,0.28c-0.23-0.09-0.46-0.19-0.69-0.28c-1.42-0.59-1.42-2.31,0-2.9c19.64-8.04,39.28-16.09,58.92-24.13
			c9.57-3.92,19.14-7.84,28.71-11.76c1.45-0.59,3.66,0.91,4.94,1.44C393.945,319.133,399.025,321.212,404.105,323.292z"/>
	</g>
</g>
<path opacity="0.2" enable-background="new    " d="M259.205,352.282c0.55,0.22,1.09,0.45,1.64,0.67
	c-1.18,0.48-2.36,0.971-3.54,1.45c0-0.97,0-1.93,0-2.9C257.945,351.763,258.575,352.022,259.205,352.282z"/>
<g opacity="0.2">
	<path fill="#E9202B" d="M385.855,299.522c42.2,17.29,84.4,34.57,126.6,51.87c-0.148,0-0.318,0.04-0.5,0.109
		c-1.18,0.48-2.358,0.971-3.54,1.45c-23.47-9.62-46.938-19.229-70.409-28.84c-13.221-5.42-26.439-10.83-39.649-16.25
		c-3.81-1.55-7.61-3.11-11.42-4.67c-0.77-0.32-1.54-0.63-2.3-0.95c0.27-0.13,0.28-0.189,0.2-0.22L385.855,299.522z"/>
	<path fill="#E9202B" d="M436.075,385.812c-12.898,5.28-25.79,10.56-38.689,15.84c-3.49,1.43-6.97,2.859-10.46,4.29
		c-1.16,0.47-2.03,1.05-3.24,0.55c-0.09-0.04-0.19-0.08-0.28-0.12l1.02-2.487c0.15,0.039,0.62-0.053,0.39-0.15
		c-0.06-0.021-0.12-0.051-0.18-0.08c0.04-0.02,0.09-0.04,0.15-0.061c41.208-16.882,82.418-33.75,123.628-50.642
		c0.552,0.221,1.092,0.45,1.642,0.67c0.63,0.261,1.27,0.521,1.898,0.78c0.19,0.08,0.36,0.12,0.521,0.12
		c-0.812,0.33-1.62,0.66-2.43,0.99C485.395,365.612,460.735,375.712,436.075,385.812z"/>
	<path fill="#E9202B" d="M385.585,299.412c0.09,0.04,0.18,0.07,0.27,0.11l-1.02,2.5c-0.15-0.04-0.62,0.05-0.38,0.15
		c0.06,0.021,0.12,0.05,0.18,0.069c-0.04,0.021-0.1,0.04-0.16,0.07c-41.21,16.88-82.42,33.75-123.63,50.64
		c-0.55-0.22-1.09-0.45-1.64-0.67c-0.63-0.26-1.26-0.52-1.9-0.78l-0.11-0.27c0.67-0.28,1.35-0.55,2.02-0.83
		c24.66-10.1,49.32-20.2,73.97-30.3c12.9-5.29,25.8-10.57,38.69-15.851c3.49-1.43,6.98-2.859,10.46-4.279
		C383.495,299.492,384.365,298.923,385.585,299.412z"/>
	<path fill="#E9202B" d="M383.405,406.372c-42.3-17.33-84.6-34.648-126.89-51.97c-1.43-0.58-1.43-2.31,0-2.89
		c0.23-0.09,0.45-0.19,0.68-0.28l0.11,0.27c0,0.971,0,1.931,0,2.9c1.18-0.48,2.36-0.97,3.54-1.45
		c23.47,9.62,46.95,19.23,70.42,28.852c13.21,5.408,26.43,10.818,39.65,16.238c3.8,1.562,7.61,3.11,11.41,4.67
		c0.771,0.32,1.54,0.632,2.31,0.94c-0.28,0.14-0.29,0.199-0.21,0.23L383.405,406.372z"/>
</g>
<path opacity="0.2" fill="#E9202B" enable-background="new    " d="M765.256,352.952c-41.211,16.88-82.434,33.76-123.643,50.642
	c-0.061,0.021-0.107,0.041-0.148,0.061c-0.771-0.311-1.541-0.62-2.312-0.939c-3.8-1.561-7.609-3.109-11.41-4.671
	c-13.22-5.42-26.43-10.829-39.648-16.238c-23.471-9.62-46.95-19.23-70.42-28.852c41.21-16.88,82.43-33.76,123.64-50.64
	c0.061-0.021,0.109-0.04,0.15-0.061c0.77,0.311,1.527,0.62,2.299,0.94c3.811,1.56,7.609,3.12,11.42,4.67
	c13.211,5.42,26.43,10.83,39.65,16.25C718.305,333.723,741.785,343.332,765.256,352.952z M730.805,352.952
	c0.01-0.05,0-0.109-0.01-0.16c-0.029-0.75-0.512-1.439-1.279-1.399c-22.861-9.37-45.721-18.73-68.58-28.101
	c-5.08-2.08-10.16-4.159-15.24-6.239c-1.281-0.53-3.5-2.03-4.951-1.44c-0.148,0.061-0.289,0.12-0.438,0.18
	c-9.411,3.86-18.84,7.721-28.261,11.58c-19.409,7.95-38.829,15.9-58.239,23.86c-0.23,0.09-0.46,0.19-0.69,0.28
	c-1.42,0.58-1.42,2.31,0,2.89c22.96,9.4,45.92,18.81,68.88,28.21c5.08,2.08,10.16,4.16,15.24,6.24c1.28,0.53,3.5,2.04,4.94,1.438
	c9.568-3.92,19.141-7.84,28.711-11.76c19.549-8,39.09-16.01,58.646-24.01c0.764,0.01,1.24-0.67,1.264-1.41
	C730.805,353.062,730.814,353.013,730.805,352.952z"/>
<path opacity="0.2" enable-background="new    " d="M659.725,339.462c10.281,4.211,20.57,8.421,30.84,12.631
	c-12.729,5.21-25.469,10.42-38.199,15.64c-2.971,1.22-5.938,2.43-8.91,3.65c-0.658,0.27-1.318,0.54-1.979,0.81
	c-0.021,0.01-0.041,0.02-0.051,0.02c-0.051-0.028-0.119-0.06-0.209-0.1c-6.012-2.47-12.031-4.93-18.051-7.39
	c-10.271-4.221-20.561-8.431-30.83-12.63c12.729-5.221,25.471-10.431,38.199-15.65c2.972-1.22,5.94-2.43,8.91-3.65
	c0.661-0.27,1.311-0.54,1.969-0.81c0.021-0.01,0.041-0.021,0.053-0.03c0.051,0.03,0.119,0.07,0.221,0.11
	C647.695,334.532,653.715,336.992,659.725,339.462z"/>
<path opacity="0.2" enable-background="new    " d="M770.574,352.792c0.014,0.051,0.014,0.11,0.014,0.16
	C770.584,352.902,770.574,352.852,770.574,352.792z"/>
<path opacity="0.2" enable-background="new    " d="M770.584,352.952c0,0.061,0,0.11-0.01,0.16
	C770.574,353.062,770.584,353.002,770.584,352.952z"/>
<path opacity="0.2" enable-background="new    " d="M770.574,352.792c-0.066-0.52-0.379-1.04-0.986-1.279
	c-0.104-0.04-0.201-0.08-0.303-0.12C770.055,351.352,770.547,352.042,770.574,352.792z"/>
<path opacity="0.2" enable-background="new    " d="M769.584,354.402c0.609-0.25,0.922-0.76,0.99-1.29
	c-0.027,0.74-0.51,1.42-1.27,1.41C769.395,354.482,769.494,354.442,769.584,354.402z"/>
<path opacity="0.2" enable-background="new    " d="M765.256,352.952c1.18-0.49,2.35-0.97,3.527-1.45
	c0.182-0.069,0.352-0.109,0.5-0.109c0.102,0.04,0.199,0.08,0.301,0.12c0.609,0.239,0.922,0.76,0.988,1.279
	c0,0.061,0.012,0.11,0.012,0.16s-0.012,0.11-0.012,0.16c-0.066,0.53-0.379,1.04-0.988,1.29c-0.092,0.04-0.189,0.08-0.279,0.12
	c-0.16,0-0.33-0.04-0.521-0.12c-0.629-0.26-1.26-0.52-1.889-0.78C766.346,353.402,765.805,353.173,765.256,352.952z"/>
<path opacity="0.2" fill="#231F20" enable-background="new    " d="M730.797,352.792c0.01,0.051,0.02,0.11,0.01,0.16
	C730.805,352.902,730.797,352.852,730.797,352.792z"/>
<path opacity="0.2" fill="#231F20" enable-background="new    " d="M730.805,352.952c0.01,0.061,0,0.11-0.01,0.16
	C730.797,353.062,730.805,353.002,730.805,352.952z"/>
<path opacity="0.2" fill="#231F20" enable-background="new    " d="M730.797,352.792c-0.07-0.52-0.383-1.04-0.98-1.279
	c-0.1-0.04-0.201-0.08-0.301-0.12C730.285,351.352,730.766,352.042,730.797,352.792z"/>
<path opacity="0.2" fill="#231F20" enable-background="new    " d="M729.814,354.402c0.6-0.25,0.91-0.76,0.98-1.29
	c-0.021,0.74-0.5,1.42-1.262,1.41C729.625,354.482,729.725,354.442,729.814,354.402z"/>
<path opacity="0.2" fill="#231F20" enable-background="new    " d="M729.814,351.513c0.6,0.239,0.91,0.76,0.98,1.279
	c0,0.061,0.01,0.11,0.01,0.16s-0.01,0.11-0.01,0.16c-0.07,0.53-0.383,1.04-0.98,1.29c-0.09,0.04-0.189,0.08-0.279,0.12
	c-0.16,0-0.33-0.04-0.52-0.12c-1.182-0.479-2.361-0.97-3.541-1.45c1.18-0.479,2.359-0.97,3.541-1.45
	c0.18-0.069,0.35-0.109,0.5-0.109C729.615,351.432,729.715,351.473,729.814,351.513z"/>
<path opacity="0.2" fill="#231F20" enable-background="new    " d="M692.936,351.173c0.469-0.011,0.76,0.449,0.74,0.92
	c-0.014-0.341-0.184-0.681-0.58-0.851C693.047,351.223,692.984,351.202,692.936,351.173z"/>
<path opacity="0.2" fill="#231F20" enable-background="new    " d="M693.096,352.932c0.379-0.16,0.559-0.48,0.58-0.811
	c0,0.46-0.281,0.891-0.74,0.88C692.984,352.973,693.047,352.952,693.096,352.932z"/>
<path opacity="0.2" fill="#231F20" enable-background="new    " d="M693.096,351.242c0.396,0.17,0.566,0.51,0.58,0.851
	c0,0.01,0,0.02,0,0.029c-0.021,0.33-0.201,0.65-0.58,0.811c-0.051,0.02-0.111,0.04-0.16,0.069c-0.09,0-0.201-0.02-0.313-0.069
	c-0.688-0.28-1.367-0.561-2.061-0.84c0.691-0.29,1.371-0.57,2.061-0.851c0.109-0.05,0.223-0.069,0.313-0.069
	C692.984,351.202,693.047,351.223,693.096,351.242z"/>
<path opacity="0.2" enable-background="new    " d="M641.676,302.022c0.08,0.03,0.066,0.09-0.211,0.229
	c-0.063-0.029-0.119-0.06-0.182-0.079C641.047,302.072,641.525,301.982,641.676,302.022z"/>
<path opacity="0.2" enable-background="new    " d="M641.645,403.732c0.24,0.1-0.24,0.189-0.389,0.15
	c-0.08-0.031-0.07-0.093,0.209-0.23C641.525,403.682,641.584,403.712,641.645,403.732z"/>
<path opacity="0.2" fill="#231F20" enable-background="new    " d="M641.445,387.372c0.609,0.37-0.551,0.29-0.01,0
	C641.436,387.372,641.436,387.372,641.445,387.372z"/>
<path opacity="0.2" fill="#231F20" enable-background="new    " d="M641.465,331.952
	C641.105,331.752,641.775,331.803,641.465,331.952L641.465,331.952z"/>
<path opacity="0.2" fill="#231F20" enable-background="new    " d="M641.426,372.212
	C641.805,372.423,641.125,372.372,641.426,372.212L641.426,372.212z"/>
<path opacity="0.2" fill="#231F20" enable-background="new    " d="M641.484,318.532c-0.209-0.13-0.209-0.2-0.15-0.229
	c0.133-0.061,0.521,0.04,0.16,0.229C641.484,318.522,641.484,318.532,641.484,318.532z"/>
<path opacity="0.2" fill="#231F20" enable-background="new    " d="M623.165,364.723c6.021,2.46,12.04,4.92,18.052,7.39
	c0.09,0.04,0.158,0.07,0.209,0.1c-0.299,0.16,0.381,0.212,0,0c0.01,0,0.027-0.01,0.051-0.02c0.66-0.27,1.32-0.54,1.979-0.81
	c2.973-1.222,5.939-2.432,8.91-3.65c12.73-5.22,25.471-10.43,38.199-15.64c0.691,0.279,1.371,0.56,2.061,0.84
	c0.109,0.05,0.223,0.069,0.313,0.069c-11.43,4.671-22.852,9.36-34.291,14.04c-5.59,2.29-11.18,4.58-16.779,6.87
	c-0.84,0.352-2.141-0.528-2.89-0.84c-2.97-1.22-5.94-2.43-8.91-3.648c-13.29-5.451-26.57-10.881-39.86-16.331l0.07-0.16
	c0.69-0.28,1.37-0.561,2.061-0.84C602.605,356.292,612.895,360.502,623.165,364.723z"/>
<path opacity="0.2" fill="#231F20" enable-background="new    " d="M590.275,352.932c0-0.561,0-1.13,0-1.69
	c0.69,0.28,1.37,0.561,2.06,0.851C591.645,352.372,590.965,352.652,590.275,352.932z"/>
<path opacity="0.2" fill="#231F20" enable-background="new    " d="M641.035,330.263c0.838-0.351,2.141,0.529,2.891,0.84
	c2.971,1.21,5.938,2.43,8.908,3.649c13.369,5.48,26.73,10.95,40.102,16.421c-0.09,0-0.199,0.02-0.313,0.069
	c-0.688,0.28-1.367,0.561-2.059,0.851c-10.271-4.21-20.561-8.42-30.84-12.631c-6.01-2.47-12.031-4.93-18.041-7.399
	c-0.1-0.04-0.17-0.08-0.219-0.11c0.309-0.149-0.361-0.2,0,0c-0.014,0.011-0.031,0.021-0.053,0.03c-0.658,0.27-1.311,0.54-1.97,0.81
	c-2.97,1.221-5.938,2.431-8.91,3.65c-12.729,5.22-25.47,10.43-38.2,15.65c-0.688-0.29-1.368-0.57-2.06-0.851c0,0.561,0,1.13,0,1.69
	l-0.07,0.16c-0.13-0.051-0.27-0.11-0.398-0.16c-0.83-0.34-0.83-1.351,0-1.69c11.479-4.7,22.96-9.41,34.45-14.109
	C629.845,334.843,635.435,332.553,641.035,330.263z"/>
<path opacity="0.2" fill="#231F20" enable-background="new    " d="M557.455,352.952c-1.18,0.48-2.358,0.971-3.54,1.45
	c0-0.97,0-1.93,0-2.9C555.095,351.982,556.275,352.473,557.455,352.952z"/>
<g opacity="0.2">
	<path fill="#E9202B" d="M641.494,318.532c0.361-0.189-0.027-0.29-0.158-0.229l-1.029-2.511c0.148-0.06,0.289-0.119,0.438-0.18
		c1.451-0.59,3.67,0.91,4.951,1.44c5.08,2.08,10.16,4.159,15.24,6.239c22.859,9.37,45.719,18.73,68.58,28.101
		c-0.15,0-0.32,0.04-0.5,0.109c-1.18,0.48-2.361,0.971-3.541,1.45c-17.58-7.21-35.16-14.399-52.74-21.6
		c-10.289-4.22-20.58-8.44-30.879-12.65C641.695,318.633,641.574,318.572,641.494,318.532z"/>
	<path fill="#E9202B" d="M641.334,318.303c-0.059,0.029-0.059,0.1,0.15,0.229c-0.02,0.01-0.039,0.021-0.07,0.03
		c-1.129,0.46-2.259,0.92-3.378,1.38c-5.08,2.08-10.17,4.16-15.25,6.25c-21.778,8.92-43.55,17.83-65.33,26.76
		c-1.18-0.479-2.358-0.97-3.54-1.45l-0.108-0.27c19.41-7.96,38.83-15.91,58.239-23.86c9.421-3.859,18.851-7.72,28.26-11.58
		L641.334,318.303z"/>
	<path fill="#E9202B" d="M610.195,374.562c10.29,4.21,20.58,8.43,30.87,12.64c0.16,0.07,0.281,0.13,0.371,0.17
		c-0.541,0.29,0.619,0.37,0.01,0c0.021-0.01,0.039-0.02,0.07-0.028c1.129-0.46,2.25-0.92,3.379-1.382
		c5.08-2.078,10.16-4.158,15.24-6.238c21.777-8.932,43.561-17.84,65.34-26.771c1.18,0.48,2.359,0.971,3.541,1.45
		c0.188,0.08,0.357,0.12,0.52,0.12c-19.561,8-39.1,16.01-58.648,24.01c-9.57,3.92-19.143,7.84-28.709,11.76
		c-1.441,0.602-3.661-0.908-4.941-1.438c-5.08-2.08-10.16-4.16-15.24-6.24c-22.96-9.399-45.92-18.81-68.88-28.21
		c-1.42-0.58-1.42-2.31,0-2.89c0.23-0.09,0.46-0.19,0.69-0.28l0.108,0.27c0,0.971,0,1.931,0,2.9c1.182-0.479,2.36-0.97,3.54-1.45
		C575.035,360.162,592.615,367.352,610.195,374.562z"/>
</g>
<path opacity="0.2" enable-background="new    " d="M516.035,352.282c0.55,0.22,1.091,0.45,1.642,0.67
	c-1.182,0.49-2.352,0.971-3.53,1.45c0-0.97,0-1.93,0-2.9C514.775,351.763,515.405,352.022,516.035,352.282z"/>
<g opacity="0.2">
	<path fill="#E9202B" d="M641.465,302.252c0.277-0.14,0.291-0.199,0.211-0.229l1.02-2.49c42.199,17.29,84.393,34.57,126.59,51.86
		c-0.148,0-0.318,0.04-0.5,0.109c-1.18,0.48-2.35,0.96-3.527,1.45c-23.473-9.62-46.951-19.229-70.42-28.84
		c-13.223-5.42-26.441-10.83-39.65-16.25c-3.813-1.55-7.611-3.11-11.42-4.67C642.994,302.872,642.234,302.562,641.465,302.252z"/>
	<path fill="#E9202B" d="M641.256,403.883c0.148,0.041,0.629-0.052,0.389-0.149c-0.061-0.021-0.119-0.05-0.18-0.08
		c0.041-0.021,0.09-0.04,0.148-0.06c41.211-16.882,82.432-33.762,123.643-50.642c0.549,0.221,1.09,0.45,1.639,0.67
		c0.631,0.261,1.26,0.521,1.891,0.78c0.189,0.08,0.359,0.12,0.521,0.12c-0.813,0.33-1.611,0.66-2.42,0.99
		c-24.66,10.1-49.32,20.199-73.98,30.3c-12.891,5.28-25.791,10.56-38.688,15.84c-3.48,1.43-6.973,2.859-10.461,4.29
		c-1.15,0.47-2.021,1.05-3.24,0.55c-0.09-0.04-0.189-0.08-0.279-0.12L641.256,403.883z"/>
	<path fill="#E9202B" d="M641.676,302.022c-0.15-0.04-0.631,0.05-0.393,0.15c0.063,0.021,0.121,0.05,0.182,0.079
		c-0.039,0.021-0.092,0.04-0.15,0.061c-41.209,16.88-82.429,33.76-123.639,50.64c-0.552-0.22-1.092-0.45-1.642-0.67
		c-0.63-0.26-1.26-0.52-1.89-0.78l-0.11-0.27c0.67-0.28,1.34-0.55,2.011-0.83c24.659-10.1,49.319-20.2,73.979-30.3
		c12.89-5.29,25.79-10.57,38.69-15.851c3.479-1.43,6.97-2.859,10.448-4.279c1.16-0.48,2.031-1.05,3.25-0.561
		c0.094,0.04,0.191,0.08,0.281,0.12L641.676,302.022z"/>
	<path fill="#E9202B" d="M641.465,403.652c-0.279,0.14-0.291,0.199-0.209,0.23l-1.021,2.487c-42.3-17.33-84.59-34.648-126.89-51.97
		c-1.42-0.58-1.42-2.31,0-2.89c0.229-0.091,0.46-0.19,0.688-0.28l0.11,0.27c0,0.971,0,1.931,0,2.9c1.18-0.48,2.35-0.96,3.53-1.45
		c23.47,9.62,46.948,19.23,70.42,28.852c13.22,5.408,26.43,10.818,39.648,16.238c3.801,1.562,7.61,3.11,11.41,4.67
		C639.926,403.032,640.695,403.344,641.465,403.652z"/>
</g>
<path opacity="0.2" fill="#E9202B" enable-background="new    " d="M41.525,354.682c22.73,9.31,45.46,18.608,68.19,27.93
	c5.08,2.08,10.16,4.16,15.24,6.24c1.28,0.53,3.5,2.03,4.94,1.438c0.15-0.06,0.29-0.118,0.44-0.18c9.42-3.86,18.85-7.72,28.27-11.58
	c19.55-8,39.1-16.01,58.65-24.01c0.76,0.01,1.24-0.67,1.26-1.41c0.01-0.04,0.01-0.08,0.01-0.11c0-0.02,0-0.029,0-0.05
	c0.01-0.05,0-0.109-0.01-0.16c-0.02-0.739-0.5-1.42-1.26-1.409c-22.87-9.36-45.73-18.721-68.6-28.091
	c-5.08-2.08-10.16-4.159-15.24-6.239c-1.28-0.53-3.5-2.03-4.94-1.44c-9.57,3.92-19.14,7.84-28.71,11.76
	c-19.64,8.04-39.28,16.09-58.93,24.13c-1.42,0.591-1.42,2.311,0,2.9C41.065,354.492,41.295,354.593,41.525,354.682z
	 M126.875,402.712c-3.8-1.56-7.6-3.108-11.41-4.67c-13.22-5.42-26.43-10.83-39.65-16.238c-23.47-9.62-46.95-19.23-70.42-28.852
	c41.21-16.88,82.43-33.76,123.64-50.64c0.06-0.021,0.11-0.04,0.15-0.061c0.77,0.311,1.54,0.62,2.31,0.94
	c3.8,1.56,7.61,3.12,11.41,4.67c13.22,5.42,26.43,10.83,39.65,16.25c23.47,9.61,46.95,19.22,70.42,28.84
	c-41.21,16.88-82.43,33.76-123.64,50.643c-0.06,0.02-0.11,0.039-0.15,0.06C128.415,403.344,127.645,403.032,126.875,402.712z"/>
<path opacity="0.2" fill="#231F20" enable-background="new    " d="M178.485,354.402c-12.73,5.21-25.47,10.43-38.2,15.65
	c-2.97,1.21-5.94,2.43-8.91,3.648c-0.66,0.271-1.32,0.53-1.98,0.8c-0.02,0.012-0.04,0.021-0.05,0.021
	c-0.05-0.03-0.12-0.062-0.21-0.101c-6.02-2.461-12.03-4.931-18.05-7.391c-10.27-4.21-20.55-8.41-30.83-12.63
	c12.73-5.22,25.46-10.43,38.19-15.65c2.97-1.21,5.94-2.43,8.92-3.649c0.65-0.271,1.31-0.54,1.97-0.811
	c0.01-0.01,0.03-0.01,0.04-0.02c0.05,0.03,0.12,0.07,0.22,0.11c6.02,2.46,12.03,4.93,18.05,7.39
	C157.925,345.982,168.205,350.192,178.485,354.402z"/>
<path opacity="0.2" fill="#231F20" enable-background="new    " d="M257.025,354.522c0.09-0.04,0.19-0.08,0.28-0.12
	c0.61-0.25,0.92-0.76,0.99-1.29C258.265,353.852,257.785,354.532,257.025,354.522z"/>
<path opacity="0.2" fill="#231F20" enable-background="new    " d="M256.505,354.402c-0.63-0.26-1.26-0.52-1.89-0.78
	c-0.55-0.22-1.09-0.449-1.64-0.67c1.18-0.49,2.35-0.97,3.53-1.45c0.18-0.069,0.35-0.109,0.5-0.109c0.1,0.04,0.2,0.08,0.3,0.12
	c0.61,0.239,0.92,0.76,0.99,1.279c0,0.061,0.01,0.11,0.01,0.16s-0.01,0.11-0.01,0.16c-0.07,0.53-0.38,1.04-0.99,1.29
	c-0.09,0.04-0.19,0.08-0.28,0.12C256.865,354.522,256.695,354.482,256.505,354.402z"/>
<path opacity="0.2" fill="#231F20" enable-background="new    " d="M258.295,352.792c-0.07-0.52-0.38-1.04-0.99-1.279
	c-0.1-0.04-0.2-0.08-0.3-0.12C257.775,351.352,258.265,352.042,258.295,352.792z"/>
<path opacity="0.2" fill="#231F20" enable-background="new    " d="M217.255,351.383c0.76-0.011,1.24,0.67,1.26,1.409
	c-0.07-0.529-0.38-1.04-0.98-1.29C217.445,351.462,217.345,351.423,217.255,351.383z"/>
<path opacity="0.2" fill="#231F20" enable-background="new    " d="M217.255,354.522c0.09-0.04,0.19-0.08,0.28-0.12
	c0.6-0.25,0.91-0.76,0.98-1.29C218.495,353.852,218.015,354.532,217.255,354.522z"/>
<path opacity="0.2" fill="#231F20" enable-background="new    " d="M218.515,352.792c0.01,0.051,0.02,0.11,0.01,0.16
	c0,0.021,0,0.03,0,0.05c0,0.03,0,0.07-0.01,0.11c-0.07,0.53-0.38,1.04-0.98,1.29c-0.09,0.04-0.19,0.08-0.28,0.12
	c-0.16,0-0.33-0.04-0.52-0.12c-1.18-0.479-2.36-0.97-3.54-1.45c1.18-0.479,2.36-0.97,3.54-1.45c0.19-0.079,0.36-0.119,0.52-0.119
	c0.09,0.04,0.19,0.079,0.28,0.119C218.135,351.752,218.445,352.263,218.515,352.792z"/>
<path opacity="0.2" fill="#231F20" enable-background="new    " d="M180.855,353.492c0.47-0.01,0.76,0.45,0.74,0.91
	c-0.01-0.34-0.19-0.68-0.58-0.84C180.965,353.542,180.905,353.522,180.855,353.492z"/>
<path opacity="0.2" fill="#231F20" enable-background="new    " d="M181.595,354.402c0.02,0.47-0.27,0.93-0.75,0.92
	c0.06-0.02,0.11-0.05,0.17-0.07C181.405,355.093,181.585,354.752,181.595,354.402z"/>
<path opacity="0.2" fill="#231F20" enable-background="new    " d="M180.545,355.252c-0.69-0.279-1.37-0.56-2.06-0.85
	c0.69-0.28,1.37-0.56,2.06-0.84c0.11-0.05,0.22-0.07,0.31-0.07c0.05,0.03,0.11,0.05,0.16,0.07c0.39,0.16,0.57,0.5,0.58,0.84
	c-0.01,0.35-0.19,0.69-0.58,0.85c-0.06,0.021-0.11,0.051-0.17,0.07C180.755,355.322,180.645,355.303,180.545,355.252z"/>
<path opacity="0.2" fill="#231F20" enable-background="new    " d="M129.345,374.522
	C129.715,374.732,129.035,374.682,129.345,374.522L129.345,374.522z"/>
<path opacity="0.2" fill="#231F20" enable-background="new    " d="M129.005,302.173c-0.24-0.101,0.24-0.19,0.39-0.15
	c0.08,0.03,0.07,0.09-0.21,0.229C129.125,302.223,129.065,302.192,129.005,302.173z"/>
<path opacity="0.2" fill="#231F20" enable-background="new    " d="M129.375,334.272
	C129.015,334.062,129.715,334.122,129.375,334.272L129.375,334.272z"/>
<path opacity="0.2" fill="#231F20" enable-background="new    " d="M129.305,387.602c-0.13,0.05-0.51-0.04-0.15-0.23c0,0,0,0,0.01,0
	C129.375,387.502,129.375,387.572,129.305,387.602z"/>
<path opacity="0.2" fill="#231F20" enable-background="new    " d="M129.205,318.532c-0.61-0.37,0.55-0.28,0.01,0
	C129.215,318.532,129.215,318.532,129.205,318.532z"/>
<path opacity="0.2" fill="#231F20" enable-background="new    " d="M129.365,403.732c0.24,0.1-0.24,0.189-0.39,0.15
	c-0.08-0.031-0.07-0.093,0.21-0.23C129.245,403.682,129.305,403.712,129.365,403.732z"/>
<path opacity="0.2" fill="#231F20" enable-background="new    " d="M127.365,335.102c-2.98,1.22-5.95,2.439-8.92,3.649
	c-12.73,5.221-25.46,10.431-38.19,15.65c-0.69-0.28-1.38-0.57-2.07-0.85l-0.06-0.15c11.35-4.66,22.69-9.3,34.04-13.95
	c5.6-2.3,11.19-4.59,16.78-6.88c0.85-0.34,2.15,0.54,2.89,0.84c2.97,1.221,5.94,2.44,8.92,3.65c13.37,5.479,26.73,10.96,40.1,16.43
	c-0.09,0-0.2,0.021-0.31,0.07c-0.69,0.28-1.37,0.56-2.06,0.84c-10.28-4.21-20.56-8.42-30.84-12.63
	c-6.02-2.46-12.03-4.93-18.05-7.391c-0.1-0.039-0.17-0.079-0.22-0.109c0.34-0.15-0.36-0.21,0,0c-0.01,0.01-0.03,0.01-0.04,0.02
	C128.675,334.562,128.015,334.832,127.365,335.102z"/>
<path opacity="0.2" fill="#231F20" enable-background="new    " d="M80.255,354.402c-0.69,0.28-1.38,0.57-2.07,0.85
	c0-0.569,0-1.13,0-1.699C78.875,353.832,79.565,354.122,80.255,354.402z"/>
<path opacity="0.2" fill="#231F20" enable-background="new    " d="M126.895,375.392c-2.97-1.22-5.94-2.44-8.91-3.66
	c-13.42-5.49-26.84-10.99-40.26-16.48c-0.83-0.34-0.83-1.35,0-1.689c0.13-0.05,0.27-0.11,0.4-0.16l0.06,0.15c0,0.569,0,1.13,0,1.699
	c0.69-0.279,1.38-0.569,2.07-0.85c10.28,4.22,20.56,8.42,30.83,12.63c6.02,2.46,12.03,4.93,18.05,7.392
	c0.09,0.038,0.16,0.068,0.21,0.1c-0.31,0.16,0.37,0.21,0,0c0.01,0,0.03-0.01,0.05-0.021c0.66-0.27,1.32-0.528,1.98-0.8
	c2.97-1.22,5.94-2.438,8.91-3.648c12.73-5.221,25.47-10.44,38.2-15.65c0.69,0.29,1.37,0.57,2.06,0.85c0.1,0.051,0.21,0.07,0.3,0.07
	c-11.43,4.68-22.86,9.351-34.28,14.03c-5.59,2.3-11.19,4.59-16.78,6.88C128.935,376.572,127.645,375.692,126.895,375.392z"/>
<path opacity="0.2" fill="#231F20" enable-background="new    " d="M45.175,352.952c-1.18,0.48-2.36,0.971-3.54,1.45
	c0-0.97,0-1.93,0-2.9C42.815,351.982,43.995,352.473,45.175,352.952z"/>
<g opacity="0.2">
	<path fill="#E9202B" d="M129.235,387.343c1.13-0.46,2.25-0.92,3.38-1.382c5.08-2.078,10.16-4.158,15.25-6.238
		c21.771-8.932,43.55-17.84,65.33-26.771c1.18,0.48,2.36,0.97,3.54,1.45c0.19,0.08,0.36,0.12,0.52,0.12
		c-19.55,8-39.1,16.01-58.65,24.01c-9.42,3.86-18.85,7.72-28.27,11.58l-1.03-2.51c0.07-0.03,0.07-0.102-0.14-0.23
		C129.185,387.362,129.205,387.352,129.235,387.343z"/>
	<path fill="#E9202B" d="M125.755,319.942c-5.08,2.08-10.16,4.16-15.25,6.25c-21.77,8.92-43.55,17.83-65.33,26.76
		c-1.18-0.479-2.36-0.97-3.54-1.45c0,0.971,0,1.931,0,2.9l-0.11,0.28c-0.23-0.09-0.46-0.19-0.69-0.28c-1.42-0.59-1.42-2.31,0-2.9
		c19.65-8.04,39.29-16.09,58.93-24.13c9.57-3.92,19.14-7.84,28.71-11.76c1.44-0.59,3.66,0.91,4.94,1.44
		c5.08,2.08,10.16,4.159,15.24,6.239c22.87,9.37,45.73,18.73,68.6,28.091c-0.16,0-0.33,0.04-0.52,0.119
		c-1.18,0.48-2.36,0.971-3.54,1.45c-17.58-7.21-35.16-14.399-52.74-21.609c-10.29-4.21-20.58-8.431-30.87-12.641
		c-0.16-0.07-0.28-0.13-0.37-0.17c0.54-0.28-0.62-0.37-0.01,0c-0.02,0.01-0.04,0.021-0.07,0.03
		C128.005,319.022,126.885,319.482,125.755,319.942z"/>
	<path fill="#E9202B" d="M97.915,374.562c10.29,4.21,20.58,8.43,30.87,12.64c0.16,0.07,0.28,0.13,0.37,0.17
		c-0.36,0.19,0.02,0.28,0.15,0.23l1.03,2.51c-0.15,0.062-0.29,0.12-0.44,0.18c-1.44,0.592-3.66-0.908-4.94-1.438
		c-5.08-2.08-10.16-4.16-15.24-6.24c-22.73-9.32-45.46-18.62-68.19-27.93l0.11-0.28c1.18-0.479,2.36-0.97,3.54-1.45
		C62.755,360.162,80.335,367.352,97.915,374.562z"/>
</g>
<path opacity="0.2" fill="#231F20" enable-background="new    " d="M3.755,352.282c0.55,0.22,1.09,0.45,1.64,0.67
	c-1.18,0.49-2.35,0.971-3.53,1.45c0-0.97,0-1.93,0-2.9C2.495,351.763,3.125,352.022,3.755,352.282z"/>
<g opacity="0.2">
	<path fill="#E9202B" d="M131.495,303.192c-0.77-0.32-1.54-0.63-2.31-0.94c0.28-0.14,0.29-0.199,0.21-0.229l1.02-2.49
		c42.2,17.29,84.39,34.57,126.59,51.86c-0.15,0-0.32,0.04-0.5,0.109c-1.18,0.48-2.35,0.96-3.53,1.45
		c-23.47-9.62-46.95-19.229-70.42-28.84c-13.22-5.42-26.43-10.83-39.65-16.25C139.105,306.312,135.295,304.752,131.495,303.192z"/>
	<path fill="#E9202B" d="M131.485,405.942c-1.16,0.47-2.03,1.05-3.25,0.55c-0.09-0.04-0.19-0.08-0.28-0.12l1.02-2.487
		c0.15,0.039,0.63-0.053,0.39-0.15c-0.06-0.021-0.12-0.051-0.18-0.08c0.04-0.02,0.09-0.04,0.15-0.061
		c41.21-16.882,82.43-33.762,123.64-50.642c0.55,0.221,1.09,0.45,1.64,0.67c0.63,0.261,1.26,0.521,1.89,0.78
		c0.19,0.08,0.36,0.12,0.52,0.12c-0.81,0.33-1.61,0.66-2.42,0.99c-24.66,10.1-49.32,20.199-73.98,30.3
		c-12.89,5.28-25.79,10.56-38.69,15.84C138.455,403.082,134.965,404.514,131.485,405.942z"/>
	<path fill="#E9202B" d="M129.035,302.312c-41.21,16.88-82.43,33.76-123.64,50.64c-0.55-0.22-1.09-0.45-1.64-0.67
		c-0.63-0.26-1.26-0.52-1.89-0.78l-0.11-0.27c0.67-0.28,1.34-0.55,2.01-0.83c24.66-10.1,49.32-20.2,73.98-30.3
		c12.9-5.29,25.79-10.57,38.69-15.851c3.48-1.43,6.97-2.859,10.46-4.279c1.15-0.48,2.02-1.05,3.24-0.561
		c0.09,0.04,0.19,0.08,0.28,0.12l-1.02,2.49c-0.15-0.04-0.63,0.05-0.39,0.15c0.06,0.021,0.12,0.05,0.18,0.079
		C129.145,302.272,129.095,302.292,129.035,302.312z"/>
	<path fill="#E9202B" d="M115.465,398.042c3.81,1.562,7.61,3.11,11.41,4.67c0.77,0.32,1.54,0.632,2.31,0.94
		c-0.28,0.14-0.29,0.199-0.21,0.23l-1.02,2.487c-42.3-17.329-84.59-34.648-126.89-51.969c-1.42-0.58-1.42-2.31,0-2.89
		c0.23-0.09,0.46-0.19,0.69-0.28l0.11,0.27c0,0.971,0,1.931,0,2.9c1.18-0.48,2.35-0.96,3.53-1.45
		c23.47,9.62,46.95,19.23,70.42,28.852C89.035,387.212,102.245,392.622,115.465,398.042z"/>
</g>
<path opacity="0.2" fill="#E9202B" enable-background="new    " d="M1020.865,352.952c-41.211,16.892-82.42,33.76-123.631,50.642
	c-0.059,0.028-0.119,0.051-0.16,0.068c-0.77-0.318-1.527-0.63-2.299-0.95c-3.811-1.56-7.609-3.108-11.42-4.67
	c-13.211-5.42-26.43-10.83-39.648-16.238c-23.473-9.62-46.939-19.23-70.422-28.852c41.209-16.88,82.432-33.76,123.643-50.64
	c0.059-0.021,0.107-0.04,0.146-0.061c0.771,0.311,1.541,0.62,2.313,0.94c3.801,1.56,7.607,3.12,11.41,4.67
	c13.221,5.42,26.438,10.83,39.648,16.25C973.914,333.723,997.395,343.332,1020.865,352.952z M986.414,352.952
	c0.014-0.05,0-0.109-0.01-0.16c-0.027-0.75-0.51-1.439-1.277-1.399c-22.859-9.37-45.723-18.73-68.58-28.101
	c-5.08-2.08-10.16-4.159-15.24-6.239c-1.279-0.53-3.5-2.03-4.939-1.44c-0.148,0.061-0.291,0.12-0.438,0.18
	c-9.42,3.86-18.854,7.721-28.271,11.58c-19.41,7.95-38.83,15.9-58.238,23.86c-0.23,0.09-0.449,0.19-0.682,0.28
	c-1.42,0.58-1.42,2.31,0,2.89c22.949,9.4,45.91,18.81,68.869,28.21c5.08,2.08,10.16,4.16,15.24,6.24
	c1.279,0.53,3.5,2.04,4.938,1.438c9.57-3.92,19.143-7.84,28.711-11.76c19.563-8,39.102-16.01,58.65-24.01
	c0.76,0.01,1.24-0.67,1.26-1.41C986.414,353.062,986.426,353.013,986.414,352.952z"/>
<path opacity="0.2" enable-background="new    " d="M946.186,352.792c-12.73,5.21-25.48,10.431-38.211,15.65
	c-2.969,1.21-5.939,2.43-8.91,3.65c-0.66,0.27-1.309,0.54-1.969,0.81c-0.012,0.01-0.031,0.01-0.041,0.021
	c-0.049-0.03-0.119-0.07-0.219-0.11c-6.021-2.46-12.041-4.93-18.053-7.39c-10.277-4.21-20.561-8.41-30.83-12.631
	c12.73-5.22,25.461-10.43,38.189-15.649c2.971-1.21,5.941-2.43,8.91-3.65c0.66-0.27,1.318-0.54,1.979-0.8
	c0.021-0.01,0.041-0.02,0.053-0.02c0.051,0.029,0.119,0.06,0.211,0.1c6.02,2.46,12.027,4.93,18.049,7.39
	C925.615,344.372,935.904,348.582,946.186,352.792z"/>
<path opacity="0.2" enable-background="new    " d="M1026.186,352.803c0.01,0.05,0.01,0.1,0.01,0.159
	C1026.195,352.912,1026.186,352.852,1026.186,352.803z"/>
<path opacity="0.2" enable-background="new    " d="M1026.195,352.962c0,0.051,0,0.101-0.01,0.15
	C1026.186,353.062,1026.195,353.013,1026.195,352.962z"/>
<path opacity="0.2" enable-background="new    " d="M1026.186,352.803c-0.07-0.53-0.381-1.051-0.99-1.29
	c-0.1-0.04-0.201-0.08-0.301-0.12C1025.676,351.352,1026.164,352.053,1026.186,352.803z"/>
<path opacity="0.2" enable-background="new    " d="M1025.195,354.402c0.609-0.25,0.92-0.77,0.99-1.29
	c-0.021,0.74-0.51,1.43-1.271,1.41C1025.006,354.482,1025.105,354.442,1025.195,354.402z"/>
<path opacity="0.2" enable-background="new    " d="M1025.195,351.513c0.609,0.239,0.92,0.76,0.99,1.29
	c0,0.05,0.01,0.109,0.01,0.159c0,0.051-0.01,0.101-0.01,0.15c-0.07,0.521-0.381,1.04-0.99,1.29c-0.09,0.04-0.188,0.08-0.281,0.12
	c-0.156-0.01-0.326-0.05-0.51-0.12c-0.629-0.26-1.27-0.52-1.896-0.78c-0.553-0.22-1.094-0.449-1.643-0.67
	c1.182-0.479,2.359-0.97,3.539-1.45c0.184-0.069,0.34-0.109,0.49-0.109C1024.994,351.432,1025.096,351.473,1025.195,351.513z"/>
<path opacity="0.2" fill="#231F20" enable-background="new    " d="M986.404,352.792c0.01,0.051,0.021,0.11,0.01,0.16
	C986.414,352.902,986.404,352.852,986.404,352.792z"/>
<path opacity="0.2" fill="#231F20" enable-background="new    " d="M986.414,352.952c0.014,0.061,0,0.11-0.01,0.16
	C986.404,353.062,986.414,353.002,986.414,352.952z"/>
<path opacity="0.2" fill="#231F20" enable-background="new    " d="M986.404,352.792c-0.066-0.52-0.379-1.04-0.979-1.279
	c-0.102-0.04-0.199-0.08-0.301-0.12C985.895,351.352,986.377,352.042,986.404,352.792z"/>
<path opacity="0.2" fill="#231F20" enable-background="new    " d="M985.426,354.402c0.6-0.25,0.908-0.76,0.979-1.29
	c-0.02,0.74-0.5,1.42-1.26,1.41C985.234,354.482,985.336,354.442,985.426,354.402z"/>
<path opacity="0.2" fill="#231F20" enable-background="new    " d="M985.426,351.513c0.6,0.239,0.908,0.76,0.979,1.279
	c0,0.061,0.01,0.11,0.01,0.16s-0.01,0.11-0.01,0.16c-0.068,0.53-0.381,1.04-0.979,1.29c-0.092,0.04-0.191,0.08-0.281,0.12
	c-0.16,0-0.33-0.04-0.521-0.12c-1.18-0.479-2.357-0.97-3.537-1.45c1.18-0.479,2.357-0.97,3.537-1.45
	c0.184-0.069,0.354-0.109,0.5-0.109C985.225,351.432,985.324,351.473,985.426,351.513z"/>
<path opacity="0.2" fill="#231F20" enable-background="new    " d="M948.547,351.883c0.479-0.011,0.76,0.449,0.736,0.92
	c-0.01-0.351-0.188-0.69-0.58-0.851C948.654,351.932,948.596,351.912,948.547,351.883z"/>
<path opacity="0.2" fill="#231F20" enable-background="new    " d="M949.285,352.803c0.021,0.46-0.27,0.92-0.738,0.909
	c0.051-0.029,0.107-0.05,0.158-0.069C949.096,353.482,949.266,353.142,949.285,352.803z"/>
<path opacity="0.2" fill="#231F20" enable-background="new    " d="M948.244,353.642c-0.688-0.28-1.367-0.561-2.059-0.851
	c0.688-0.279,1.369-0.56,2.059-0.84c0.111-0.05,0.211-0.069,0.303-0.069c0.051,0.029,0.107,0.05,0.158,0.069
	c0.393,0.16,0.57,0.5,0.58,0.851c-0.02,0.34-0.188,0.68-0.58,0.84c-0.051,0.02-0.107,0.04-0.158,0.069
	C948.455,353.712,948.355,353.692,948.244,353.642z"/>
<path opacity="0.2" enable-background="new    " d="M897.285,302.022c0.08,0.03,0.07,0.09-0.211,0.229
	c-0.059-0.029-0.119-0.06-0.18-0.079C896.664,302.072,897.135,301.982,897.285,302.022z"/>
<path opacity="0.2" enable-background="new    " d="M897.256,403.732c0.236,0.1-0.23,0.189-0.383,0.15
	c-0.078-0.031-0.068-0.093,0.199-0.223C897.135,403.682,897.195,403.712,897.256,403.732z"/>
<path opacity="0.2" fill="#231F20" enable-background="new    " d="M897.055,387.372c0.621,0.37-0.549,0.29-0.01,0
	C897.047,387.372,897.047,387.372,897.055,387.372z"/>
<path opacity="0.2" fill="#231F20" enable-background="new    " d="M897.055,372.923
	C897.414,373.133,896.715,373.072,897.055,372.923L897.055,372.923z"/>
<path opacity="0.2" fill="#231F20" enable-background="new    " d="M897.086,332.673
	C896.715,332.462,897.385,332.513,897.086,332.673L897.086,332.673z"/>
<path opacity="0.2" fill="#231F20" enable-background="new    " d="M897.096,318.532c-0.211-0.13-0.211-0.2-0.143-0.229
	c0.131-0.051,0.512,0.04,0.15,0.229C897.105,318.522,897.105,318.522,897.096,318.532z"/>
<path opacity="0.2" fill="#231F20" enable-background="new    " d="M897.035,332.692c-0.658,0.26-1.318,0.53-1.979,0.8
	c-2.971,1.22-5.941,2.44-8.91,3.65c-12.729,5.22-25.461,10.43-38.191,15.649c-0.688-0.279-1.379-0.569-2.066-0.85l-0.063-0.16
	c11.342-4.649,22.699-9.3,34.039-13.939c5.59-2.301,11.191-4.591,16.781-6.881c0.84-0.34,2.139,0.54,2.889,0.841
	c2.973,1.22,5.941,2.439,8.91,3.649c13.371,5.48,26.73,10.96,40.104,16.43c-0.094,0-0.191,0.021-0.303,0.07
	c-0.688,0.28-1.369,0.561-2.061,0.84c-10.279-4.21-20.57-8.42-30.84-12.63c-6.021-2.46-12.029-4.93-18.049-7.39
	c-0.092-0.04-0.16-0.07-0.211-0.101c0.301-0.159-0.369-0.21,0,0C897.074,332.673,897.055,332.682,897.035,332.692z"/>
<path opacity="0.2" fill="#231F20" enable-background="new    " d="M847.955,352.792c-0.688,0.28-1.381,0.57-2.068,0.851
	c0-0.57,0-1.13,0-1.7C846.574,352.223,847.266,352.513,847.955,352.792z"/>
<path opacity="0.2" fill="#231F20" enable-background="new    " d="M897.475,374.622c-0.84,0.352-2.141-0.54-2.879-0.84
	c-2.973-1.22-5.951-2.438-8.92-3.648c-13.42-5.5-26.842-11-40.262-16.49c-0.83-0.34-0.83-1.351,0-1.69
	c0.141-0.06,0.271-0.109,0.408-0.17l0.063,0.16c0,0.57,0,1.13,0,1.7c0.688-0.28,1.381-0.57,2.068-0.851
	c10.271,4.221,20.551,8.421,30.83,12.631c6.012,2.46,12.029,4.93,18.051,7.39c0.102,0.04,0.17,0.08,0.221,0.11
	c-0.34,0.148,0.357,0.21,0,0c0.01-0.012,0.029-0.012,0.041-0.021c0.658-0.27,1.309-0.54,1.969-0.81
	c2.971-1.222,5.939-2.44,8.91-3.65c12.729-5.22,25.479-10.44,38.211-15.65c0.688,0.29,1.369,0.57,2.059,0.851
	c0.111,0.05,0.211,0.07,0.303,0.07c-11.432,4.67-22.852,9.35-34.279,14.029C908.664,370.042,903.074,372.332,897.475,374.622z"/>
<path opacity="0.2" fill="#231F20" enable-background="new    " d="M813.064,352.952c-1.18,0.48-2.359,0.971-3.539,1.45
	c0-0.97,0-1.93,0-2.9C810.705,351.982,811.885,352.473,813.064,352.952z"/>
<g opacity="0.2">
	<path fill="#E9202B" d="M897.105,318.532c0.359-0.189-0.021-0.28-0.15-0.229l-1.027-2.511c0.146-0.06,0.289-0.119,0.438-0.18
		c1.439-0.59,3.66,0.91,4.939,1.44c5.08,2.08,10.16,4.159,15.24,6.239c22.857,9.37,45.721,18.73,68.578,28.101
		c-0.148,0-0.318,0.04-0.5,0.109c-1.18,0.48-2.357,0.971-3.539,1.45c-17.58-7.21-35.158-14.399-52.738-21.6
		c-10.291-4.22-20.58-8.44-30.871-12.65C897.314,318.633,897.195,318.572,897.105,318.532z"/>
	<path fill="#E9202B" d="M897.025,318.562c-1.131,0.46-2.25,0.92-3.381,1.38c-5.08,2.08-10.16,4.16-15.24,6.25
		c-21.777,8.92-43.559,17.83-65.34,26.76c-1.18-0.479-2.359-0.97-3.539-1.45l-0.109-0.27c19.408-7.96,38.828-15.91,58.238-23.86
		c9.42-3.859,18.854-7.72,28.271-11.58l1.027,2.511c-0.066,0.029-0.066,0.1,0.143,0.229
		C897.074,318.542,897.055,318.553,897.025,318.562z"/>
	<path fill="#E9202B" d="M865.805,374.562c10.291,4.21,20.58,8.43,30.881,12.64c0.16,0.07,0.279,0.13,0.359,0.17
		c-0.539,0.29,0.631,0.37,0.01,0c0.02-0.01,0.041-0.02,0.068-0.028c1.131-0.46,2.262-0.92,3.381-1.382
		c5.08-2.078,10.172-4.158,15.25-6.238c21.771-8.932,43.551-17.84,65.33-26.771c1.182,0.48,2.359,0.971,3.539,1.45
		c0.189,0.08,0.359,0.12,0.521,0.12c-19.551,8-39.09,16.01-58.65,24.01c-9.568,3.92-19.141,7.84-28.711,11.76
		c-1.438,0.602-3.658-0.908-4.938-1.438c-5.08-2.08-10.16-4.16-15.24-6.24c-22.959-9.399-45.92-18.81-68.869-28.21
		c-1.42-0.58-1.42-2.31,0-2.89c0.229-0.09,0.449-0.19,0.68-0.28l0.109,0.27c0,0.971,0,1.931,0,2.9c1.18-0.479,2.361-0.97,3.541-1.45
		C830.645,360.162,848.225,367.352,865.805,374.562z"/>
</g>
<path opacity="0.2" enable-background="new    " d="M771.645,352.282c0.551,0.22,1.09,0.45,1.641,0.67
	c-1.18,0.49-2.35,0.971-3.527,1.45c0-0.97,0-1.93,0-2.9C770.385,351.763,771.016,352.022,771.645,352.282z"/>
<g opacity="0.2">
	<path fill="#E9202B" d="M899.385,303.192c-0.771-0.32-1.539-0.63-2.313-0.94c0.281-0.14,0.291-0.199,0.211-0.229l1.021-2.49
		c42.199,17.29,84.389,34.57,126.59,51.86c-0.15,0-0.313,0.04-0.49,0.109c-1.18,0.48-2.357,0.971-3.541,1.45
		c-23.469-9.62-46.949-19.229-70.42-28.84c-13.209-5.42-26.43-10.83-39.646-16.25C906.994,306.312,903.186,304.752,899.385,303.192z
		"/>
	<path fill="#E9202B" d="M896.877,403.883c0.148,0.041,0.617-0.052,0.381-0.149c-0.063-0.021-0.121-0.05-0.184-0.07
		c0.041-0.021,0.104-0.04,0.16-0.067c41.211-16.883,82.42-33.75,123.631-50.643c0.549,0.221,1.09,0.45,1.643,0.67
		c0.629,0.261,1.27,0.521,1.896,0.78c0.184,0.07,0.354,0.11,0.51,0.12c-0.809,0.33-1.607,0.66-2.42,0.99
		c-24.656,10.1-49.316,20.199-73.969,30.3c-12.9,5.28-25.801,10.56-38.688,15.84c-3.49,1.43-6.98,2.86-10.463,4.29
		c-1.158,0.47-2.027,1.05-3.25,0.55c-0.09-0.04-0.18-0.067-0.27-0.108L896.877,403.883z"/>
	<path fill="#E9202B" d="M894.785,299.973c1.15-0.48,2.021-1.05,3.24-0.561c0.09,0.04,0.189,0.08,0.279,0.12l-1.021,2.49
		c-0.146-0.04-0.619,0.05-0.389,0.15c0.059,0.021,0.119,0.05,0.18,0.079c-0.041,0.021-0.09,0.04-0.148,0.061
		c-41.209,16.88-82.432,33.76-123.643,50.64c-0.549-0.22-1.09-0.45-1.639-0.67c-0.631-0.26-1.26-0.52-1.891-0.78l-0.109-0.27
		c0.67-0.28,1.34-0.55,2.01-0.83c24.66-10.1,49.32-20.2,73.98-30.3c12.896-5.29,25.789-10.57,38.688-15.851
		C887.814,302.822,891.297,301.392,894.785,299.973z"/>
	<path fill="#E9202B" d="M768.955,354.402c-1.42-0.58-1.42-2.31,0-2.89c0.23-0.09,0.459-0.19,0.689-0.28l0.111,0.27
		c0,0.971,0,1.931,0,2.9c1.18-0.48,2.35-0.96,3.527-1.45c23.48,9.62,46.949,19.23,70.42,28.852
		c13.223,5.408,26.439,10.818,39.65,16.238c3.809,1.562,7.609,3.11,11.42,4.67c0.771,0.32,1.529,0.632,2.299,0.95
		c-0.27,0.13-0.277,0.189-0.199,0.223l-1.02,2.5C853.555,389.053,811.256,371.723,768.955,354.402z"/>
</g>
<path opacity="0.2" fill="#E9202B" enable-background="new    " d="M1276.314,352.952c-41.209,16.88-82.43,33.76-123.639,50.642
	c-0.063,0.021-0.111,0.041-0.15,0.061c-0.771-0.311-1.541-0.62-2.311-0.939c-3.803-1.561-7.609-3.109-11.41-4.671
	c-13.221-5.42-26.432-10.829-39.65-16.238c-23.469-9.62-46.949-19.23-70.42-28.852c41.221-16.89,82.42-33.76,123.641-50.64
	c0.063-0.021,0.109-0.04,0.15-0.061c0.77,0.311,1.539,0.62,2.299,0.94c3.813,1.56,7.611,3.12,11.42,4.67
	c13.223,5.42,26.434,10.83,39.65,16.24C1229.365,333.723,1252.846,343.332,1276.314,352.952z M1241.865,352.952
	c0-0.06,0-0.109-0.01-0.16c-0.031-0.739-0.51-1.43-1.271-1.409c-22.859-9.36-45.721-18.73-68.592-28.091
	c-5.08-2.08-10.158-4.159-15.238-6.239c-1.279-0.53-3.5-2.03-4.939-1.44c-9.57,3.92-19.139,7.84-28.709,11.76
	c-19.641,8.04-39.281,16.09-58.93,24.13c-1.422,0.58-1.422,2.311,0,2.9c0.229,0.09,0.459,0.19,0.688,0.28
	c22.73,9.31,45.459,18.608,68.189,27.93c5.08,2.08,10.16,4.16,15.24,6.24c1.277,0.53,3.5,2.03,4.938,1.438
	c0.15-0.06,0.291-0.118,0.439-0.18c9.422-3.86,18.852-7.72,28.271-11.58c19.549-8,39.09-16.01,58.641-24.01
	c0.762,0.02,1.238-0.67,1.271-1.41C1241.865,353.062,1241.865,353.013,1241.865,352.952z"/>
<path opacity="0.2" enable-background="new    " d="M1170.785,339.462c10.279,4.211,20.57,8.421,30.84,12.631
	c-12.729,5.21-25.471,10.42-38.197,15.64c-2.973,1.22-5.941,2.43-8.91,3.65c-0.66,0.27-1.32,0.54-1.971,0.81
	c-0.021,0.01-0.039,0.02-0.053,0.03c-0.049-0.03-0.119-0.07-0.219-0.11c-6.01-2.47-12.031-4.93-18.041-7.39
	c-10.279-4.221-20.57-8.431-30.84-12.63c12.729-5.221,25.471-10.431,38.201-15.65c2.969-1.22,5.938-2.43,8.91-3.65
	c0.658-0.27,1.309-0.54,1.969-0.81c0.02-0.01,0.041-0.021,0.051-0.03c0.049,0.03,0.119,0.07,0.219,0.11
	C1158.756,334.532,1164.775,336.992,1170.785,339.462z"/>
<path opacity="0.2" enable-background="new    " d="M1281.635,352.792c0.01,0.051,0.01,0.11,0.01,0.16
	C1281.645,352.902,1281.635,352.843,1281.635,352.792z"/>
<path opacity="0.2" enable-background="new    " d="M1281.645,352.952c0,0.05,0,0.11-0.01,0.16
	C1281.635,353.062,1281.645,353.002,1281.645,352.952z"/>
<path opacity="0.2" enable-background="new    " d="M1281.635,352.792c-0.07-0.529-0.379-1.04-0.99-1.29
	c-0.09-0.04-0.189-0.079-0.279-0.119C1281.125,351.372,1281.605,352.053,1281.635,352.792z"/>
<path opacity="0.2" enable-background="new    " d="M1280.645,354.402c0.611-0.25,0.92-0.76,0.99-1.29
	c-0.029,0.74-0.512,1.42-1.271,1.41C1280.455,354.482,1280.555,354.442,1280.645,354.402z"/>
<path opacity="0.2" enable-background="new    " d="M1276.314,352.952c1.18-0.49,2.35-0.97,3.531-1.45
	c0.188-0.079,0.357-0.119,0.52-0.119c0.09,0.04,0.189,0.079,0.279,0.119c0.611,0.25,0.92,0.761,0.99,1.29
	c0,0.051,0.01,0.11,0.01,0.16s-0.01,0.11-0.01,0.16c-0.07,0.53-0.379,1.04-0.99,1.29c-0.09,0.04-0.188,0.08-0.279,0.12
	c-0.16,0-0.33-0.04-0.52-0.12c-0.631-0.26-1.262-0.52-1.893-0.78C1277.404,353.402,1276.865,353.173,1276.314,352.952z"/>
<path opacity="0.2" fill="#231F20" enable-background="new    " d="M1241.855,352.792c0.01,0.051,0.01,0.101,0.01,0.16
	C1241.865,352.902,1241.855,352.852,1241.855,352.792z"/>
<path opacity="0.2" fill="#231F20" enable-background="new    " d="M1241.865,352.952c0,0.061,0,0.11-0.01,0.16
	C1241.855,353.053,1241.865,353.002,1241.865,352.952z"/>
<path opacity="0.2" fill="#231F20" enable-background="new    " d="M1241.855,352.792c-0.07-0.52-0.381-1.04-0.99-1.29
	c-0.09-0.04-0.188-0.079-0.277-0.119C1241.346,351.362,1241.824,352.053,1241.855,352.792z"/>
<path opacity="0.2" fill="#231F20" enable-background="new    " d="M1240.865,354.402c0.609-0.25,0.92-0.77,0.99-1.29
	c-0.031,0.74-0.51,1.43-1.271,1.41C1240.676,354.482,1240.775,354.442,1240.865,354.402z"/>
<path opacity="0.2" fill="#231F20" enable-background="new    " d="M1240.865,351.502c0.609,0.25,0.92,0.771,0.99,1.29
	c0,0.061,0.01,0.11,0.01,0.16s-0.01,0.101-0.01,0.16c-0.07,0.521-0.381,1.04-0.99,1.29c-0.09,0.04-0.188,0.08-0.277,0.12
	c-0.16-0.01-0.33-0.05-0.514-0.12c-1.18-0.479-2.357-0.97-3.539-1.45c1.182-0.479,2.359-0.97,3.539-1.45
	c0.184-0.069,0.354-0.109,0.514-0.119C1240.676,351.423,1240.775,351.462,1240.865,351.502z"/>
<path opacity="0.2" fill="#231F20" enable-background="new    " d="M1203.994,351.173c0.473-0.011,0.764,0.449,0.74,0.92
	c-0.01-0.341-0.18-0.681-0.58-0.851C1204.105,351.223,1204.047,351.202,1203.994,351.173z"/>
<path opacity="0.2" fill="#231F20" enable-background="new    " d="M1204.154,352.932c0.381-0.16,0.563-0.48,0.58-0.811
	c0,0.46-0.279,0.891-0.74,0.88C1204.047,352.973,1204.105,352.952,1204.154,352.932z"/>
<path opacity="0.2" fill="#231F20" enable-background="new    " d="M1204.154,351.242c0.4,0.17,0.57,0.51,0.58,0.851
	c0,0.01,0,0.02,0,0.029c-0.02,0.33-0.199,0.65-0.58,0.811c-0.049,0.02-0.107,0.04-0.16,0.069c-0.09,0-0.197-0.02-0.309-0.069
	c-0.691-0.28-1.371-0.561-2.063-0.84c0.689-0.29,1.369-0.57,2.063-0.851c0.109-0.05,0.219-0.069,0.309-0.069
	C1204.047,351.202,1204.105,351.223,1204.154,351.242z"/>
<path opacity="0.2" enable-background="new    " d="M1152.734,302.022c0.08,0.03,0.07,0.09-0.209,0.229
	c-0.061-0.029-0.121-0.06-0.18-0.079C1152.105,302.072,1152.586,301.982,1152.734,302.022z"/>
<path opacity="0.2" enable-background="new    " d="M1152.705,403.732c0.24,0.1-0.238,0.189-0.391,0.15
	c-0.08-0.031-0.07-0.093,0.211-0.23C1152.586,403.682,1152.645,403.712,1152.705,403.732z"/>
<path opacity="0.2" fill="#231F20" enable-background="new    " d="M1152.506,387.372c0.209,0.13,0.209,0.2,0.139,0.23
	c-0.129,0.05-0.51-0.04-0.15-0.23C1152.494,387.372,1152.494,387.372,1152.506,387.372z"/>
<path opacity="0.2" fill="#231F20" enable-background="new    " d="M1152.494,372.223
	C1152.855,372.423,1152.186,372.372,1152.494,372.223L1152.494,372.223z"/>
<path opacity="0.2" fill="#231F20" enable-background="new    " d="M1152.525,331.952
	C1152.164,331.752,1152.836,331.803,1152.525,331.952L1152.525,331.952z"/>
<path opacity="0.2" fill="#231F20" enable-background="new    " d="M1152.547,318.532c-0.611-0.37,0.549-0.28,0.01,0
	C1152.555,318.522,1152.555,318.522,1152.547,318.532z"/>
<path opacity="0.2" fill="#231F20" enable-background="new    " d="M1141.125,369.423c-13.287-5.451-26.568-10.881-39.857-16.331
	l0.068-0.16c0.689-0.28,1.369-0.561,2.061-0.84c10.271,4.199,20.561,8.409,30.84,12.63c6.01,2.46,12.031,4.92,18.041,7.39
	c0.1,0.04,0.17,0.08,0.219,0.11c-0.309,0.148,0.361,0.2,0,0c0.014-0.012,0.031-0.021,0.053-0.03c0.648-0.271,1.311-0.54,1.971-0.81
	c2.969-1.222,5.938-2.432,8.91-3.65c12.729-5.22,25.469-10.43,38.197-15.64c0.689,0.279,1.369,0.56,2.063,0.84
	c0.109,0.05,0.219,0.069,0.309,0.069c-11.43,4.671-22.85,9.36-34.287,14.04c-5.592,2.29-11.182,4.58-16.779,6.87
	c-0.84,0.352-2.143-0.528-2.893-0.84C1147.064,371.852,1144.096,370.642,1141.125,369.423z"/>
<path opacity="0.2" fill="#231F20" enable-background="new    " d="M1101.336,352.932c0-0.561,0-1.13,0-1.69
	c0.688,0.28,1.367,0.561,2.061,0.851C1102.705,352.372,1102.025,352.652,1101.336,352.932z"/>
<path opacity="0.2" fill="#231F20" enable-background="new    " d="M1100.865,351.242c11.48-4.7,22.959-9.41,34.449-14.109
	c5.59-2.29,11.18-4.58,16.781-6.87c0.84-0.351,2.139,0.529,2.889,0.84c2.971,1.21,5.941,2.43,8.91,3.649
	c13.371,5.48,26.729,10.95,40.1,16.421c-0.09,0-0.197,0.02-0.309,0.069c-0.691,0.28-1.371,0.561-2.063,0.851
	c-10.27-4.21-20.561-8.42-30.84-12.631c-6.01-2.47-12.029-4.93-18.041-7.399c-0.1-0.04-0.17-0.08-0.219-0.11
	c0.311-0.149-0.361-0.2,0,0c-0.01,0.011-0.031,0.021-0.051,0.03c-0.66,0.27-1.313,0.54-1.971,0.81
	c-2.971,1.221-5.939,2.431-8.908,3.65c-12.73,5.22-25.473,10.43-38.201,15.65c-0.689-0.29-1.369-0.57-2.061-0.851
	c0,0.561,0,1.13,0,1.69l-0.068,0.16c-0.131-0.051-0.271-0.11-0.4-0.16C1100.035,352.593,1100.035,351.582,1100.865,351.242z"/>
<path opacity="0.2" fill="#231F20" enable-background="new    " d="M1064.975,354.402c0-0.97,0-1.93,0-2.9
	c1.18,0.48,2.359,0.971,3.541,1.45C1067.336,353.432,1066.154,353.923,1064.975,354.402z"/>
<g opacity="0.2">
	<path fill="#E9202B" d="M1181.945,378.532c-9.42,3.86-18.85,7.72-28.27,11.58l-1.031-2.51c0.07-0.03,0.07-0.102-0.141-0.23
		c0.021-0.01,0.041-0.02,0.068-0.028c1.131-0.46,2.25-0.921,3.381-1.382c5.08-2.078,10.16-4.158,15.24-6.238
		c21.779-8.932,43.561-17.84,65.34-26.771c1.182,0.48,2.359,0.97,3.539,1.45c0.182,0.07,0.352,0.11,0.512,0.12
		C1221.035,362.522,1201.494,370.532,1181.945,378.532z"/>
	<path fill="#E9202B" d="M1133.055,382.612c-22.73-9.32-45.459-18.62-68.189-27.93l0.109-0.28c1.18-0.479,2.359-0.97,3.541-1.45
		c17.58,7.21,35.16,14.4,52.74,21.61c10.289,4.21,20.578,8.43,30.867,12.64c0.16,0.07,0.279,0.13,0.369,0.17
		c-0.357,0.19,0.021,0.28,0.15,0.23l1.031,2.51c-0.15,0.062-0.291,0.12-0.441,0.18c-1.438,0.592-3.66-0.908-4.938-1.438
		C1143.215,386.772,1138.135,384.692,1133.055,382.612z"/>
	<path fill="#E9202B" d="M1133.846,326.182c-21.771,8.93-43.551,17.84-65.33,26.77c-1.182-0.479-2.361-0.97-3.541-1.45
		c0,0.971,0,1.931,0,2.9l-0.109,0.28c-0.229-0.09-0.461-0.19-0.688-0.28c-1.42-0.59-1.42-2.32,0-2.9
		c19.646-8.04,39.289-16.09,58.93-24.13c9.57-3.92,19.141-7.84,28.709-11.76c1.441-0.59,3.66,0.91,4.941,1.44
		c5.08,2.079,10.156,4.159,15.236,6.239c22.871,9.36,45.73,18.73,68.594,28.09c-0.16,0.011-0.33,0.051-0.514,0.12
		c-1.18,0.48-2.357,0.971-3.539,1.45c-17.58-7.21-35.16-14.399-52.738-21.609c-10.289-4.21-20.58-8.431-30.869-12.641
		c-0.16-0.07-0.281-0.13-0.371-0.17c0.541-0.28-0.619-0.37-0.01,0c-0.021,0.01-0.039,0.021-0.07,0.03
		c-1.129,0.46-2.25,0.92-3.379,1.38C1144.016,322.022,1138.936,324.102,1133.846,326.182z"/>
</g>
<path opacity="0.2" enable-background="new    " d="M1027.096,352.282c0.549,0.22,1.09,0.45,1.639,0.67
	c-1.18,0.48-2.357,0.971-3.539,1.45c0-0.97,0-1.93,0-2.9C1025.836,351.763,1026.465,352.022,1027.096,352.282z"/>
<g opacity="0.2">
	<path fill="#E9202B" d="M1152.525,302.252c0.279-0.14,0.289-0.199,0.209-0.229l1.021-2.49
		c42.197,17.29,84.408,34.57,126.607,51.851c-0.16,0-0.33,0.04-0.52,0.119c-1.182,0.48-2.352,0.96-3.529,1.45
		c-23.471-9.62-46.951-19.229-70.42-28.85c-13.221-5.41-26.432-10.82-39.65-16.24c-3.811-1.55-7.607-3.11-11.42-4.67
		C1154.064,302.872,1153.297,302.562,1152.525,302.252z"/>
	<path fill="#E9202B" d="M1152.314,403.883c0.15,0.041,0.631-0.052,0.391-0.149c-0.061-0.021-0.117-0.05-0.18-0.08
		c0.039-0.021,0.09-0.04,0.15-0.06c41.209-16.883,82.43-33.763,123.639-50.643c0.551,0.221,1.09,0.45,1.641,0.67
		c0.633,0.261,1.262,0.521,1.893,0.78c0.188,0.08,0.357,0.12,0.52,0.12c-0.811,0.32-1.607,0.65-2.42,0.979
		c-24.66,10.101-49.32,20.2-73.979,30.311c-12.9,5.28-25.791,10.56-38.691,15.84c-3.479,1.43-6.969,2.86-10.459,4.29
		c-1.15,0.47-2.02,1.05-3.24,0.55c-0.09-0.04-0.188-0.08-0.277-0.12L1152.314,403.883z"/>
	<path fill="#E9202B" d="M1099.154,381.803c13.221,5.408,26.434,10.818,39.65,16.238c3.801,1.562,7.609,3.11,11.41,4.67
		c0.77,0.32,1.541,0.633,2.311,0.94c-0.281,0.14-0.291,0.2-0.211,0.229l-1.02,2.488c-42.07-17.229-84.143-34.46-126.209-51.688
		l0.107-0.28c1.182-0.479,2.359-0.97,3.539-1.45C1052.205,362.572,1075.686,372.182,1099.154,381.803z"/>
	<path fill="#E9202B" d="M1101.086,320.102c12.891-5.29,25.787-10.57,38.688-15.851c3.48-1.43,6.971-2.859,10.451-4.279
		c1.16-0.48,2.029-1.061,3.25-0.561c0.09,0.04,0.188,0.08,0.279,0.12l-1.021,2.49c-0.148-0.04-0.629,0.05-0.389,0.15
		c0.059,0.021,0.119,0.05,0.18,0.079c-0.041,0.021-0.09,0.04-0.15,0.061c-41.221,16.88-82.42,33.75-123.641,50.64
		c-0.549-0.22-1.09-0.45-1.639-0.67c-0.631-0.26-1.262-0.52-1.9-0.78c0,0.971,0,1.931,0,2.9l-0.109,0.28
		c-0.229-0.09-0.449-0.19-0.682-0.28c-1.42-0.59-1.42-2.31,0-2.9c0.9-0.359,1.801-0.729,2.701-1.1
		C1051.766,340.303,1076.426,330.202,1101.086,320.102z"/>
</g>
<path opacity="0.2" fill="#FFFFFF" enable-background="new    " d="M1362.33,575.79l-81.41,142.42l-0.41-0.7L1198.28,576.5
	l83.1-0.36L1362.33,575.79z M1280.72,684.33l54.34-95.09l-109.51,0.479L1280.72,684.33z"/>
<polygon opacity="0.2" fill="#357835" enable-background="new    " points="1335.06,593.24 1280.72,688.33 1225.55,593.72 "/>
<polygon opacity="0.2" enable-background="new    " points="1198.28,576.5 1280.51,717.51 1279.31,718.21 1089.56,718.21 
	1253.62,717.5 1170.97,575.79 1281.38,575.79 1281.38,576.14 "/>
<path opacity="0.2" fill="#FFFFFF" enable-background="new    " d="M1170.97,575.79l82.65,141.71l-164.062,0.71L1170.97,575.79z
	 M1226.35,704.28l-55.17-94.61l-54.35,95.09L1226.35,704.28z"/>
<polygon opacity="0.2" fill="#CE3C3C" enable-background="new    " points="1171.18,609.67 1226.35,704.28 1116.83,704.76 "/>
<polygon opacity="0.2" enable-background="new    " points="1170.97,575.79 1089.56,718.21 1066.91,718.21 1148.32,575.79 "/>
<path opacity="0.2" fill="#FFFFFF" enable-background="new    " d="M1148.32,575.79l-81.41,142.42L984.26,576.5L1148.32,575.79z
	 M1066.7,684.33l54.35-95.09l-109.52,0.479L1066.7,684.33z"/>
<polygon opacity="0.2" enable-background="new    " points="1148.32,575.79 984.26,576.5 1066.91,718.21 879.38,718.21 
	1043.43,717.5 960.78,575.79 "/>
<polygon opacity="0.2" fill="#357835" enable-background="new    " points="1121.05,593.24 1066.7,688.33 1011.53,593.72 "/>
<path opacity="0.2" fill="#FFFFFF" enable-background="new    " d="M960.78,575.79l82.648,141.71l-164.05,0.71L960.78,575.79z
	 M1016.16,704.28l-55.17-94.61l-54.352,95.09L1016.16,704.28z"/>
<polygon opacity="0.2" fill="#297BB3" enable-background="new    " points="960.99,609.67 1016.16,704.28 906.64,704.76 "/>
<polygon opacity="0.2" enable-background="new    " points="960.78,575.79 879.38,718.21 856.95,718.21 938.35,575.79 "/>
<path opacity="0.2" fill="#FFFFFF" enable-background="new    " d="M938.35,575.79L856.95,718.21L774.3,576.5L938.35,575.79z
	 M856.74,684.33l54.35-95.09l-109.52,0.479L856.74,684.33z"/>
<polygon opacity="0.2" enable-background="new    " points="938.35,575.79 774.3,576.5 856.95,718.21 670.94,718.21 834.99,717.5 
	752.35,575.79 "/>
<polygon opacity="0.2" fill="#357835" enable-background="new    " points="911.09,593.24 856.74,688.33 801.57,593.72 "/>
<path opacity="0.2" fill="#FFFFFF" enable-background="new    " d="M752.35,575.79L834.99,717.5l-164.05,0.71L752.35,575.79z
	 M807.72,704.28l-55.17-94.61l-54.34,95.09L807.72,704.28z"/>
<polygon opacity="0.2" fill="#CE3C3C" enable-background="new    " points="752.55,609.67 807.72,704.28 698.21,704.76 "/>
<polygon opacity="0.2" enable-background="new    " points="752.35,575.79 670.94,718.21 646.92,718.21 728.32,575.79 "/>
<path opacity="0.2" fill="#FFFFFF" enable-background="new    " d="M728.32,575.79l-81.4,142.42L564.271,576.5L728.32,575.79z
	 M646.71,684.33l54.35-95.09l-109.52,0.479L646.71,684.33z"/>
<polygon opacity="0.2" enable-background="new    " points="728.32,575.79 564.271,576.5 646.92,718.21 458.11,718.21 622.16,717.5 
	539.51,575.79 "/>
<polygon opacity="0.2" fill="#357835" enable-background="new    " points="701.06,593.24 646.71,688.33 591.54,593.72 "/>
<path opacity="0.2" fill="#FFFFFF" enable-background="new    " d="M539.51,575.79l82.65,141.71l-164.05,0.71L539.51,575.79z
	 M594.89,704.28l-55.17-94.61l-54.35,95.09L594.89,704.28z"/>
<polygon opacity="0.2" enable-background="new    " points="539.72,609.67 594.89,704.28 485.37,704.76 "/>
<polygon opacity="0.2" enable-background="new    " points="539.51,575.79 458.11,718.21 431.29,718.21 512.7,575.79 "/>
<path opacity="0.2" fill="#FFFFFF" enable-background="new    " d="M512.7,575.79l-81.41,142.42L348.65,576.5L512.7,575.79z
	 M431.09,684.33l54.34-95.09l-109.52,0.479L431.09,684.33z"/>
<polygon opacity="0.2" enable-background="new    " points="512.7,575.79 348.65,576.5 431.29,718.21 240.52,718.21 404.57,717.5 
	321.92,575.79 "/>
<polygon opacity="0.2" fill="#357835" enable-background="new    " points="485.43,593.24 431.09,688.33 375.91,593.72 "/>
<path opacity="0.2" fill="#FFFFFF" enable-background="new    " d="M321.92,575.79l82.65,141.71l-164.05,0.71L321.92,575.79z
	 M377.3,704.28l-55.17-94.61l-54.35,95.09L377.3,704.28z"/>
<polygon opacity="0.2" fill="#CE3C3C" enable-background="new    " points="322.13,609.67 377.3,704.28 267.78,704.76 "/>
<polygon opacity="0.2" enable-background="new    " points="321.92,575.79 240.52,718.21 215.89,718.21 297.3,575.79 "/>
<path opacity="0.2" fill="#FFFFFF" enable-background="new    " d="M297.3,575.79l-81.41,142.42L133.25,576.5L297.3,575.79z
	 M215.69,684.33l54.34-95.09l-109.52,0.479L215.69,684.33z"/>
<polygon opacity="0.2" enable-background="new    " points="297.3,575.79 133.25,576.5 215.89,718.21 26,718.21 190.05,717.5 
	107.41,575.79 "/>
<polygon opacity="0.2" fill="#357835" enable-background="new    " points="270.03,593.24 215.69,688.33 160.51,593.72 "/>
<path opacity="0.2" fill="#FFFFFF" enable-background="new    " d="M107.41,575.79l82.64,141.71L26,718.21L107.41,575.79z
	 M162.78,704.28l-55.17-94.61l-54.34,95.09L162.78,704.28z"/>
<polygon opacity="0.2" fill="#297BB3" enable-background="new    " points="107.61,608.67 162.78,703.28 53.27,703.76 "/>
<polygon opacity="0.2" enable-background="new    " points="107.41,575.79 26,718.21 1.39,718.21 82.8,575.79 "/>
<path opacity="0.2" fill="#FFFFFF" enable-background="new    " d="M82.8,575.79L1.39,718.21L-81.25,576.5L82.8,575.79z
	 M1.19,684.33l54.34-95.09l-109.52,0.479L1.19,684.33z"/>
<polygon opacity="0.2" fill="#357835" enable-background="new    " points="55.53,593.24 1.19,688.33 -53.99,593.72 "/>
<polygon fill="none" points="107.41,575.79 190.05,717.5 26,718.21 "/>
<polygon fill="none" points="321.92,575.79 404.57,717.5 240.52,718.21 "/>
<polygon fill="none" points="539.51,575.79 622.16,717.5 458.11,718.21 "/>
<polygon fill="none" points="752.35,575.79 834.99,717.5 670.94,718.21 "/>
<polygon fill="none" points="960.78,575.79 1043.43,717.5 879.38,718.21 "/>
<polygon fill="none" points="1170.97,575.79 1253.62,717.5 1089.56,718.21 "/>
<polygon fill="none" points="215.89,718.21 133.25,576.5 297.3,575.79 "/>
<polygon fill="none" points="431.29,718.21 348.65,576.5 512.7,575.79 "/>
<polygon fill="none" points="646.92,718.21 564.271,576.5 728.32,575.79 "/>
<polygon fill="none" points="856.95,718.21 774.3,576.5 938.35,575.79 "/>
<polygon fill="none" points="1066.91,718.21 984.26,576.5 1148.32,575.79 "/>
<polygon fill="none" points="1.39,718.21 -81.25,576.5 82.8,575.79 "/>
<polygon fill="none" points="1280.51,717.51 1198.28,576.5 1281.38,576.14 1362.33,575.79 1280.92,718.21 "/>
<polyline opacity="0.2" fill="none" stroke="#CE3C3C" stroke-width="10" stroke-miterlimit="10" enable-background="new    " points="
	-3.535,723.21 -2.83,723.21 21.93,723.21 212.983,723.21 237.764,723.21 429.701,723.21 456.687,723.21 646.65,723.21 
	670.818,723.21 857.967,723.21 880.535,723.21 1069.212,723.21 1092,723.21 1282.912,723.21 "/>
<polyline opacity="0.2" fill="none" stroke="#CE3C3C" stroke-width="10" stroke-miterlimit="10" points="-2.833,570.79 
	77.547,570.79 102.265,570.79 292.987,570.79 317.715,570.79 509.332,570.79 536.258,570.79 725.896,570.79 750.031,570.79 
	936.847,570.79 959.375,570.79 1147.737,570.79 1170.486,570.79 1281.38,570.79 "/>
</svg>
