<?xml version="1.0" encoding="utf-8"?>
<!-- Generator: Adobe Illustrator 16.0.3, SVG Export Plug-In . SVG Version: 6.00 Build 0)  -->
<!DOCTYPE svg PUBLIC "-//W3C//DTD SVG 1.1//EN" "http://www.w3.org/Graphics/SVG/1.1/DTD/svg11.dtd">
<svg version="1.1" id="Layer_1" xmlns="http://www.w3.org/2000/svg" xmlns:xlink="http://www.w3.org/1999/xlink" x="0px" y="0px"
	 width="1280px" height="200px" viewBox="0 0 1280 200" enable-background="new 0 0 1280 200" xml:space="preserve">
<path opacity="0.2" fill="#FFFFFF" enable-background="new    " d="M1362.33,29.79l-81.41,142.42l-0.41-0.7L1198.28,30.5l83.1-0.36
	L1362.33,29.79z M1280.72,138.33l54.34-95.09l-109.51,0.479L1280.72,138.33z"/>
<polygon opacity="0.2" fill="#357835" enable-background="new    " points="1335.06,47.24 1280.72,142.33 1225.55,47.72 "/>
<polygon opacity="0.2" enable-background="new    " points="1198.28,30.5 1280.51,171.51 1279.31,172.21 1089.56,172.21 
	1253.62,171.5 1170.97,29.79 1281.38,29.79 1281.38,30.14 "/>
<path opacity="0.2" fill="#FFFFFF" enable-background="new    " d="M1170.97,29.79l82.65,141.71l-164.063,0.71L1170.97,29.79z
	 M1226.35,158.28l-55.17-94.61l-54.35,95.09L1226.35,158.28z"/>
<polygon opacity="0.2" fill="#CE3C3C" enable-background="new    " points="1171.18,63.67 1226.35,158.28 1116.83,158.76 "/>
<polygon opacity="0.2" enable-background="new    " points="1170.97,29.79 1089.56,172.21 1066.91,172.21 1148.32,29.79 "/>
<path opacity="0.2" fill="#FFFFFF" enable-background="new    " d="M1148.32,29.79l-81.41,142.42L984.26,30.5L1148.32,29.79z
	 M1066.7,138.33l54.35-95.09l-109.52,0.479L1066.7,138.33z"/>
<polygon opacity="0.2" enable-background="new    " points="1148.32,29.79 984.26,30.5 1066.91,172.21 879.38,172.21 1043.43,171.5 
	960.78,29.79 "/>
<polygon opacity="0.2" fill="#357835" enable-background="new    " points="1121.05,47.24 1066.7,142.33 1011.53,47.72 "/>
<path opacity="0.2" fill="#FFFFFF" enable-background="new    " d="M960.78,29.79l82.647,141.71l-164.05,0.71L960.78,29.79z
	 M1016.16,158.28l-55.17-94.61l-54.353,95.09L1016.16,158.28z"/>
<polygon opacity="0.2" fill="#297BB3" enable-background="new    " points="960.99,63.67 1016.16,158.28 906.64,158.76 "/>
<polygon opacity="0.2" enable-background="new    " points="960.78,29.79 879.38,172.21 856.95,172.21 938.35,29.79 "/>
<path opacity="0.2" fill="#FFFFFF" enable-background="new    " d="M938.35,29.79L856.95,172.21L774.3,30.5L938.35,29.79z
	 M856.74,138.33l54.35-95.09l-109.52,0.479L856.74,138.33z"/>
<polygon opacity="0.2" enable-background="new    " points="938.35,29.79 774.3,30.5 856.95,172.21 670.94,172.21 834.99,171.5 
	752.35,29.79 "/>
<polygon opacity="0.2" fill="#357835" enable-background="new    " points="911.09,47.24 856.74,142.33 801.57,47.72 "/>
<path opacity="0.2" fill="#FFFFFF" enable-background="new    " d="M752.35,29.79L834.99,171.5l-164.05,0.71L752.35,29.79z
	 M807.72,158.28l-55.17-94.61l-54.34,95.09L807.72,158.28z"/>
<polygon opacity="0.2" fill="#CE3C3C" enable-background="new    " points="752.55,63.67 807.72,158.28 698.21,158.76 "/>
<polygon opacity="0.2" enable-background="new    " points="752.35,29.79 670.94,172.21 646.92,172.21 728.32,29.79 "/>
<path opacity="0.2" fill="#FFFFFF" enable-background="new    " d="M728.32,29.79l-81.4,142.42L564.271,30.5L728.32,29.79z
	 M646.71,138.33l54.35-95.09l-109.52,0.479L646.71,138.33z"/>
<polygon opacity="0.2" enable-background="new    " points="728.32,29.79 564.271,30.5 646.92,172.21 458.11,172.21 622.16,171.5 
	539.51,29.79 "/>
<polygon opacity="0.2" fill="#357835" enable-background="new    " points="701.06,47.24 646.71,142.33 591.54,47.72 "/>
<path opacity="0.2" fill="#FFFFFF" enable-background="new    " d="M539.51,29.79l82.65,141.71l-164.05,0.71L539.51,29.79z
	 M594.89,158.28l-55.17-94.61l-54.35,95.09L594.89,158.28z"/>
<polygon opacity="0.2" enable-background="new    " points="539.72,63.67 594.89,158.28 485.37,158.76 "/>
<polygon opacity="0.2" enable-background="new    " points="539.51,29.79 458.11,172.21 431.29,172.21 512.7,29.79 "/>
<path opacity="0.2" fill="#FFFFFF" enable-background="new    " d="M512.7,29.79l-81.41,142.42L348.65,30.5L512.7,29.79z
	 M431.09,138.33l54.34-95.09l-109.52,0.479L431.09,138.33z"/>
<polygon opacity="0.2" enable-background="new    " points="512.7,29.79 348.65,30.5 431.29,172.21 240.52,172.21 404.57,171.5 
	321.92,29.79 "/>
<polygon opacity="0.2" fill="#357835" enable-background="new    " points="485.43,47.24 431.09,142.33 375.91,47.72 "/>
<path opacity="0.2" fill="#FFFFFF" enable-background="new    " d="M321.92,29.79l82.65,141.71l-164.05,0.71L321.92,29.79z
	 M377.3,158.28l-55.17-94.61l-54.35,95.09L377.3,158.28z"/>
<polygon opacity="0.2" fill="#CE3C3C" enable-background="new    " points="322.13,63.67 377.3,158.28 267.78,158.76 "/>
<polygon opacity="0.2" enable-background="new    " points="321.92,29.79 240.52,172.21 215.89,172.21 297.3,29.79 "/>
<path opacity="0.2" fill="#FFFFFF" enable-background="new    " d="M297.3,29.79l-81.41,142.42L133.25,30.5L297.3,29.79z
	 M215.69,138.33l54.34-95.09l-109.52,0.479L215.69,138.33z"/>
<polygon opacity="0.2" enable-background="new    " points="297.3,29.79 133.25,30.5 215.89,172.21 26,172.21 190.05,171.5 
	107.41,29.79 "/>
<polygon opacity="0.2" fill="#357835" enable-background="new    " points="270.03,47.24 215.69,142.33 160.51,47.72 "/>
<path opacity="0.2" fill="#FFFFFF" enable-background="new    " d="M107.41,29.79l82.64,141.71L26,172.21L107.41,29.79z
	 M162.78,158.28l-55.17-94.61l-54.34,95.09L162.78,158.28z"/>
<polygon opacity="0.2" fill="#297BB3" enable-background="new    " points="107.61,62.67 162.78,157.28 53.27,157.76 "/>
<polygon opacity="0.2" enable-background="new    " points="107.41,29.79 26,172.21 1.39,172.21 82.8,29.79 "/>
<path opacity="0.2" fill="#FFFFFF" enable-background="new    " d="M82.8,29.79L1.39,172.21L-81.25,30.5L82.8,29.79z M1.19,138.33
	l54.34-95.09l-109.52,0.479L1.19,138.33z"/>
<polygon opacity="0.2" fill="#357835" enable-background="new    " points="55.53,47.24 1.19,142.33 -53.99,47.72 "/>
<polygon fill="none" points="107.41,29.79 190.05,171.5 26,172.21 "/>
<polygon fill="none" points="321.92,29.79 404.57,171.5 240.52,172.21 "/>
<polygon fill="none" points="539.51,29.79 622.16,171.5 458.11,172.21 "/>
<polygon fill="none" points="752.35,29.79 834.99,171.5 670.94,172.21 "/>
<polygon fill="none" points="960.78,29.79 1043.43,171.5 879.38,172.21 "/>
<polygon fill="none" points="1170.97,29.79 1253.62,171.5 1089.56,172.21 "/>
<polygon fill="none" points="215.89,172.21 133.25,30.5 297.3,29.79 "/>
<polygon fill="none" points="431.29,172.21 348.65,30.5 512.7,29.79 "/>
<polygon fill="none" points="646.92,172.21 564.271,30.5 728.32,29.79 "/>
<polygon fill="none" points="856.95,172.21 774.3,30.5 938.35,29.79 "/>
<polygon fill="none" points="1066.91,172.21 984.26,30.5 1148.32,29.79 "/>
<polygon fill="none" points="1.39,172.21 -81.25,30.5 82.8,29.79 "/>
<polygon fill="none" points="1280.51,171.51 1198.28,30.5 1281.38,30.14 1362.33,29.79 1280.92,172.21 "/>
<polyline opacity="0.2" fill="none" stroke="#CE3C3C" stroke-width="10" stroke-miterlimit="10" enable-background="new    " points="
	-3.535,177.21 -2.83,177.21 21.93,177.21 212.983,177.21 237.764,177.21 429.701,177.21 456.687,177.21 646.65,177.21 
	670.818,177.21 857.967,177.21 880.535,177.21 1069.212,177.21 1092,177.21 1282.912,177.21 "/>
<polyline opacity="0.2" fill="none" stroke="#CE3C3C" stroke-width="10" stroke-miterlimit="10" enable-background="new    " points="
	-2.833,24.79 77.547,24.79 102.265,24.79 292.987,24.79 317.715,24.79 509.332,24.79 536.258,24.79 725.896,24.79 750.031,24.79 
	936.847,24.79 959.375,24.79 1147.737,24.79 1170.486,24.79 1281.38,24.79 "/>
</svg>
