<?xml version="1.0" encoding="utf-8"?>
<!-- Generator: Adobe Illustrator 16.0.3, SVG Export Plug-In . SVG Version: 6.00 Build 0)  -->
<!DOCTYPE svg PUBLIC "-//W3C//DTD SVG 1.1//EN" "http://www.w3.org/Graphics/SVG/1.1/DTD/svg11.dtd">
<svg version="1.1" id="Layer_1" xmlns="http://www.w3.org/2000/svg" xmlns:xlink="http://www.w3.org/1999/xlink" x="0px" y="0px"
	 width="1280px" height="200px" viewBox="0 0 1280 200" enable-background="new 0 0 1280 200" xml:space="preserve">
<rect x="-7.5" opacity="0.2" fill="#E5007F" enable-background="new    " width="1287.5" height="21.594"/>
<rect x="-7.5" y="21.523" opacity="0.2" fill="#132A87" enable-background="new    " width="1288.5" height="21.142"/>
<rect x="-6.5" y="64.259" opacity="0.2" fill="#132A87" enable-background="new    " width="1287.5" height="62.33"/>
<rect x="-6.5" y="42.665" opacity="0.2" fill="#E5007F" enable-background="new    " width="1287.5" height="21.594"/>
<rect x="-6.5" y="126.589" opacity="0.2" fill="#C30E22" enable-background="new    " width="1288.75" height="73.411"/>
<g opacity="0.2">
	<circle fill="#FFFFFF" cx="66.619" cy="32.164" r="19.499"/>
	<circle fill="#FFFFFF" cx="126.616" cy="32.164" r="19.499"/>
	<circle fill="#F39800" cx="66.619" cy="162.661" r="19.499"/>
	<circle fill="#21A8E0" cx="126.616" cy="162.661" r="19.499"/>
	<rect x="61.619" y="51.663" width="12" height="91.499"/>
	<rect x="120.617" y="51.663" width="12" height="91.499"/>
</g>
<g opacity="0.2">
	<circle fill="#FFFFFF" cx="254.61" cy="34.752" r="19.499"/>
	<circle fill="#FFFFFF" cx="314.607" cy="34.752" r="19.499"/>
	<circle fill="#F39800" cx="254.61" cy="165.249" r="19.499"/>
	<circle fill="#21A8E0" cx="314.607" cy="165.249" r="19.499"/>
	<rect x="249.61" y="54.251" width="12" height="91.499"/>
	<rect x="308.607" y="54.251" width="12" height="91.499"/>
</g>
<g opacity="0.2">
	<circle fill="#FFFFFF" cx="434.125" cy="34.752" r="19.499"/>
	<circle fill="#FFFFFF" cx="494.123" cy="34.752" r="19.499"/>
	<circle fill="#F39800" cx="434.125" cy="165.249" r="19.499"/>
	<circle fill="#21A8E0" cx="494.123" cy="165.249" r="19.499"/>
	<rect x="429.125" y="54.251" width="12" height="91.499"/>
	<rect x="488.123" y="54.251" width="12" height="91.499"/>
</g>
<g opacity="0.2">
	<circle fill="#FFFFFF" cx="607.118" cy="34.752" r="19.499"/>
	<circle fill="#FFFFFF" cx="667.114" cy="34.752" r="19.499"/>
	<circle fill="#F39800" cx="607.118" cy="165.249" r="19.499"/>
	<circle fill="#21A8E0" cx="667.114" cy="165.249" r="19.499"/>
	<rect x="602.118" y="54.251" width="12" height="91.499"/>
	<rect x="661.115" y="54.251" width="12" height="91.499"/>
</g>
<g opacity="0.2">
	<circle fill="#FFFFFF" cx="782.085" cy="32.164" r="19.499"/>
	<circle fill="#FFFFFF" cx="842.081" cy="32.164" r="19.499"/>
	<circle fill="#F39800" cx="782.085" cy="162.661" r="19.499"/>
	<circle fill="#21A8E0" cx="842.081" cy="162.661" r="19.499"/>
	<rect x="777.084" y="51.663" width="12" height="91.499"/>
	<rect x="836.082" y="51.663" width="12" height="91.499"/>
</g>
<g opacity="0.2">
	<circle fill="#FFFFFF" cx="954.574" cy="34.751" r="19.499"/>
	<circle fill="#FFFFFF" cx="1014.571" cy="34.751" r="19.499"/>
	<circle fill="#F39800" cx="954.574" cy="165.248" r="19.499"/>
	<circle fill="#21A8E0" cx="1014.571" cy="165.248" r="19.499"/>
	<rect x="949.574" y="54.25" width="11.999" height="91.499"/>
	<rect x="1008.571" y="54.25" width="12" height="91.499"/>
</g>
<g opacity="0.2">
	<circle fill="#FFFFFF" cx="1132.065" cy="34.752" r="19.499"/>
	<circle fill="#FFFFFF" cx="1192.063" cy="34.752" r="19.499"/>
	<circle fill="#F39800" cx="1132.065" cy="165.249" r="19.499"/>
	<circle fill="#21A8E0" cx="1192.063" cy="165.249" r="19.499"/>
	<rect x="1127.065" y="54.251" width="11.998" height="91.499"/>
	<rect x="1186.063" y="54.251" width="12" height="91.499"/>
</g>
</svg>
