<?xml version="1.0" encoding="utf-8"?>
<!-- Generator: Adobe Illustrator 16.0.3, SVG Export Plug-In . SVG Version: 6.00 Build 0)  -->
<!DOCTYPE svg PUBLIC "-//W3C//DTD SVG 1.1//EN" "http://www.w3.org/Graphics/SVG/1.1/DTD/svg11.dtd">
<svg version="1.1" id="Layer_1" xmlns="http://www.w3.org/2000/svg" xmlns:xlink="http://www.w3.org/1999/xlink" x="0px" y="0px"
	 width="1280px" height="800px" viewBox="0 0 1280 800" enable-background="new 0 0 1280 800" xml:space="preserve" fill-opacity="0.4">
<path fill="#E9202B" d="M507.56,387.26c-41.21,16.892-82.42,33.76-123.629,50.642c-0.06,0.02-0.11,0.04-0.15,0.06
	c-0.771-0.31-1.54-0.62-2.311-0.939c-3.8-1.561-7.61-3.109-11.41-4.671c-13.22-5.42-26.44-10.829-39.65-16.238
	c-23.47-9.62-46.95-19.23-70.42-28.852c41.21-16.89,82.42-33.76,123.63-50.64c0.06-0.03,0.12-0.05,0.16-0.07
	c0.76,0.32,1.53,0.63,2.3,0.95c3.81,1.56,7.61,3.12,11.42,4.67c13.21,5.42,26.43,10.83,39.65,16.25
	C460.62,368.03,484.09,377.64,507.56,387.26z M473.12,387.26c0-0.06,0-0.109-0.01-0.16c-0.03-0.739-0.511-1.43-1.271-1.409
	c-22.86-9.36-45.72-18.721-68.59-28.091c-5.08-2.08-10.16-4.159-15.25-6.239c-1.28-0.53-3.49-2.03-4.94-1.44
	c-9.57,3.92-19.14,7.84-28.71,11.76c-19.64,8.04-39.28,16.09-58.92,24.13c-1.42,0.591-1.42,2.311,0,2.9
	c0.23,0.09,0.46,0.19,0.69,0.28c22.73,9.31,45.46,18.608,68.18,27.93c5.08,2.08,10.17,4.16,15.25,6.24
	c1.28,0.53,3.5,2.03,4.94,1.438c0.15-0.06,0.29-0.118,0.44-0.18c9.42-3.86,18.85-7.72,28.27-11.58c19.55-8,39.09-16.01,58.64-24.01
	c0.76,0.02,1.24-0.67,1.271-1.41C473.12,387.37,473.12,387.32,473.12,387.26z"/>
<path d="M432.88,387.1c-12.73,5.21-25.47,10.431-38.2,15.65c-2.97,1.21-5.94,2.43-8.91,3.65c-0.66,0.27-1.32,0.54-1.98,0.81
	c-0.02,0.01-0.03,0.01-0.04,0.021c-0.05-0.03-0.12-0.07-0.22-0.11c-6.02-2.46-12.03-4.93-18.05-7.39
	c-10.27-4.21-20.56-8.421-30.84-12.631c12.73-5.21,25.47-10.43,38.2-15.649c2.98-1.21,5.95-2.43,8.92-3.65
	c0.66-0.27,1.31-0.54,1.97-0.81c0.01-0.01,0.03-0.01,0.04-0.021c0.05,0.03,0.12,0.07,0.22,0.11c6.02,2.46,12.04,4.93,18.05,7.39
	C412.32,378.68,422.6,382.89,432.88,387.1z"/>
<path d="M512.88,387.1c0.01,0.051,0.021,0.11,0.01,0.16C512.89,387.21,512.88,387.16,512.88,387.1z"/>
<path d="M512.89,387.26c0.011,0.061,0,0.11-0.01,0.16C512.88,387.37,512.89,387.31,512.89,387.26z"/>
<path d="M512.88,387.1c-0.07-0.52-0.38-1.04-0.979-1.279c-0.101-0.04-0.2-0.08-0.301-0.12C512.37,385.66,512.85,386.35,512.88,387.1
	z"/>
<path d="M511.9,388.71c0.6-0.25,0.909-0.76,0.979-1.29c-0.02,0.74-0.5,1.42-1.26,1.41C511.71,388.79,511.81,388.75,511.9,388.71z"/>
<path d="M511.9,385.82c0.6,0.239,0.909,0.76,0.979,1.279c0,0.061,0.01,0.11,0.01,0.16s-0.01,0.11-0.01,0.16
	c-0.07,0.53-0.38,1.04-0.979,1.29c-0.091,0.04-0.19,0.08-0.28,0.12c-0.16,0-0.33-0.04-0.521-0.12c-0.63-0.26-1.27-0.52-1.899-0.78
	c-0.55-0.22-1.09-0.449-1.641-0.67c1.181-0.479,2.36-0.97,3.54-1.45c0.181-0.069,0.351-0.109,0.5-0.109
	C511.7,385.74,511.8,385.78,511.9,385.82z"/>
<path fill="#231F20" d="M473.11,387.1c0.01,0.051,0.01,0.101,0.01,0.16C473.12,387.21,473.11,387.16,473.11,387.1z"/>
<path fill="#231F20" d="M473.12,387.26c0,0.061,0,0.11-0.01,0.16C473.11,387.36,473.12,387.31,473.12,387.26z"/>
<path fill="#231F20" d="M473.11,387.1c-0.07-0.52-0.381-1.04-0.99-1.29c-0.09-0.04-0.19-0.079-0.28-0.119
	C472.6,385.67,473.08,386.36,473.11,387.1z"/>
<path fill="#231F20" d="M472.12,388.71c0.609-0.25,0.92-0.77,0.99-1.29c-0.03,0.74-0.511,1.43-1.271,1.41
	C471.93,388.79,472.03,388.75,472.12,388.71z"/>
<path fill="#231F20" d="M472.12,385.81c0.609,0.25,0.92,0.771,0.99,1.29c0,0.061,0.01,0.11,0.01,0.16s-0.01,0.101-0.01,0.16
	c-0.07,0.521-0.381,1.04-0.99,1.29c-0.09,0.04-0.19,0.08-0.28,0.12c-0.16-0.01-0.33-0.05-0.51-0.12c-1.18-0.479-2.36-0.97-3.54-1.45
	c1.18-0.479,2.36-0.97,3.54-1.45c0.18-0.069,0.35-0.109,0.51-0.119C471.93,385.73,472.03,385.77,472.12,385.81z"/>
<path fill="#231F20" d="M435.25,386.19c0.47-0.011,0.76,0.449,0.74,0.909c-0.011-0.34-0.19-0.68-0.58-0.84
	C435.36,386.24,435.3,386.22,435.25,386.19z"/>
<path fill="#231F20" d="M435.99,387.1c0.02,0.48-0.28,0.94-0.761,0.91c0.061-0.02,0.12-0.05,0.181-0.069
	C435.8,387.78,435.979,387.44,435.99,387.1z"/>
<path fill="#231F20" d="M434.94,387.95c-0.69-0.28-1.37-0.561-2.061-0.851c0.69-0.279,1.37-0.56,2.061-0.84
	c0.109-0.05,0.22-0.069,0.31-0.069c0.05,0.029,0.11,0.05,0.16,0.069c0.39,0.16,0.569,0.5,0.58,0.84
	c-0.011,0.341-0.19,0.681-0.58,0.841c-0.061,0.02-0.12,0.05-0.181,0.069C435.14,388.01,435.04,387.99,434.94,387.95z"/>
<path d="M383.98,336.33c0.08,0.03,0.07,0.09-0.2,0.22c-0.061-0.02-0.12-0.05-0.18-0.069C383.36,336.38,383.83,336.29,383.98,336.33z
	"/>
<path d="M383.96,438.04c0.23,0.1-0.24,0.19-0.39,0.15c-0.08-0.03-0.07-0.092,0.21-0.23C383.84,437.99,383.9,438.02,383.96,438.04z"
	/>
<path fill="#231F20" d="M383.76,421.68c0.21,0.13,0.21,0.2,0.14,0.23c-0.13,0.05-0.51-0.04-0.15-0.23
	C383.75,421.68,383.75,421.68,383.76,421.68z"/>
<path fill="#231F20" d="M383.75,407.23C384.1,407.44,383.43,407.38,383.75,407.23L383.75,407.23z"/>
<path fill="#231F20" d="M383.77,366.97C383.41,366.76,384.11,366.81,383.77,366.97L383.77,366.97z"/>
<path fill="#231F20" d="M383.79,352.84c-0.61-0.37,0.56-0.28,0.01,0C383.8,352.83,383.8,352.83,383.79,352.84z"/>
<path fill="#231F20" d="M434.94,386.26c-0.69,0.28-1.37,0.561-2.061,0.84c-10.28-4.21-20.56-8.42-30.84-12.63
	c-6.01-2.46-12.03-4.93-18.05-7.39c-0.1-0.04-0.17-0.08-0.22-0.11c0.34-0.16-0.36-0.21,0,0c-0.01,0.011-0.03,0.011-0.04,0.021
	c-0.66,0.27-1.31,0.54-1.97,0.81c-2.97,1.22-5.94,2.44-8.92,3.65c-12.73,5.22-25.47,10.439-38.2,15.649
	c-0.69-0.29-1.37-0.569-2.06-0.85l-0.06-0.15c11.35-4.659,22.69-9.3,34.04-13.949c5.6-2.301,11.19-4.591,16.79-6.881
	c0.84-0.35,2.14,0.54,2.88,0.841c2.97,1.22,5.94,2.439,8.92,3.649c13.37,5.48,26.73,10.96,40.1,16.43
	C435.16,386.19,435.05,386.21,434.94,386.26z"/>
<path fill="#231F20" d="M332.58,386.25c0.69,0.28,1.37,0.56,2.06,0.85c-0.69,0.28-1.37,0.561-2.06,0.841
	C332.58,387.38,332.58,386.82,332.58,386.25z"/>
<path fill="#231F20" d="M394.68,402.75c12.73-5.22,25.47-10.44,38.2-15.65c0.69,0.29,1.37,0.57,2.061,0.851
	c0.1,0.04,0.199,0.06,0.289,0.06c-11.42,4.69-22.85,9.36-34.27,14.04c-5.59,2.3-11.19,4.59-16.78,6.88
	c-0.84,0.352-2.14-0.54-2.89-0.84c-2.97-1.22-5.94-2.438-8.91-3.648c-13.42-5.5-26.84-11-40.26-16.49c-0.83-0.34-0.83-1.351,0-1.69
	c0.13-0.05,0.27-0.109,0.4-0.16l0.06,0.15c0,0.57,0,1.13,0,1.69c0.69-0.28,1.37-0.561,2.06-0.841
	c10.28,4.21,20.57,8.421,30.84,12.631c6.02,2.46,12.03,4.93,18.05,7.39c0.1,0.04,0.17,0.08,0.22,0.11c-0.32,0.148,0.35,0.21,0,0
	c0.01-0.012,0.02-0.012,0.04-0.021c0.66-0.27,1.32-0.54,1.98-0.81C388.74,405.18,391.71,403.96,394.68,402.75z"/>
<path fill="#231F20" d="M296.23,388.71c0-0.97,0-1.93,0-2.9c1.18,0.48,2.36,0.971,3.54,1.45
	C298.59,387.74,297.41,388.23,296.23,388.71z"/>
<g>
	<path fill="#E9202B" d="M384.93,424.42c-0.15,0.062-0.29,0.12-0.44,0.18c-1.44,0.592-3.66-0.908-4.94-1.438
		c-5.08-2.08-10.17-4.16-15.25-6.24c-22.72-9.32-45.45-18.62-68.18-27.93l0.11-0.28c1.18-0.479,2.36-0.97,3.54-1.45
		c17.58,7.21,35.16,14.4,52.74,21.61c10.29,4.21,20.58,8.43,30.87,12.64c0.16,0.07,0.28,0.13,0.37,0.17
		c-0.36,0.19,0.02,0.28,0.15,0.23L384.93,424.42z"/>
	<g>
		<path fill="#E9202B" d="M402.45,414.03c21.779-8.932,43.56-17.84,65.34-26.771c1.18,0.48,2.36,0.97,3.54,1.45
			c0.18,0.07,0.35,0.11,0.51,0.12c-19.55,8-39.09,16.01-58.64,24.01c-9.42,3.86-18.85,7.72-28.27,11.58l-1.03-2.51
			c0.07-0.03,0.07-0.102-0.14-0.23c0.021-0.01,0.04-0.02,0.07-0.028c1.12-0.46,2.25-0.92,3.38-1.382
			C392.29,418.19,397.37,416.11,402.45,414.03z"/>
		<path fill="#E9202B" d="M403.25,357.6c22.87,9.37,45.729,18.73,68.59,28.091c-0.16,0.01-0.33,0.05-0.51,0.119
			c-1.18,0.48-2.36,0.971-3.54,1.45c-17.58-7.21-35.17-14.399-52.75-21.609c-10.29-4.21-20.58-8.431-30.87-12.641
			c-0.16-0.069-0.28-0.13-0.37-0.17c0.55-0.28-0.62-0.37-0.01,0c-0.02,0.01-0.04,0.021-0.07,0.03c-1.12,0.46-2.25,0.92-3.37,1.38
			c-5.09,2.08-10.17,4.16-15.25,6.25c-21.78,8.92-43.55,17.83-65.33,26.76c-1.18-0.479-2.36-0.97-3.54-1.45c0,0.971,0,1.931,0,2.9
			l-0.11,0.28c-0.23-0.09-0.46-0.19-0.69-0.28c-1.42-0.59-1.42-2.31,0-2.9c19.64-8.04,39.28-16.09,58.92-24.13
			c9.57-3.92,19.14-7.84,28.71-11.76c1.45-0.59,3.66,0.91,4.94,1.44C393.09,353.44,398.17,355.52,403.25,357.6z"/>
	</g>
</g>
<path d="M258.35,386.59c0.55,0.22,1.09,0.45,1.64,0.67c-1.18,0.48-2.36,0.971-3.54,1.45c0-0.97,0-1.93,0-2.9
	C257.09,386.07,257.72,386.33,258.35,386.59z"/>
<g>
	<path fill="#E9202B" d="M385,333.83c42.2,17.29,84.4,34.57,126.6,51.87c-0.149,0-0.319,0.04-0.5,0.109
		c-1.18,0.48-2.359,0.971-3.54,1.45c-23.47-9.62-46.939-19.229-70.409-28.84c-13.221-5.42-26.44-10.83-39.65-16.25
		c-3.81-1.55-7.61-3.11-11.42-4.67c-0.77-0.32-1.54-0.63-2.3-0.95c0.27-0.13,0.28-0.189,0.2-0.22L385,333.83z"/>
	<path fill="#E9202B" d="M435.22,420.12c-12.899,5.28-25.79,10.56-38.689,15.84c-3.49,1.43-6.97,2.86-10.46,4.29
		c-1.16,0.47-2.03,1.05-3.24,0.55c-0.09-0.04-0.19-0.08-0.28-0.12l1.02-2.488c0.15,0.04,0.62-0.052,0.39-0.15
		c-0.06-0.021-0.12-0.05-0.18-0.08c0.04-0.02,0.09-0.04,0.15-0.06c41.209-16.882,82.419-33.75,123.629-50.642
		c0.551,0.221,1.091,0.45,1.641,0.67c0.63,0.261,1.27,0.521,1.899,0.78c0.19,0.08,0.36,0.12,0.521,0.12
		c-0.811,0.33-1.62,0.66-2.43,0.99C484.54,399.92,459.88,410.02,435.22,420.12z"/>
	<path fill="#E9202B" d="M384.73,333.72c0.09,0.04,0.18,0.07,0.27,0.11l-1.02,2.5c-0.15-0.04-0.62,0.05-0.38,0.15
		c0.06,0.02,0.12,0.05,0.18,0.069c-0.04,0.021-0.1,0.04-0.16,0.07c-41.21,16.88-82.42,33.75-123.63,50.64
		c-0.55-0.22-1.09-0.45-1.64-0.67c-0.63-0.26-1.26-0.52-1.9-0.78l-0.11-0.27c0.67-0.28,1.35-0.55,2.02-0.83
		c24.66-10.1,49.32-20.2,73.97-30.3c12.9-5.29,25.8-10.57,38.69-15.851c3.49-1.43,6.98-2.859,10.46-4.279
		C382.64,333.8,383.51,333.23,384.73,333.72z"/>
	<path fill="#E9202B" d="M382.55,440.68c-42.3-17.33-84.6-34.648-126.89-51.97c-1.43-0.58-1.43-2.31,0-2.89
		c0.23-0.09,0.45-0.19,0.68-0.28l0.11,0.27c0,0.971,0,1.931,0,2.9c1.18-0.48,2.36-0.97,3.54-1.45
		c23.47,9.62,46.95,19.23,70.42,28.852c13.21,5.408,26.43,10.818,39.65,16.238c3.8,1.562,7.61,3.11,11.41,4.67
		c0.771,0.32,1.54,0.632,2.31,0.94c-0.28,0.14-0.29,0.2-0.21,0.23L382.55,440.68z"/>
</g>
<path fill="#E9202B" d="M764.4,387.26c-41.21,16.88-82.432,33.76-123.642,50.642c-0.06,0.02-0.108,0.04-0.148,0.06
	c-0.771-0.31-1.541-0.62-2.312-0.939c-3.8-1.561-7.609-3.109-11.41-4.671c-13.22-5.42-26.43-10.829-39.649-16.238
	c-23.47-9.62-46.95-19.23-70.42-28.852c41.21-16.88,82.43-33.76,123.64-50.64c0.061-0.021,0.11-0.04,0.15-0.061
	c0.77,0.311,1.528,0.62,2.3,0.94c3.81,1.56,7.609,3.12,11.42,4.67c13.21,5.42,26.43,10.83,39.65,16.25
	C717.45,368.03,740.93,377.64,764.4,387.26z M729.95,387.26c0.01-0.05,0-0.109-0.01-0.16c-0.03-0.75-0.512-1.439-1.28-1.399
	c-22.86-9.37-45.72-18.73-68.58-28.101c-5.08-2.08-10.16-4.159-15.24-6.239c-1.28-0.53-3.5-2.03-4.95-1.44
	c-0.149,0.061-0.29,0.12-0.439,0.18c-9.41,3.86-18.84,7.721-28.26,11.58c-19.41,7.95-38.83,15.9-58.24,23.86
	c-0.23,0.09-0.46,0.19-0.69,0.28c-1.42,0.58-1.42,2.31,0,2.89c22.96,9.4,45.92,18.81,68.88,28.21c5.08,2.08,10.16,4.16,15.24,6.24
	c1.28,0.53,3.5,2.04,4.94,1.438c9.568-3.92,19.14-7.84,28.71-11.76c19.55-8,39.09-16.01,58.648-24.01
	c0.762,0.01,1.24-0.67,1.262-1.41C729.95,387.37,729.96,387.32,729.95,387.26z"/>
<path d="M658.87,373.77c10.28,4.211,20.57,8.421,30.84,12.631c-12.729,5.21-25.47,10.42-38.2,15.64c-2.97,1.22-5.938,2.43-8.91,3.65
	c-0.658,0.27-1.318,0.54-1.979,0.81c-0.021,0.01-0.04,0.02-0.05,0.02c-0.051-0.028-0.12-0.06-0.21-0.1
	c-6.011-2.47-12.03-4.93-18.05-7.39c-10.271-4.221-20.561-8.431-30.83-12.63c12.729-5.221,25.47-10.431,38.199-15.65
	c2.971-1.22,5.94-2.43,8.91-3.65c0.66-0.27,1.311-0.54,1.97-0.81c0.021-0.01,0.04-0.021,0.052-0.03c0.05,0.03,0.12,0.07,0.22,0.11
	C646.84,368.84,652.86,371.3,658.87,373.77z"/>
<path d="M769.72,387.1c0.012,0.051,0.012,0.11,0.012,0.16C769.729,387.21,769.72,387.16,769.72,387.1z"/>
<path d="M769.729,387.26c0,0.061,0,0.11-0.011,0.16C769.72,387.37,769.729,387.31,769.729,387.26z"/>
<path d="M769.72,387.1c-0.068-0.52-0.38-1.04-0.988-1.279c-0.102-0.04-0.2-0.08-0.302-0.12C769.2,385.66,769.69,386.35,769.72,387.1
	z"/>
<path d="M768.729,388.71c0.609-0.25,0.921-0.76,0.989-1.29c-0.028,0.74-0.51,1.42-1.27,1.41
	C768.54,388.79,768.64,388.75,768.729,388.71z"/>
<path d="M764.4,387.26c1.18-0.49,2.35-0.97,3.528-1.45c0.182-0.069,0.352-0.109,0.5-0.109c0.102,0.04,0.2,0.08,0.302,0.12
	c0.608,0.239,0.92,0.76,0.988,1.279c0,0.061,0.012,0.11,0.012,0.16s-0.012,0.11-0.012,0.16c-0.068,0.53-0.38,1.04-0.988,1.29
	c-0.092,0.04-0.19,0.08-0.28,0.12c-0.16,0-0.33-0.04-0.521-0.12c-0.63-0.26-1.26-0.52-1.89-0.78
	C765.49,387.71,764.95,387.48,764.4,387.26z"/>
<path fill="#231F20" d="M729.94,387.1c0.01,0.051,0.02,0.11,0.01,0.16C729.95,387.21,729.94,387.16,729.94,387.1z"/>
<path fill="#231F20" d="M729.95,387.26c0.01,0.061,0,0.11-0.01,0.16C729.94,387.37,729.95,387.31,729.95,387.26z"/>
<path fill="#231F20" d="M729.94,387.1c-0.07-0.52-0.382-1.04-0.98-1.279c-0.1-0.04-0.2-0.08-0.3-0.12
	C729.43,385.66,729.91,386.35,729.94,387.1z"/>
<path fill="#231F20" d="M728.96,388.71c0.6-0.25,0.91-0.76,0.98-1.29c-0.021,0.74-0.5,1.42-1.262,1.41
	C728.771,388.79,728.87,388.75,728.96,388.71z"/>
<path fill="#231F20" d="M728.96,385.82c0.6,0.239,0.91,0.76,0.98,1.279c0,0.061,0.01,0.11,0.01,0.16s-0.01,0.11-0.01,0.16
	c-0.07,0.53-0.382,1.04-0.98,1.29c-0.09,0.04-0.189,0.08-0.28,0.12c-0.159,0-0.33-0.04-0.52-0.12c-1.181-0.479-2.36-0.97-3.54-1.45
	c1.18-0.479,2.359-0.97,3.54-1.45c0.18-0.069,0.35-0.109,0.5-0.109C728.76,385.74,728.86,385.78,728.96,385.82z"/>
<path fill="#231F20" d="M692.08,385.48c0.47-0.011,0.76,0.449,0.74,0.92c-0.012-0.341-0.182-0.681-0.58-0.851
	C692.19,385.53,692.13,385.51,692.08,385.48z"/>
<path fill="#231F20" d="M692.24,387.24c0.38-0.16,0.56-0.48,0.58-0.811c0,0.46-0.28,0.891-0.74,0.88
	C692.13,387.28,692.19,387.26,692.24,387.24z"/>
<path fill="#231F20" d="M692.24,385.55c0.398,0.17,0.568,0.51,0.58,0.851c0,0.01,0,0.02,0,0.029c-0.021,0.33-0.2,0.65-0.58,0.811
	c-0.05,0.02-0.11,0.04-0.16,0.069c-0.09,0-0.2-0.02-0.312-0.069c-0.688-0.28-1.368-0.561-2.06-0.84c0.69-0.29,1.37-0.57,2.06-0.851
	c0.11-0.05,0.222-0.069,0.312-0.069C692.13,385.51,692.19,385.53,692.24,385.55z"/>
<path d="M640.82,336.33c0.08,0.03,0.068,0.09-0.21,0.229c-0.062-0.029-0.12-0.06-0.181-0.079
	C640.19,336.38,640.67,336.29,640.82,336.33z"/>
<path d="M640.79,438.04c0.24,0.1-0.24,0.19-0.39,0.15c-0.08-0.03-0.07-0.092,0.21-0.23C640.67,437.99,640.729,438.02,640.79,438.04z
	"/>
<path fill="#231F20" d="M640.59,421.68c0.61,0.37-0.55,0.29-0.01,0C640.58,421.68,640.58,421.68,640.59,421.68z"/>
<path fill="#231F20" d="M640.61,366.26C640.25,366.06,640.92,366.11,640.61,366.26L640.61,366.26z"/>
<path fill="#231F20" d="M640.57,406.52C640.95,406.73,640.271,406.68,640.57,406.52L640.57,406.52z"/>
<path fill="#231F20" d="M640.63,352.84c-0.21-0.13-0.21-0.2-0.15-0.229c0.131-0.061,0.521,0.04,0.16,0.229
	C640.63,352.83,640.63,352.84,640.63,352.84z"/>
<path fill="#231F20" d="M622.31,399.03c6.021,2.46,12.04,4.92,18.051,7.39c0.09,0.04,0.159,0.07,0.21,0.1c-0.3,0.16,0.38,0.212,0,0
	c0.01,0,0.028-0.01,0.05-0.02c0.66-0.27,1.32-0.54,1.979-0.81c2.972-1.222,5.94-2.432,8.91-3.65c12.73-5.22,25.471-10.43,38.2-15.64
	c0.69,0.279,1.37,0.56,2.06,0.84c0.11,0.05,0.222,0.069,0.312,0.069c-11.43,4.671-22.851,9.36-34.29,14.04
	c-5.59,2.29-11.18,4.58-16.78,6.87c-0.84,0.352-2.14-0.528-2.89-0.84c-2.97-1.22-5.94-2.43-8.91-3.648
	c-13.29-5.451-26.57-10.881-39.86-16.331l0.07-0.16c0.69-0.28,1.37-0.561,2.06-0.84C601.75,390.6,612.04,394.81,622.31,399.03z"/>
<path fill="#231F20" d="M589.42,387.24c0-0.561,0-1.13,0-1.69c0.69,0.28,1.37,0.561,2.06,0.851
	C590.79,386.68,590.11,386.96,589.42,387.24z"/>
<path fill="#231F20" d="M640.18,364.57c0.839-0.351,2.141,0.529,2.891,0.84c2.97,1.21,5.938,2.43,8.909,3.649
	c13.369,5.48,26.729,10.95,40.101,16.421c-0.09,0-0.2,0.02-0.312,0.069c-0.688,0.28-1.368,0.561-2.06,0.851
	c-10.271-4.21-20.56-8.42-30.84-12.631c-6.01-2.47-12.03-4.93-18.04-7.399c-0.1-0.04-0.17-0.08-0.22-0.11c0.31-0.149-0.36-0.2,0,0
	c-0.012,0.011-0.03,0.021-0.052,0.03c-0.659,0.27-1.31,0.54-1.97,0.81c-2.97,1.221-5.939,2.431-8.91,3.65
	c-12.729,5.22-25.47,10.43-38.2,15.65c-0.689-0.29-1.369-0.57-2.06-0.851c0,0.561,0,1.13,0,1.69l-0.07,0.16
	c-0.13-0.051-0.27-0.11-0.399-0.16c-0.83-0.34-0.83-1.351,0-1.69c11.479-4.7,22.96-9.41,34.45-14.109
	C628.99,369.15,634.58,366.86,640.18,364.57z"/>
<path fill="#231F20" d="M556.6,387.26c-1.18,0.48-2.359,0.971-3.54,1.45c0-0.97,0-1.93,0-2.9
	C554.24,386.29,555.42,386.78,556.6,387.26z"/>
<g>
	<path fill="#E9202B" d="M640.64,352.84c0.36-0.189-0.028-0.29-0.159-0.229l-1.03-2.511c0.149-0.06,0.29-0.119,0.439-0.18
		c1.45-0.59,3.669,0.91,4.95,1.44c5.08,2.08,10.16,4.159,15.24,6.239c22.86,9.37,45.72,18.73,68.58,28.101
		c-0.15,0-0.32,0.04-0.5,0.109c-1.18,0.48-2.36,0.971-3.54,1.45c-17.58-7.21-35.16-14.399-52.74-21.6
		c-10.29-4.22-20.58-8.44-30.88-12.65C640.84,352.94,640.72,352.88,640.64,352.84z"/>
	<path fill="#E9202B" d="M640.479,352.61c-0.06,0.029-0.06,0.1,0.15,0.229c-0.02,0.01-0.04,0.021-0.07,0.03
		c-1.129,0.46-2.26,0.92-3.379,1.38c-5.08,2.08-10.17,4.16-15.25,6.25c-21.779,8.92-43.55,17.83-65.33,26.76
		c-1.18-0.479-2.359-0.97-3.54-1.45l-0.109-0.27c19.41-7.96,38.83-15.91,58.24-23.86c9.42-3.859,18.85-7.72,28.26-11.58
		L640.479,352.61z"/>
	<path fill="#E9202B" d="M609.34,408.87c10.29,4.21,20.58,8.43,30.87,12.64c0.16,0.07,0.28,0.13,0.37,0.17
		c-0.54,0.29,0.62,0.37,0.01,0c0.021-0.01,0.04-0.02,0.07-0.028c1.13-0.46,2.25-0.92,3.38-1.382c5.08-2.078,10.16-4.158,15.24-6.238
		c21.778-8.932,43.56-17.84,65.34-26.771c1.18,0.48,2.359,0.971,3.54,1.45c0.188,0.08,0.358,0.12,0.52,0.12
		c-19.56,8-39.1,16.01-58.648,24.01c-9.57,3.92-19.142,7.84-28.71,11.76c-1.44,0.602-3.66-0.908-4.94-1.438
		c-5.08-2.08-10.16-4.16-15.24-6.24c-22.96-9.399-45.92-18.81-68.88-28.21c-1.42-0.58-1.42-2.31,0-2.89
		c0.23-0.09,0.46-0.19,0.69-0.28l0.109,0.27c0,0.971,0,1.931,0,2.9c1.181-0.479,2.36-0.97,3.54-1.45
		C574.18,394.47,591.76,401.66,609.34,408.87z"/>
</g>
<path d="M515.18,386.59c0.55,0.22,1.091,0.45,1.641,0.67c-1.181,0.49-2.351,0.971-3.53,1.45c0-0.97,0-1.93,0-2.9
	C513.92,386.07,514.55,386.33,515.18,386.59z"/>
<g>
	<path fill="#E9202B" d="M640.61,336.56c0.278-0.14,0.29-0.199,0.21-0.229l1.02-2.49c42.2,17.29,84.392,34.57,126.59,51.86
		c-0.148,0-0.318,0.04-0.5,0.109c-1.18,0.48-2.35,0.96-3.528,1.45c-23.472-9.62-46.95-19.229-70.42-28.84
		c-13.222-5.42-26.44-10.83-39.65-16.25c-3.811-1.55-7.61-3.11-11.42-4.67C642.14,337.18,641.38,336.87,640.61,336.56z"/>
	<path fill="#E9202B" d="M640.4,438.19c0.149,0.04,0.63-0.052,0.39-0.15c-0.06-0.021-0.12-0.05-0.18-0.08
		c0.04-0.02,0.09-0.04,0.148-0.06C681.97,421.02,723.19,404.14,764.4,387.26c0.55,0.221,1.09,0.45,1.64,0.67
		c0.63,0.261,1.26,0.521,1.89,0.78c0.19,0.08,0.36,0.12,0.521,0.12c-0.812,0.33-1.61,0.66-2.42,0.99
		c-24.66,10.1-49.32,20.199-73.98,30.3c-12.89,5.28-25.79,10.56-38.688,15.84c-3.48,1.43-6.972,2.86-10.46,4.29
		c-1.15,0.47-2.021,1.05-3.24,0.55c-0.09-0.04-0.19-0.08-0.28-0.12L640.4,438.19z"/>
	<path fill="#E9202B" d="M640.82,336.33c-0.15-0.04-0.63,0.05-0.391,0.15c0.061,0.02,0.12,0.05,0.181,0.079
		c-0.04,0.021-0.092,0.04-0.15,0.061c-41.21,16.88-82.43,33.76-123.64,50.64c-0.551-0.22-1.091-0.45-1.641-0.67
		c-0.63-0.26-1.26-0.52-1.89-0.78l-0.11-0.27c0.67-0.28,1.34-0.55,2.011-0.83c24.659-10.1,49.319-20.2,73.979-30.3
		c12.89-5.29,25.79-10.57,38.69-15.851c3.479-1.43,6.97-2.859,10.449-4.279c1.16-0.48,2.03-1.05,3.25-0.561
		c0.092,0.04,0.19,0.08,0.28,0.12L640.82,336.33z"/>
	<path fill="#E9202B" d="M640.61,437.96c-0.28,0.14-0.291,0.2-0.21,0.23l-1.021,2.488c-42.3-17.33-84.59-34.648-126.89-51.97
		c-1.42-0.58-1.42-2.31,0-2.89c0.229-0.091,0.46-0.19,0.689-0.28l0.11,0.27c0,0.971,0,1.931,0,2.9c1.18-0.48,2.35-0.96,3.53-1.45
		c23.47,9.62,46.949,19.23,70.42,28.852c13.22,5.408,26.43,10.818,39.649,16.238c3.801,1.562,7.61,3.11,11.41,4.67
		C639.07,437.34,639.84,437.65,640.61,437.96z"/>
</g>
<path fill="#E9202B" d="M40.67,388.99c22.73,9.31,45.46,18.608,68.19,27.93c5.08,2.08,10.16,4.16,15.24,6.24
	c1.28,0.53,3.5,2.03,4.94,1.438c0.15-0.06,0.29-0.118,0.44-0.18c9.42-3.86,18.85-7.72,28.27-11.58c19.55-8,39.1-16.01,58.65-24.01
	c0.76,0.01,1.24-0.67,1.26-1.41c0.01-0.04,0.01-0.08,0.01-0.11c0-0.02,0-0.029,0-0.05c0.01-0.05,0-0.109-0.01-0.16
	c-0.02-0.739-0.5-1.42-1.26-1.409c-22.87-9.36-45.73-18.721-68.6-28.091c-5.08-2.08-10.16-4.159-15.24-6.239
	c-1.28-0.53-3.5-2.03-4.94-1.44c-9.57,3.92-19.14,7.84-28.71,11.76c-19.64,8.04-39.28,16.09-58.93,24.13
	c-1.42,0.591-1.42,2.311,0,2.9C40.21,388.8,40.44,388.9,40.67,388.99z M126.02,437.02c-3.8-1.56-7.6-3.108-11.41-4.67
	c-13.22-5.42-26.43-10.83-39.65-16.238c-23.47-9.62-46.95-19.23-70.42-28.852c41.21-16.88,82.43-33.76,123.64-50.64
	c0.06-0.021,0.11-0.04,0.15-0.061c0.77,0.311,1.54,0.62,2.31,0.94c3.8,1.56,7.61,3.12,11.41,4.67
	c13.22,5.42,26.43,10.83,39.65,16.25c23.47,9.61,46.95,19.22,70.42,28.84c-41.21,16.88-82.43,33.76-123.64,50.642
	c-0.06,0.02-0.11,0.04-0.15,0.06C127.56,437.65,126.79,437.34,126.02,437.02z"/>
<path fill="#231F20" d="M177.63,388.71c-12.73,5.21-25.47,10.43-38.2,15.65c-2.97,1.21-5.94,2.43-8.91,3.648
	c-0.66,0.271-1.32,0.53-1.98,0.8c-0.02,0.012-0.04,0.021-0.05,0.021c-0.05-0.03-0.12-0.062-0.21-0.101
	c-6.02-2.461-12.03-4.931-18.05-7.391c-10.27-4.21-20.55-8.41-30.83-12.63c12.73-5.22,25.46-10.43,38.19-15.65
	c2.97-1.21,5.94-2.43,8.92-3.649c0.65-0.271,1.31-0.54,1.97-0.811c0.01-0.01,0.03-0.01,0.04-0.02c0.05,0.03,0.12,0.07,0.22,0.11
	c6.02,2.46,12.03,4.93,18.05,7.39C157.07,380.29,167.35,384.5,177.63,388.71z"/>
<path fill="#231F20" d="M256.17,388.83c0.09-0.04,0.19-0.08,0.28-0.12c0.61-0.25,0.92-0.76,0.99-1.29
	C257.41,388.16,256.93,388.84,256.17,388.83z"/>
<path fill="#231F20" d="M255.65,388.71c-0.63-0.26-1.26-0.52-1.89-0.78c-0.55-0.22-1.09-0.449-1.64-0.67
	c1.18-0.49,2.35-0.97,3.53-1.45c0.18-0.069,0.35-0.109,0.5-0.109c0.1,0.04,0.2,0.08,0.3,0.12c0.61,0.239,0.92,0.76,0.99,1.279
	c0,0.061,0.01,0.11,0.01,0.16s-0.01,0.11-0.01,0.16c-0.07,0.53-0.38,1.04-0.99,1.29c-0.09,0.04-0.19,0.08-0.28,0.12
	C256.01,388.83,255.84,388.79,255.65,388.71z"/>
<path fill="#231F20" d="M257.44,387.1c-0.07-0.52-0.38-1.04-0.99-1.279c-0.1-0.04-0.2-0.08-0.3-0.12
	C256.92,385.66,257.41,386.35,257.44,387.1z"/>
<path fill="#231F20" d="M216.4,385.69c0.76-0.011,1.24,0.67,1.26,1.409c-0.07-0.529-0.38-1.04-0.98-1.29
	C216.59,385.77,216.49,385.73,216.4,385.69z"/>
<path fill="#231F20" d="M216.4,388.83c0.09-0.04,0.19-0.08,0.28-0.12c0.6-0.25,0.91-0.76,0.98-1.29
	C217.64,388.16,217.16,388.84,216.4,388.83z"/>
<path fill="#231F20" d="M217.66,387.1c0.01,0.051,0.02,0.11,0.01,0.16c0,0.021,0,0.03,0,0.05c0,0.03,0,0.07-0.01,0.11
	c-0.07,0.53-0.38,1.04-0.98,1.29c-0.09,0.04-0.19,0.08-0.28,0.12c-0.16,0-0.33-0.04-0.52-0.12c-1.18-0.479-2.36-0.97-3.54-1.45
	c1.18-0.479,2.36-0.97,3.54-1.45c0.19-0.079,0.36-0.119,0.52-0.119c0.09,0.04,0.19,0.079,0.28,0.119
	C217.28,386.06,217.59,386.57,217.66,387.1z"/>
<path fill="#231F20" d="M180,387.8c0.47-0.01,0.76,0.45,0.74,0.91c-0.01-0.34-0.19-0.68-0.58-0.84
	C180.11,387.85,180.05,387.83,180,387.8z"/>
<path fill="#231F20" d="M180.74,388.71c0.02,0.47-0.27,0.93-0.75,0.92c0.06-0.02,0.11-0.05,0.17-0.07
	C180.55,389.4,180.73,389.06,180.74,388.71z"/>
<path fill="#231F20" d="M179.69,389.56c-0.69-0.279-1.37-0.56-2.06-0.85c0.69-0.28,1.37-0.56,2.06-0.84
	c0.11-0.05,0.22-0.07,0.31-0.07c0.05,0.03,0.11,0.05,0.16,0.07c0.39,0.16,0.57,0.5,0.58,0.84c-0.01,0.35-0.19,0.69-0.58,0.85
	c-0.06,0.021-0.11,0.051-0.17,0.07C179.9,389.63,179.79,389.61,179.69,389.56z"/>
<path fill="#231F20" d="M128.49,408.83C128.86,409.04,128.18,408.99,128.49,408.83L128.49,408.83z"/>
<path fill="#231F20" d="M128.15,336.48c-0.24-0.101,0.24-0.19,0.39-0.15c0.08,0.03,0.07,0.09-0.21,0.229
	C128.27,336.53,128.21,336.5,128.15,336.48z"/>
<path fill="#231F20" d="M128.52,368.58C128.16,368.37,128.86,368.43,128.52,368.58L128.52,368.58z"/>
<path fill="#231F20" d="M128.45,421.91c-0.13,0.05-0.51-0.04-0.15-0.23c0,0,0,0,0.01,0C128.52,421.81,128.52,421.88,128.45,421.91z"
	/>
<path fill="#231F20" d="M128.35,352.84c-0.61-0.37,0.55-0.28,0.01,0C128.36,352.84,128.36,352.84,128.35,352.84z"/>
<path fill="#231F20" d="M128.51,438.04c0.24,0.1-0.24,0.19-0.39,0.15c-0.08-0.03-0.07-0.092,0.21-0.23
	C128.39,437.99,128.45,438.02,128.51,438.04z"/>
<path fill="#231F20" d="M126.51,369.41c-2.98,1.22-5.95,2.439-8.92,3.649c-12.73,5.221-25.46,10.431-38.19,15.65
	c-0.69-0.28-1.38-0.57-2.07-0.85l-0.06-0.15c11.35-4.66,22.69-9.3,34.04-13.95c5.6-2.3,11.19-4.59,16.78-6.88
	c0.85-0.34,2.15,0.54,2.89,0.84c2.97,1.221,5.94,2.44,8.92,3.65c13.37,5.479,26.73,10.96,40.1,16.43c-0.09,0-0.2,0.021-0.31,0.07
	c-0.69,0.28-1.37,0.56-2.06,0.84c-10.28-4.21-20.56-8.42-30.84-12.63c-6.02-2.46-12.03-4.93-18.05-7.391
	c-0.1-0.039-0.17-0.079-0.22-0.109c0.34-0.15-0.36-0.21,0,0c-0.01,0.01-0.03,0.01-0.04,0.02
	C127.82,368.87,127.16,369.14,126.51,369.41z"/>
<path fill="#231F20" d="M79.4,388.71c-0.69,0.28-1.38,0.57-2.07,0.85c0-0.569,0-1.13,0-1.699C78.02,388.14,78.71,388.43,79.4,388.71
	z"/>
<path fill="#231F20" d="M126.04,409.7c-2.97-1.22-5.94-2.44-8.91-3.66c-13.42-5.49-26.84-10.99-40.26-16.48
	c-0.83-0.34-0.83-1.35,0-1.689c0.13-0.05,0.27-0.11,0.4-0.16l0.06,0.15c0,0.569,0,1.13,0,1.699c0.69-0.279,1.38-0.569,2.07-0.85
	c10.28,4.22,20.56,8.42,30.83,12.63c6.02,2.46,12.03,4.93,18.05,7.392c0.09,0.038,0.16,0.068,0.21,0.1c-0.31,0.16,0.37,0.21,0,0
	c0.01,0,0.03-0.01,0.05-0.021c0.66-0.27,1.32-0.528,1.98-0.8c2.97-1.22,5.94-2.438,8.91-3.648c12.73-5.221,25.47-10.44,38.2-15.65
	c0.69,0.29,1.37,0.57,2.06,0.85c0.1,0.051,0.21,0.07,0.3,0.07c-11.43,4.68-22.86,9.351-34.28,14.03c-5.59,2.3-11.19,4.59-16.78,6.88
	C128.08,410.88,126.79,410,126.04,409.7z"/>
<path fill="#231F20" d="M44.32,387.26c-1.18,0.48-2.36,0.971-3.54,1.45c0-0.97,0-1.93,0-2.9C41.96,386.29,43.14,386.78,44.32,387.26
	z"/>
<g>
	<path fill="#E9202B" d="M128.38,421.65c1.13-0.46,2.25-0.92,3.38-1.382c5.08-2.078,10.16-4.158,15.25-6.238
		c21.771-8.932,43.55-17.84,65.33-26.771c1.18,0.48,2.36,0.97,3.54,1.45c0.19,0.08,0.36,0.12,0.52,0.12
		c-19.55,8-39.1,16.01-58.65,24.01c-9.42,3.86-18.85,7.72-28.27,11.58l-1.03-2.51c0.07-0.03,0.07-0.102-0.14-0.23
		C128.33,421.67,128.35,421.66,128.38,421.65z"/>
	<path fill="#E9202B" d="M124.9,354.25c-5.08,2.08-10.16,4.16-15.25,6.25c-21.77,8.92-43.55,17.83-65.33,26.76
		c-1.18-0.479-2.36-0.97-3.54-1.45c0,0.971,0,1.931,0,2.9l-0.11,0.28c-0.23-0.09-0.46-0.19-0.69-0.28c-1.42-0.59-1.42-2.31,0-2.9
		c19.65-8.04,39.29-16.09,58.93-24.13c9.57-3.92,19.14-7.84,28.71-11.76c1.44-0.59,3.66,0.91,4.94,1.44
		c5.08,2.08,10.16,4.159,15.24,6.239c22.87,9.37,45.73,18.73,68.6,28.091c-0.16,0-0.33,0.04-0.52,0.119
		c-1.18,0.48-2.36,0.971-3.54,1.45c-17.58-7.21-35.16-14.399-52.74-21.609c-10.29-4.21-20.58-8.431-30.87-12.641
		c-0.16-0.07-0.28-0.13-0.37-0.17c0.54-0.28-0.62-0.37-0.01,0c-0.02,0.01-0.04,0.021-0.07,0.03
		C127.15,353.33,126.03,353.79,124.9,354.25z"/>
	<path fill="#E9202B" d="M97.06,408.87c10.29,4.21,20.58,8.43,30.87,12.64c0.16,0.07,0.28,0.13,0.37,0.17
		c-0.36,0.19,0.02,0.28,0.15,0.23l1.03,2.51c-0.15,0.062-0.29,0.12-0.44,0.18c-1.44,0.592-3.66-0.908-4.94-1.438
		c-5.08-2.08-10.16-4.16-15.24-6.24c-22.73-9.32-45.46-18.62-68.19-27.93l0.11-0.28c1.18-0.479,2.36-0.97,3.54-1.45
		C61.9,394.47,79.48,401.66,97.06,408.87z"/>
</g>
<path fill="#231F20" d="M2.9,386.59c0.55,0.22,1.09,0.45,1.64,0.67c-1.18,0.49-2.35,0.971-3.53,1.45c0-0.97,0-1.93,0-2.9
	C1.64,386.07,2.27,386.33,2.9,386.59z"/>
<g>
	<path fill="#E9202B" d="M130.64,337.5c-0.77-0.32-1.54-0.63-2.31-0.94c0.28-0.14,0.29-0.199,0.21-0.229l1.02-2.49
		c42.2,17.29,84.39,34.57,126.59,51.86c-0.15,0-0.32,0.04-0.5,0.109c-1.18,0.48-2.35,0.96-3.53,1.45
		c-23.47-9.62-46.95-19.229-70.42-28.84c-13.22-5.42-26.43-10.83-39.65-16.25C138.25,340.62,134.44,339.06,130.64,337.5z"/>
	<path fill="#E9202B" d="M130.63,440.25c-1.16,0.47-2.03,1.05-3.25,0.55c-0.09-0.04-0.19-0.08-0.28-0.12l1.02-2.488
		c0.15,0.04,0.63-0.052,0.39-0.15c-0.06-0.021-0.12-0.05-0.18-0.08c0.04-0.02,0.09-0.04,0.15-0.06
		c41.21-16.882,82.43-33.762,123.64-50.642c0.55,0.221,1.09,0.45,1.64,0.67c0.63,0.261,1.26,0.521,1.89,0.78
		c0.19,0.08,0.36,0.12,0.52,0.12c-0.81,0.33-1.61,0.66-2.42,0.99c-24.66,10.1-49.32,20.199-73.98,30.3
		c-12.89,5.28-25.79,10.56-38.69,15.84C137.6,437.39,134.11,438.82,130.63,440.25z"/>
	<path fill="#E9202B" d="M128.18,336.62C86.97,353.5,45.75,370.38,4.54,387.26c-0.55-0.22-1.09-0.45-1.64-0.67
		c-0.63-0.26-1.26-0.52-1.89-0.78l-0.11-0.27c0.67-0.28,1.34-0.55,2.01-0.83c24.66-10.1,49.32-20.2,73.98-30.3
		c12.9-5.29,25.79-10.57,38.69-15.851c3.48-1.43,6.97-2.859,10.46-4.279c1.15-0.48,2.02-1.05,3.24-0.561
		c0.09,0.04,0.19,0.08,0.28,0.12l-1.02,2.49c-0.15-0.04-0.63,0.05-0.39,0.15c0.06,0.02,0.12,0.05,0.18,0.079
		C128.29,336.58,128.24,336.6,128.18,336.62z"/>
	<path fill="#E9202B" d="M114.61,432.35c3.81,1.562,7.61,3.11,11.41,4.67c0.77,0.32,1.54,0.632,2.31,0.94
		c-0.28,0.14-0.29,0.2-0.21,0.23l-1.02,2.488C84.8,423.35,42.51,406.03,0.21,388.71c-1.42-0.58-1.42-2.31,0-2.89
		c0.23-0.09,0.46-0.19,0.69-0.28l0.11,0.27c0,0.971,0,1.931,0,2.9c1.18-0.48,2.35-0.96,3.53-1.45
		c23.47,9.62,46.95,19.23,70.42,28.852C88.18,421.52,101.39,426.93,114.61,432.35z"/>
</g>
<path fill="#E9202B" d="M1020.01,387.26c-41.21,16.892-82.42,33.76-123.63,50.642c-0.06,0.028-0.12,0.05-0.16,0.068
	c-0.77-0.318-1.528-0.63-2.3-0.95c-3.81-1.56-7.61-3.108-11.42-4.67c-13.21-5.42-26.43-10.83-39.649-16.238
	c-23.471-9.62-46.939-19.23-70.421-28.852c41.21-16.88,82.432-33.76,123.642-50.64c0.06-0.021,0.108-0.04,0.148-0.061
	c0.771,0.311,1.54,0.62,2.312,0.94c3.8,1.56,7.608,3.12,11.409,4.67c13.221,5.42,26.439,10.83,39.649,16.25
	C973.06,368.03,996.54,377.64,1020.01,387.26z M985.56,387.26c0.012-0.05,0-0.109-0.01-0.16c-0.029-0.75-0.51-1.439-1.279-1.399
	c-22.859-9.37-45.721-18.73-68.58-28.101c-5.079-2.08-10.159-4.159-15.239-6.239c-1.28-0.53-3.5-2.03-4.94-1.44
	c-0.148,0.061-0.29,0.12-0.438,0.18c-9.42,3.86-18.852,7.721-28.271,11.58c-19.41,7.95-38.83,15.9-58.239,23.86
	c-0.229,0.09-0.449,0.19-0.681,0.28c-1.42,0.58-1.42,2.31,0,2.89c22.95,9.4,45.91,18.81,68.87,28.21
	c5.08,2.08,10.16,4.16,15.24,6.24c1.279,0.53,3.5,2.04,4.938,1.438c9.57-3.92,19.142-7.84,28.71-11.76
	c19.562-8,39.102-16.01,58.65-24.01c0.76,0.01,1.24-0.67,1.26-1.41C985.56,387.37,985.57,387.32,985.56,387.26z"/>
<path d="M945.33,387.1c-12.729,5.21-25.479,10.431-38.21,15.65c-2.97,1.21-5.94,2.43-8.91,3.65c-0.66,0.27-1.31,0.54-1.97,0.81
	c-0.011,0.01-0.03,0.01-0.04,0.021c-0.05-0.03-0.12-0.07-0.22-0.11c-6.021-2.46-12.04-4.93-18.052-7.39
	c-10.278-4.21-20.56-8.41-30.83-12.631c12.73-5.22,25.461-10.43,38.19-15.649c2.97-1.21,5.94-2.43,8.91-3.65
	c0.66-0.27,1.319-0.54,1.979-0.8c0.021-0.01,0.04-0.02,0.052-0.02c0.05,0.029,0.119,0.06,0.21,0.1c6.02,2.46,12.028,4.93,18.05,7.39
	C924.76,378.68,935.05,382.89,945.33,387.1z"/>
<path d="M1025.33,387.11c0.01,0.05,0.01,0.1,0.01,0.159C1025.34,387.22,1025.33,387.16,1025.33,387.11z"/>
<path d="M1025.34,387.27c0,0.051,0,0.101-0.01,0.15C1025.33,387.37,1025.34,387.32,1025.34,387.27z"/>
<path d="M1025.33,387.11c-0.07-0.53-0.38-1.051-0.99-1.29c-0.1-0.04-0.2-0.08-0.3-0.12
	C1024.82,385.66,1025.31,386.36,1025.33,387.11z"/>
<path d="M1024.34,388.71c0.61-0.25,0.92-0.77,0.99-1.29c-0.021,0.74-0.51,1.43-1.271,1.41
	C1024.15,388.79,1024.25,388.75,1024.34,388.71z"/>
<path d="M1024.34,385.82c0.61,0.239,0.92,0.76,0.99,1.29c0,0.05,0.01,0.109,0.01,0.159c0,0.051-0.01,0.101-0.01,0.15
	c-0.07,0.521-0.38,1.04-0.99,1.29c-0.09,0.04-0.188,0.08-0.28,0.12c-0.158-0.01-0.328-0.05-0.51-0.12
	c-0.63-0.26-1.27-0.52-1.898-0.78c-0.552-0.22-1.092-0.449-1.642-0.67c1.181-0.479,2.36-0.97,3.54-1.45
	c0.182-0.069,0.34-0.109,0.49-0.109C1024.14,385.74,1024.24,385.78,1024.34,385.82z"/>
<path fill="#231F20" d="M985.55,387.1c0.01,0.051,0.021,0.11,0.01,0.16C985.56,387.21,985.55,387.16,985.55,387.1z"/>
<path fill="#231F20" d="M985.56,387.26c0.012,0.061,0,0.11-0.01,0.16C985.55,387.37,985.56,387.31,985.56,387.26z"/>
<path fill="#231F20" d="M985.55,387.1c-0.068-0.52-0.38-1.04-0.979-1.279c-0.102-0.04-0.2-0.08-0.301-0.12
	C985.04,385.66,985.521,386.35,985.55,387.1z"/>
<path fill="#231F20" d="M984.57,388.71c0.6-0.25,0.909-0.76,0.979-1.29c-0.02,0.74-0.5,1.42-1.26,1.41
	C984.38,388.79,984.479,388.75,984.57,388.71z"/>
<path fill="#231F20" d="M984.57,385.82c0.6,0.239,0.909,0.76,0.979,1.279c0,0.061,0.011,0.11,0.011,0.16s-0.011,0.11-0.011,0.16
	c-0.069,0.53-0.38,1.04-0.979,1.29c-0.091,0.04-0.19,0.08-0.28,0.12c-0.16,0-0.33-0.04-0.521-0.12
	c-1.18-0.479-2.358-0.97-3.539-1.45c1.181-0.479,2.359-0.97,3.539-1.45c0.182-0.069,0.352-0.109,0.5-0.109
	C984.37,385.74,984.47,385.78,984.57,385.82z"/>
<path fill="#231F20" d="M947.69,386.19c0.479-0.011,0.76,0.449,0.738,0.92c-0.01-0.351-0.188-0.69-0.58-0.851
	C947.8,386.24,947.74,386.22,947.69,386.19z"/>
<path fill="#231F20" d="M948.43,387.11c0.021,0.46-0.27,0.92-0.739,0.909c0.051-0.029,0.109-0.05,0.159-0.069
	C948.24,387.79,948.41,387.45,948.43,387.11z"/>
<path fill="#231F20" d="M947.39,387.95c-0.688-0.28-1.369-0.561-2.06-0.851c0.688-0.279,1.37-0.56,2.06-0.84
	c0.11-0.05,0.211-0.069,0.302-0.069c0.05,0.029,0.108,0.05,0.159,0.069c0.391,0.16,0.569,0.5,0.579,0.851
	c-0.02,0.34-0.188,0.68-0.579,0.84c-0.051,0.02-0.109,0.04-0.159,0.069C947.6,388.02,947.5,388,947.39,387.95z"/>
<path d="M896.43,336.33c0.08,0.03,0.07,0.09-0.21,0.229c-0.06-0.029-0.12-0.06-0.18-0.079
	C895.81,336.38,896.28,336.29,896.43,336.33z"/>
<path d="M896.4,438.04c0.238,0.1-0.23,0.19-0.382,0.15c-0.078-0.03-0.068-0.092,0.2-0.222C896.28,437.99,896.34,438.02,896.4,438.04
	z"/>
<path fill="#231F20" d="M896.2,421.68c0.62,0.37-0.55,0.29-0.01,0C896.19,421.68,896.19,421.68,896.2,421.68z"/>
<path fill="#231F20" d="M896.2,407.23C896.56,407.44,895.86,407.38,896.2,407.23L896.2,407.23z"/>
<path fill="#231F20" d="M896.229,366.98C895.86,366.77,896.53,366.82,896.229,366.98L896.229,366.98z"/>
<path fill="#231F20" d="M896.24,352.84c-0.21-0.13-0.21-0.2-0.142-0.229c0.131-0.051,0.512,0.04,0.15,0.229
	C896.25,352.83,896.25,352.83,896.24,352.84z"/>
<path fill="#231F20" d="M896.18,367c-0.659,0.26-1.318,0.53-1.979,0.8c-2.97,1.22-5.94,2.44-8.91,3.65
	c-12.729,5.22-25.46,10.43-38.19,15.649c-0.688-0.279-1.38-0.569-2.068-0.85l-0.062-0.16c11.341-4.649,22.7-9.3,34.04-13.939
	c5.59-2.301,11.19-4.591,16.78-6.881c0.84-0.34,2.14,0.54,2.89,0.841c2.972,1.22,5.94,2.439,8.91,3.649
	c13.37,5.48,26.73,10.96,40.102,16.43c-0.092,0-0.19,0.021-0.301,0.07c-0.689,0.28-1.371,0.561-2.061,0.84
	c-10.28-4.21-20.57-8.42-30.84-12.63c-6.021-2.46-12.03-4.93-18.05-7.39c-0.091-0.04-0.16-0.07-0.21-0.101c0.3-0.159-0.37-0.21,0,0
	C896.22,366.98,896.2,366.99,896.18,367z"/>
<path fill="#231F20" d="M847.1,387.1c-0.688,0.28-1.38,0.57-2.068,0.851c0-0.57,0-1.13,0-1.7
	C845.72,386.53,846.41,386.82,847.1,387.1z"/>
<path fill="#231F20" d="M896.62,408.93c-0.84,0.352-2.141-0.54-2.88-0.84c-2.972-1.22-5.95-2.438-8.92-3.648
	c-13.42-5.5-26.841-11-40.261-16.49c-0.83-0.34-0.83-1.351,0-1.69c0.141-0.06,0.271-0.109,0.409-0.17l0.062,0.16
	c0,0.57,0,1.13,0,1.7c0.688-0.28,1.38-0.57,2.068-0.851c10.271,4.221,20.551,8.421,30.83,12.631c6.012,2.46,12.03,4.93,18.051,7.39
	c0.101,0.04,0.17,0.08,0.221,0.11c-0.34,0.148,0.358,0.21,0,0c0.01-0.012,0.029-0.012,0.04-0.021c0.659-0.27,1.31-0.54,1.97-0.81
	c2.97-1.222,5.939-2.44,8.91-3.65c12.729-5.22,25.479-10.44,38.21-15.65c0.688,0.29,1.37,0.57,2.06,0.851
	c0.11,0.05,0.21,0.07,0.301,0.07c-11.431,4.67-22.851,9.35-34.279,14.029C907.81,404.35,902.22,406.64,896.62,408.93z"/>
<path fill="#231F20" d="M812.21,387.26c-1.18,0.48-2.359,0.971-3.54,1.45c0-0.97,0-1.93,0-2.9
	C809.85,386.29,811.03,386.78,812.21,387.26z"/>
<g>
	<path fill="#E9202B" d="M896.25,352.84c0.36-0.189-0.021-0.28-0.15-0.229l-1.028-2.511c0.148-0.06,0.29-0.119,0.438-0.18
		c1.44-0.59,3.66,0.91,4.94,1.44c5.08,2.08,10.16,4.159,15.24,6.239c22.858,9.37,45.72,18.73,68.578,28.101
		c-0.148,0-0.318,0.04-0.5,0.109c-1.18,0.48-2.358,0.971-3.539,1.45c-17.58-7.21-35.159-14.399-52.739-21.6
		c-10.29-4.22-20.58-8.44-30.87-12.65C896.46,352.94,896.34,352.88,896.25,352.84z"/>
	<path fill="#E9202B" d="M896.17,352.87c-1.13,0.46-2.25,0.92-3.38,1.38c-5.08,2.08-10.16,4.16-15.24,6.25
		c-21.779,8.92-43.56,17.83-65.34,26.76c-1.18-0.479-2.36-0.97-3.54-1.45l-0.11-0.27c19.41-7.96,38.83-15.91,58.24-23.86
		c9.42-3.859,18.852-7.72,28.271-11.58l1.028,2.511c-0.068,0.029-0.068,0.1,0.142,0.229C896.22,352.85,896.2,352.86,896.17,352.87z"
		/>
	<path fill="#E9202B" d="M864.95,408.87c10.29,4.21,20.58,8.43,30.88,12.64c0.16,0.07,0.28,0.13,0.36,0.17
		c-0.54,0.29,0.63,0.37,0.01,0c0.02-0.01,0.04-0.02,0.068-0.028c1.131-0.46,2.262-0.92,3.381-1.382
		c5.08-2.078,10.171-4.158,15.25-6.238c21.771-8.932,43.551-17.84,65.33-26.771c1.181,0.48,2.359,0.971,3.539,1.45
		c0.19,0.08,0.36,0.12,0.521,0.12c-19.55,8-39.09,16.01-58.65,24.01c-9.568,3.92-19.14,7.84-28.71,11.76
		c-1.438,0.602-3.659-0.908-4.938-1.438c-5.08-2.08-10.16-4.16-15.24-6.24c-22.96-9.399-45.92-18.81-68.87-28.21
		c-1.42-0.58-1.42-2.31,0-2.89c0.229-0.09,0.45-0.19,0.68-0.28l0.11,0.27c0,0.971,0,1.931,0,2.9c1.18-0.479,2.36-0.97,3.54-1.45
		C829.79,394.47,847.37,401.66,864.95,408.87z"/>
</g>
<path d="M770.79,386.59c0.55,0.22,1.09,0.45,1.64,0.67c-1.18,0.49-2.35,0.971-3.528,1.45c0-0.97,0-1.93,0-2.9
	C769.53,386.07,770.16,386.33,770.79,386.59z"/>
<g>
	<path fill="#E9202B" d="M898.53,337.5c-0.771-0.32-1.54-0.63-2.312-0.94c0.28-0.14,0.29-0.199,0.21-0.229l1.021-2.49
		c42.2,17.29,84.39,34.57,126.59,51.86c-0.15,0-0.311,0.04-0.49,0.109c-1.18,0.48-2.358,0.971-3.54,1.45
		c-23.47-9.62-46.95-19.229-70.42-28.84c-13.21-5.42-26.43-10.83-39.648-16.25C906.14,340.62,902.33,339.06,898.53,337.5z"/>
	<path fill="#E9202B" d="M896.021,438.19c0.149,0.04,0.619-0.052,0.381-0.15c-0.062-0.021-0.12-0.05-0.182-0.07
		c0.04-0.02,0.102-0.04,0.16-0.068c41.21-16.882,82.42-33.75,123.63-50.642c0.55,0.221,1.09,0.45,1.642,0.67
		c0.63,0.261,1.27,0.521,1.898,0.78c0.182,0.07,0.352,0.11,0.51,0.12c-0.81,0.33-1.608,0.66-2.42,0.99
		c-24.658,10.1-49.318,20.199-73.97,30.3c-12.9,5.28-25.8,10.56-38.688,15.84c-3.49,1.43-6.98,2.86-10.462,4.29
		c-1.159,0.47-2.028,1.05-3.25,0.55c-0.09-0.04-0.18-0.068-0.27-0.108L896.021,438.19z"/>
	<path fill="#E9202B" d="M893.93,334.28c1.15-0.48,2.021-1.05,3.24-0.561c0.09,0.04,0.19,0.08,0.28,0.12l-1.021,2.49
		c-0.148-0.04-0.619,0.05-0.39,0.15c0.06,0.02,0.12,0.05,0.18,0.079c-0.04,0.021-0.09,0.04-0.148,0.061
		c-41.21,16.88-82.432,33.76-123.642,50.64c-0.55-0.22-1.09-0.45-1.64-0.67c-0.63-0.26-1.26-0.52-1.89-0.78l-0.11-0.27
		c0.67-0.28,1.34-0.55,2.01-0.83c24.66-10.1,49.32-20.2,73.98-30.3c12.898-5.29,25.79-10.57,38.688-15.851
		C886.96,337.13,890.44,335.7,893.93,334.28z"/>
	<path fill="#E9202B" d="M768.1,388.71c-1.42-0.58-1.42-2.31,0-2.89c0.23-0.09,0.46-0.19,0.69-0.28l0.11,0.27c0,0.971,0,1.931,0,2.9
		c1.18-0.48,2.35-0.96,3.528-1.45c23.48,9.62,46.95,19.23,70.42,28.852c13.222,5.408,26.44,10.818,39.65,16.238
		c3.81,1.562,7.609,3.11,11.42,4.67c0.771,0.32,1.53,0.632,2.3,0.95c-0.27,0.13-0.278,0.19-0.2,0.222l-1.02,2.5
		C852.7,423.36,810.4,406.03,768.1,388.71z"/>
</g>
<path fill="#E9202B" d="M1275.46,387.26c-41.21,16.88-82.43,33.76-123.64,50.642c-0.062,0.02-0.11,0.04-0.15,0.06
	c-0.771-0.31-1.54-0.62-2.31-0.939c-3.802-1.561-7.61-3.109-11.41-4.671c-13.221-5.42-26.432-10.829-39.65-16.238
	c-23.47-9.62-46.95-19.23-70.42-28.852c41.22-16.89,82.42-33.76,123.64-50.64c0.062-0.021,0.11-0.04,0.15-0.061
	c0.771,0.311,1.54,0.62,2.3,0.94c3.812,1.56,7.61,3.12,11.42,4.67c13.221,5.42,26.432,10.83,39.65,16.24
	C1228.51,368.03,1251.99,377.64,1275.46,387.26z M1241.01,387.26c0-0.06,0-0.109-0.01-0.16c-0.03-0.739-0.51-1.43-1.271-1.409
	c-22.859-9.36-45.721-18.73-68.591-28.091c-5.08-2.08-10.159-4.159-15.239-6.239c-1.279-0.53-3.5-2.03-4.939-1.44
	c-9.57,3.92-19.14,7.84-28.71,11.76c-19.64,8.04-39.28,16.09-58.93,24.13c-1.421,0.58-1.421,2.311,0,2.9
	c0.229,0.09,0.46,0.19,0.688,0.28c22.73,9.31,45.46,18.608,68.19,27.93c5.08,2.08,10.16,4.16,15.239,6.24
	c1.279,0.53,3.5,2.03,4.939,1.438c0.15-0.06,0.29-0.118,0.439-0.18c9.421-3.86,18.851-7.72,28.271-11.58
	c19.55-8,39.09-16.01,58.641-24.01c0.761,0.02,1.239-0.67,1.271-1.41C1241.01,387.37,1241.01,387.32,1241.01,387.26z"/>
<path d="M1169.93,373.77c10.28,4.211,20.57,8.421,30.841,12.631c-12.729,5.21-25.471,10.42-38.199,15.64
	c-2.971,1.22-5.94,2.43-8.91,3.65c-0.66,0.27-1.32,0.54-1.97,0.81c-0.021,0.01-0.04,0.02-0.052,0.03
	c-0.05-0.03-0.119-0.07-0.22-0.11c-6.01-2.47-12.03-4.93-18.04-7.39c-10.28-4.221-20.57-8.431-30.84-12.63
	c12.729-5.221,25.47-10.431,38.2-15.65c2.97-1.22,5.938-2.43,8.91-3.65c0.659-0.27,1.31-0.54,1.97-0.81
	c0.02-0.01,0.04-0.021,0.05-0.03c0.05,0.03,0.12,0.07,0.22,0.11C1157.9,368.84,1163.92,371.3,1169.93,373.77z"/>
<path d="M1280.78,387.1c0.01,0.051,0.01,0.11,0.01,0.16C1280.79,387.21,1280.78,387.15,1280.78,387.1z"/>
<path d="M1280.79,387.26c0,0.05,0,0.11-0.01,0.16C1280.78,387.37,1280.79,387.31,1280.79,387.26z"/>
<path d="M1280.78,387.1c-0.07-0.529-0.38-1.04-0.99-1.29c-0.09-0.04-0.189-0.079-0.28-0.119
	C1280.271,385.68,1280.75,386.36,1280.78,387.1z"/>
<path d="M1279.79,388.71c0.61-0.25,0.92-0.76,0.99-1.29c-0.03,0.74-0.512,1.42-1.271,1.41
	C1279.6,388.79,1279.7,388.75,1279.79,388.71z"/>
<path d="M1275.46,387.26c1.18-0.49,2.35-0.97,3.53-1.45c0.188-0.079,0.358-0.119,0.52-0.119c0.09,0.04,0.19,0.079,0.28,0.119
	c0.61,0.25,0.92,0.761,0.99,1.29c0,0.051,0.01,0.11,0.01,0.16s-0.01,0.11-0.01,0.16c-0.07,0.53-0.38,1.04-0.99,1.29
	c-0.09,0.04-0.189,0.08-0.28,0.12c-0.16,0-0.33-0.04-0.52-0.12c-0.63-0.26-1.261-0.52-1.892-0.78
	C1276.55,387.71,1276.01,387.48,1275.46,387.26z"/>
<path fill="#231F20" d="M1241,387.1c0.01,0.051,0.01,0.101,0.01,0.16C1241.01,387.21,1241,387.16,1241,387.1z"/>
<path fill="#231F20" d="M1241.01,387.26c0,0.061,0,0.11-0.01,0.16C1241,387.36,1241.01,387.31,1241.01,387.26z"/>
<path fill="#231F20" d="M1241,387.1c-0.07-0.52-0.38-1.04-0.99-1.29c-0.09-0.04-0.188-0.079-0.278-0.119
	C1240.49,385.67,1240.97,386.36,1241,387.1z"/>
<path fill="#231F20" d="M1240.01,388.71c0.61-0.25,0.92-0.77,0.99-1.29c-0.03,0.74-0.51,1.43-1.271,1.41
	C1239.82,388.79,1239.92,388.75,1240.01,388.71z"/>
<path fill="#231F20" d="M1240.01,385.81c0.61,0.25,0.92,0.771,0.99,1.29c0,0.061,0.01,0.11,0.01,0.16s-0.01,0.101-0.01,0.16
	c-0.07,0.521-0.38,1.04-0.99,1.29c-0.09,0.04-0.188,0.08-0.278,0.12c-0.16-0.01-0.33-0.05-0.512-0.12
	c-1.18-0.479-2.358-0.97-3.54-1.45c1.182-0.479,2.36-0.97,3.54-1.45c0.182-0.069,0.352-0.109,0.512-0.119
	C1239.82,385.73,1239.92,385.77,1240.01,385.81z"/>
<path fill="#231F20" d="M1203.14,385.48c0.472-0.011,0.762,0.449,0.74,0.92c-0.01-0.341-0.18-0.681-0.58-0.851
	C1203.25,385.53,1203.19,385.51,1203.14,385.48z"/>
<path fill="#231F20" d="M1203.3,387.24c0.38-0.16,0.562-0.48,0.58-0.811c0,0.46-0.28,0.891-0.74,0.88
	C1203.19,387.28,1203.25,387.26,1203.3,387.24z"/>
<path fill="#231F20" d="M1203.3,385.55c0.4,0.17,0.57,0.51,0.58,0.851c0,0.01,0,0.02,0,0.029c-0.02,0.33-0.2,0.65-0.58,0.811
	c-0.05,0.02-0.108,0.04-0.16,0.069c-0.09,0-0.198-0.02-0.31-0.069c-0.69-0.28-1.37-0.561-2.062-0.84
	c0.69-0.29,1.37-0.57,2.062-0.851c0.11-0.05,0.22-0.069,0.31-0.069C1203.19,385.51,1203.25,385.53,1203.3,385.55z"/>
<path d="M1151.88,336.33c0.08,0.03,0.07,0.09-0.21,0.229c-0.06-0.029-0.12-0.06-0.18-0.079
	C1151.25,336.38,1151.729,336.29,1151.88,336.33z"/>
<path d="M1151.85,438.04c0.24,0.1-0.238,0.19-0.39,0.15c-0.08-0.03-0.07-0.092,0.21-0.23
	C1151.729,437.99,1151.79,438.02,1151.85,438.04z"/>
<path fill="#231F20" d="M1151.65,421.68c0.21,0.13,0.21,0.2,0.14,0.23c-0.13,0.05-0.51-0.04-0.15-0.23
	C1151.64,421.68,1151.64,421.68,1151.65,421.68z"/>
<path fill="#231F20" d="M1151.64,406.53C1152,406.73,1151.33,406.68,1151.64,406.53L1151.64,406.53z"/>
<path fill="#231F20" d="M1151.67,366.26C1151.31,366.06,1151.979,366.11,1151.67,366.26L1151.67,366.26z"/>
<path fill="#231F20" d="M1151.69,352.84c-0.61-0.37,0.55-0.28,0.01,0C1151.7,352.83,1151.7,352.83,1151.69,352.84z"/>
<path fill="#231F20" d="M1140.271,403.73c-13.289-5.451-26.569-10.881-39.859-16.331l0.07-0.16c0.688-0.28,1.368-0.561,2.06-0.84
	c10.271,4.199,20.56,8.409,30.84,12.63c6.01,2.46,12.03,4.92,18.04,7.39c0.1,0.04,0.17,0.08,0.22,0.11c-0.31,0.148,0.36,0.2,0,0
	c0.012-0.012,0.03-0.021,0.052-0.03c0.648-0.27,1.31-0.54,1.97-0.81c2.97-1.222,5.938-2.432,8.91-3.65
	c12.729-5.22,25.47-10.43,38.198-15.64c0.69,0.279,1.37,0.56,2.062,0.84c0.11,0.05,0.22,0.069,0.31,0.069
	c-11.43,4.671-22.85,9.36-34.289,14.04c-5.591,2.29-11.181,4.58-16.779,6.87c-0.84,0.352-2.142-0.528-2.892-0.84
	C1146.21,406.16,1143.24,404.95,1140.271,403.73z"/>
<path fill="#231F20" d="M1100.479,387.24c0-0.561,0-1.13,0-1.69c0.689,0.28,1.369,0.561,2.061,0.851
	C1101.85,386.68,1101.17,386.96,1100.479,387.24z"/>
<path fill="#231F20" d="M1100.01,385.55c11.48-4.7,22.96-9.41,34.45-14.109c5.59-2.29,11.18-4.58,16.78-6.87
	c0.84-0.351,2.14,0.529,2.89,0.84c2.97,1.21,5.94,2.43,8.91,3.649c13.37,5.48,26.729,10.95,40.1,16.421
	c-0.09,0-0.198,0.02-0.31,0.069c-0.69,0.28-1.37,0.561-2.062,0.851c-10.27-4.21-20.56-8.42-30.84-12.631
	c-6.01-2.47-12.029-4.93-18.04-7.399c-0.1-0.04-0.17-0.08-0.22-0.11c0.311-0.149-0.36-0.2,0,0c-0.01,0.011-0.03,0.021-0.05,0.03
	c-0.66,0.27-1.312,0.54-1.97,0.81c-2.972,1.221-5.94,2.431-8.91,3.65c-12.73,5.22-25.472,10.43-38.2,15.65
	c-0.69-0.29-1.37-0.57-2.061-0.851c0,0.561,0,1.13,0,1.69l-0.069,0.16c-0.13-0.051-0.271-0.11-0.4-0.16
	C1099.18,386.9,1099.18,385.89,1100.01,385.55z"/>
<path fill="#231F20" d="M1064.12,388.71c0-0.97,0-1.93,0-2.9c1.18,0.48,2.359,0.971,3.54,1.45
	C1066.479,387.74,1065.3,388.23,1064.12,388.71z"/>
<g>
	<path fill="#E9202B" d="M1181.09,412.84c-9.42,3.86-18.85,7.72-28.27,11.58l-1.03-2.51c0.07-0.03,0.07-0.102-0.141-0.23
		c0.021-0.01,0.041-0.02,0.069-0.028c1.13-0.46,2.25-0.921,3.38-1.382c5.08-2.078,10.16-4.158,15.24-6.238
		c21.78-8.932,43.561-17.84,65.34-26.771c1.182,0.48,2.36,0.97,3.54,1.45c0.181,0.07,0.351,0.11,0.511,0.12
		C1220.18,396.83,1200.64,404.84,1181.09,412.84z"/>
	<path fill="#E9202B" d="M1132.2,416.92c-22.73-9.32-45.46-18.62-68.19-27.93l0.11-0.28c1.18-0.479,2.359-0.97,3.54-1.45
		c17.58,7.21,35.16,14.4,52.74,21.61c10.29,4.21,20.579,8.43,30.868,12.64c0.16,0.07,0.28,0.13,0.37,0.17
		c-0.358,0.19,0.021,0.28,0.15,0.23l1.03,2.51c-0.15,0.062-0.29,0.12-0.44,0.18c-1.438,0.592-3.66-0.908-4.938-1.438
		C1142.36,421.08,1137.28,419,1132.2,416.92z"/>
	<path fill="#E9202B" d="M1132.99,360.49c-21.771,8.93-43.55,17.84-65.33,26.77c-1.181-0.479-2.36-0.97-3.54-1.45
		c0,0.971,0,1.931,0,2.9l-0.11,0.28c-0.229-0.09-0.46-0.19-0.688-0.28c-1.42-0.59-1.42-2.32,0-2.9
		c19.648-8.04,39.29-16.09,58.93-24.13c9.57-3.92,19.141-7.84,28.71-11.76c1.44-0.59,3.66,0.91,4.94,1.44
		c5.08,2.079,10.158,4.159,15.238,6.239c22.87,9.36,45.73,18.73,68.592,28.09c-0.16,0.011-0.33,0.051-0.512,0.12
		c-1.18,0.48-2.358,0.971-3.54,1.45c-17.58-7.21-35.16-14.399-52.739-21.609c-10.289-4.21-20.579-8.431-30.869-12.641
		c-0.16-0.07-0.28-0.13-0.37-0.17c0.54-0.28-0.62-0.37-0.011,0c-0.021,0.01-0.039,0.021-0.069,0.03c-1.13,0.46-2.25,0.92-3.38,1.38
		C1143.16,356.33,1138.08,358.41,1132.99,360.49z"/>
</g>
<path d="M1026.24,386.59c0.55,0.22,1.09,0.45,1.64,0.67c-1.18,0.48-2.359,0.971-3.54,1.45c0-0.97,0-1.93,0-2.9
	C1024.979,386.07,1025.61,386.33,1026.24,386.59z"/>
<g>
	<path fill="#E9202B" d="M1151.67,336.56c0.28-0.14,0.29-0.199,0.21-0.229l1.021-2.49c42.198,17.29,84.408,34.57,126.608,51.851
		c-0.16,0-0.33,0.04-0.52,0.119c-1.182,0.48-2.352,0.96-3.53,1.45c-23.47-9.62-46.95-19.229-70.42-28.85
		c-13.22-5.41-26.43-10.82-39.65-16.24c-3.81-1.55-7.608-3.11-11.42-4.67C1153.21,337.18,1152.44,336.87,1151.67,336.56z"/>
	<path fill="#E9202B" d="M1151.46,438.19c0.15,0.04,0.63-0.052,0.39-0.15c-0.06-0.021-0.118-0.05-0.18-0.08
		c0.04-0.02,0.09-0.04,0.15-0.06c41.21-16.882,82.43-33.762,123.64-50.642c0.55,0.221,1.09,0.45,1.64,0.67
		c0.632,0.261,1.262,0.521,1.892,0.78c0.188,0.08,0.358,0.12,0.52,0.12c-0.81,0.32-1.608,0.65-2.42,0.979
		c-24.66,10.101-49.32,20.2-73.979,30.311c-12.9,5.28-25.79,10.56-38.69,15.84c-3.479,1.43-6.97,2.86-10.46,4.29
		c-1.15,0.47-2.02,1.05-3.24,0.55c-0.09-0.04-0.188-0.08-0.278-0.12L1151.46,438.19z"/>
	<path fill="#E9202B" d="M1098.3,416.11c13.221,5.408,26.432,10.818,39.65,16.238c3.8,1.562,7.609,3.11,11.41,4.67
		c0.77,0.32,1.54,0.632,2.31,0.94c-0.28,0.14-0.29,0.2-0.21,0.23l-1.02,2.488c-42.07-17.229-84.142-34.46-126.21-51.688l0.108-0.28
		c1.181-0.479,2.36-0.97,3.54-1.45C1051.35,396.88,1074.83,406.49,1098.3,416.11z"/>
	<path fill="#E9202B" d="M1100.229,354.41c12.891-5.29,25.789-10.57,38.689-15.851c3.48-1.43,6.97-2.859,10.45-4.279
		c1.16-0.48,2.03-1.061,3.25-0.561c0.09,0.04,0.188,0.08,0.28,0.12l-1.021,2.49c-0.149-0.04-0.63,0.05-0.39,0.15
		c0.06,0.02,0.12,0.05,0.18,0.079c-0.04,0.021-0.09,0.04-0.15,0.061c-41.22,16.88-82.42,33.75-123.64,50.64
		c-0.55-0.22-1.09-0.45-1.64-0.67c-0.63-0.26-1.261-0.52-1.9-0.78c0,0.971,0,1.931,0,2.9l-0.109,0.28
		c-0.229-0.09-0.45-0.19-0.681-0.28c-1.42-0.59-1.42-2.31,0-2.9c0.9-0.359,1.8-0.729,2.7-1.1
		C1050.91,374.61,1075.57,364.51,1100.229,354.41z"/>
</g>
</svg>
