<?xml version="1.0" encoding="utf-8"?>
<!-- Generator: Adobe Illustrator 16.0.3, SVG Export Plug-In . SVG Version: 6.00 Build 0)  -->
<!DOCTYPE svg PUBLIC "-//W3C//DTD SVG 1.1//EN" "http://www.w3.org/Graphics/SVG/1.1/DTD/svg11.dtd">
<svg version="1.1" id="Layer_1" xmlns="http://www.w3.org/2000/svg" xmlns:xlink="http://www.w3.org/1999/xlink" x="0px" y="0px"
	 width="1280px" height="800px" viewBox="0 0 1280 800" enable-background="new 0 0 1280 800" xml:space="preserve">
<path opacity="0.4" fill="#E9202B" d="M509.432,101.5c-41.21,16.892-82.42,33.76-123.629,50.642c-0.06,0.02-0.11,0.04-0.15,0.06
	c-0.771-0.31-1.54-0.62-2.311-0.939c-3.8-1.561-7.61-3.109-11.41-4.671c-13.22-5.42-26.44-10.829-39.65-16.238
	c-23.47-9.62-46.95-19.23-70.42-28.852c41.21-16.89,82.42-33.76,123.63-50.64c0.06-0.03,0.12-0.05,0.16-0.07
	c0.76,0.32,1.53,0.63,2.3,0.95c3.81,1.56,7.61,3.12,11.42,4.67c13.21,5.42,26.43,10.83,39.65,16.25
	C462.492,82.271,485.962,91.88,509.432,101.5z M474.992,101.5c0-0.06,0-0.109-0.01-0.16c-0.03-0.739-0.511-1.43-1.271-1.409
	c-22.86-9.36-45.72-18.721-68.59-28.091c-5.08-2.08-10.16-4.159-15.25-6.239c-1.28-0.53-3.49-2.03-4.94-1.44
	c-9.57,3.92-19.14,7.84-28.71,11.76c-19.64,8.04-39.28,16.09-58.92,24.13c-1.42,0.591-1.42,2.311,0,2.9
	c0.23,0.09,0.46,0.19,0.69,0.28c22.73,9.31,45.46,18.608,68.18,27.93c5.08,2.08,10.17,4.16,15.25,6.24
	c1.28,0.53,3.5,2.03,4.94,1.438c0.15-0.06,0.29-0.118,0.44-0.18c9.42-3.86,18.85-7.72,28.27-11.58c19.55-8,39.09-16.01,58.64-24.01
	c0.76,0.02,1.24-0.67,1.271-1.41C474.992,101.61,474.992,101.561,474.992,101.5z"/>
<path opacity="0.4" d="M434.752,101.34c-12.73,5.21-25.47,10.431-38.2,15.65c-2.97,1.21-5.94,2.43-8.91,3.65
	c-0.66,0.27-1.32,0.54-1.98,0.81c-0.02,0.01-0.03,0.01-0.04,0.021c-0.05-0.03-0.12-0.07-0.22-0.11c-6.02-2.46-12.03-4.93-18.05-7.39
	c-10.27-4.21-20.56-8.421-30.84-12.631c12.73-5.21,25.47-10.43,38.2-15.649c2.98-1.21,5.95-2.43,8.92-3.65
	c0.66-0.27,1.31-0.54,1.97-0.81c0.01-0.01,0.03-0.01,0.04-0.021c0.05,0.03,0.12,0.07,0.22,0.11c6.02,2.46,12.04,4.93,18.05,7.39
	C414.192,92.92,424.472,97.13,434.752,101.34z"/>
<path opacity="0.4" d="M514.752,101.34c0.01,0.051,0.021,0.11,0.01,0.16C514.762,101.45,514.752,101.4,514.752,101.34z"/>
<path opacity="0.4" d="M514.762,101.5c0.011,0.061,0,0.11-0.01,0.16C514.752,101.61,514.762,101.55,514.762,101.5z"/>
<path opacity="0.4" d="M514.752,101.34c-0.07-0.52-0.38-1.04-0.979-1.279c-0.101-0.04-0.2-0.08-0.301-0.12
	C514.242,99.9,514.722,100.59,514.752,101.34z"/>
<path opacity="0.4" d="M513.772,102.95c0.6-0.25,0.909-0.76,0.979-1.29c-0.02,0.74-0.5,1.42-1.26,1.41
	C513.582,103.03,513.682,102.99,513.772,102.95z"/>
<path opacity="0.4" d="M513.772,100.061c0.6,0.239,0.909,0.76,0.979,1.279c0,0.061,0.01,0.11,0.01,0.16s-0.01,0.11-0.01,0.16
	c-0.07,0.53-0.38,1.04-0.979,1.29c-0.091,0.04-0.19,0.08-0.28,0.12c-0.16,0-0.33-0.04-0.521-0.12c-0.63-0.26-1.27-0.52-1.899-0.78
	c-0.55-0.22-1.09-0.449-1.641-0.67c1.181-0.479,2.36-0.97,3.54-1.45c0.181-0.069,0.351-0.109,0.5-0.109
	C513.572,99.98,513.672,100.021,513.772,100.061z"/>
<path opacity="0.4" fill="#231F20" d="M474.982,101.34c0.01,0.051,0.01,0.101,0.01,0.16
	C474.992,101.45,474.982,101.4,474.982,101.34z"/>
<path opacity="0.4" fill="#231F20" d="M474.992,101.5c0,0.061,0,0.11-0.01,0.16C474.982,101.601,474.992,101.55,474.992,101.5z"/>
<path opacity="0.4" fill="#231F20" d="M474.982,101.34c-0.07-0.52-0.381-1.04-0.99-1.29c-0.09-0.04-0.19-0.079-0.28-0.119
	C474.472,99.91,474.952,100.601,474.982,101.34z"/>
<path opacity="0.4" fill="#231F20" d="M473.992,102.95c0.609-0.25,0.92-0.77,0.99-1.29c-0.03,0.74-0.511,1.43-1.271,1.41
	C473.802,103.03,473.902,102.99,473.992,102.95z"/>
<path opacity="0.4" fill="#231F20" d="M473.992,100.05c0.609,0.25,0.92,0.771,0.99,1.29c0,0.061,0.01,0.11,0.01,0.16
	s-0.01,0.101-0.01,0.16c-0.07,0.521-0.381,1.04-0.99,1.29c-0.09,0.04-0.19,0.08-0.28,0.12c-0.16-0.01-0.33-0.05-0.51-0.12
	c-1.18-0.479-2.36-0.97-3.54-1.45c1.18-0.479,2.36-0.97,3.54-1.45c0.18-0.069,0.35-0.109,0.51-0.119
	C473.802,99.971,473.902,100.01,473.992,100.05z"/>
<path opacity="0.4" fill="#231F20" d="M437.122,100.431c0.47-0.011,0.76,0.449,0.74,0.909c-0.011-0.34-0.19-0.68-0.58-0.84
	C437.232,100.48,437.172,100.46,437.122,100.431z"/>
<path opacity="0.4" fill="#231F20" d="M437.862,101.34c0.02,0.48-0.28,0.94-0.761,0.91c0.061-0.02,0.12-0.05,0.181-0.069
	C437.672,102.021,437.852,101.681,437.862,101.34z"/>
<path opacity="0.4" fill="#231F20" d="M436.813,102.19c-0.69-0.28-1.37-0.561-2.061-0.851c0.69-0.279,1.37-0.56,2.061-0.84
	c0.109-0.05,0.22-0.069,0.31-0.069c0.05,0.029,0.11,0.05,0.16,0.069c0.39,0.16,0.569,0.5,0.58,0.84
	c-0.011,0.341-0.19,0.681-0.58,0.841c-0.061,0.02-0.12,0.05-0.181,0.069C437.012,102.25,436.912,102.23,436.813,102.19z"/>
<path opacity="0.4" d="M385.852,50.57c0.08,0.03,0.07,0.09-0.2,0.22c-0.061-0.02-0.12-0.05-0.18-0.069
	C385.232,50.62,385.702,50.53,385.852,50.57z"/>
<path opacity="0.4" d="M385.832,152.28c0.23,0.1-0.24,0.19-0.39,0.15c-0.08-0.03-0.07-0.092,0.21-0.23
	C385.712,152.23,385.772,152.26,385.832,152.28z"/>
<path opacity="0.4" fill="#231F20" d="M385.632,135.92c0.21,0.13,0.21,0.2,0.14,0.23c-0.13,0.05-0.51-0.04-0.15-0.23
	C385.622,135.92,385.622,135.92,385.632,135.92z"/>
<path opacity="0.4" fill="#231F20" d="M385.622,121.471C385.972,121.681,385.302,121.62,385.622,121.471L385.622,121.471z"/>
<path opacity="0.4" fill="#231F20" d="M385.642,81.21C385.282,81,385.982,81.05,385.642,81.21L385.642,81.21z"/>
<path opacity="0.4" fill="#231F20" d="M385.662,67.08c-0.61-0.37,0.56-0.28,0.01,0C385.672,67.07,385.672,67.07,385.662,67.08z"/>
<path opacity="0.4" fill="#231F20" d="M436.813,100.5c-0.69,0.28-1.37,0.561-2.061,0.84c-10.28-4.21-20.56-8.42-30.84-12.63
	c-6.01-2.46-12.03-4.93-18.05-7.39c-0.1-0.04-0.17-0.08-0.22-0.11c0.34-0.16-0.36-0.21,0,0c-0.01,0.011-0.03,0.011-0.04,0.021
	c-0.66,0.27-1.31,0.54-1.97,0.81c-2.97,1.22-5.94,2.44-8.92,3.65c-12.73,5.22-25.47,10.439-38.2,15.649
	c-0.69-0.29-1.37-0.569-2.06-0.85l-0.06-0.15c11.35-4.659,22.69-9.3,34.04-13.949c5.6-2.301,11.19-4.591,16.79-6.881
	c0.84-0.35,2.14,0.54,2.88,0.841c2.97,1.22,5.94,2.439,8.92,3.649c13.37,5.48,26.73,10.96,40.1,16.43
	C437.032,100.431,436.922,100.45,436.813,100.5z"/>
<path opacity="0.4" fill="#231F20" d="M334.452,100.49c0.69,0.28,1.37,0.56,2.06,0.85c-0.69,0.28-1.37,0.561-2.06,0.841
	C334.452,101.62,334.452,101.061,334.452,100.49z"/>
<path opacity="0.4" fill="#231F20" d="M396.552,116.99c12.73-5.22,25.47-10.44,38.2-15.65c0.69,0.29,1.37,0.57,2.061,0.851
	c0.1,0.04,0.199,0.06,0.289,0.06c-11.42,4.69-22.85,9.36-34.27,14.04c-5.59,2.3-11.19,4.59-16.78,6.88
	c-0.84,0.352-2.14-0.54-2.89-0.84c-2.97-1.22-5.94-2.438-8.91-3.648c-13.42-5.5-26.84-11-40.26-16.49c-0.83-0.34-0.83-1.351,0-1.69
	c0.13-0.05,0.27-0.109,0.4-0.16l0.06,0.15c0,0.57,0,1.13,0,1.69c0.69-0.28,1.37-0.561,2.06-0.841
	c10.28,4.21,20.57,8.421,30.84,12.631c6.02,2.46,12.03,4.93,18.05,7.39c0.1,0.04,0.17,0.08,0.22,0.11c-0.32,0.148,0.35,0.21,0,0
	c0.01-0.012,0.02-0.012,0.04-0.021c0.66-0.27,1.32-0.54,1.98-0.81C390.612,119.42,393.582,118.2,396.552,116.99z"/>
<path opacity="0.4" fill="#231F20" d="M298.102,102.95c0-0.97,0-1.93,0-2.9c1.18,0.48,2.36,0.971,3.54,1.45
	C300.462,101.98,299.282,102.471,298.102,102.95z"/>
<g opacity="0.4">
	<path fill="#E9202B" d="M386.802,138.66c-0.15,0.062-0.29,0.12-0.44,0.18c-1.44,0.592-3.66-0.908-4.94-1.438
		c-5.08-2.08-10.17-4.16-15.25-6.24c-22.72-9.32-45.45-18.62-68.18-27.93l0.11-0.28c1.18-0.479,2.36-0.97,3.54-1.45
		c17.58,7.21,35.16,14.4,52.74,21.61c10.29,4.21,20.58,8.43,30.87,12.64c0.16,0.07,0.28,0.13,0.37,0.17
		c-0.36,0.19,0.02,0.28,0.15,0.23L386.802,138.66z"/>
	<g>
		<path fill="#E9202B" d="M404.322,128.271c21.779-8.932,43.56-17.84,65.34-26.771c1.18,0.48,2.36,0.97,3.54,1.45
			c0.18,0.07,0.35,0.11,0.51,0.12c-19.55,8-39.09,16.01-58.64,24.01c-9.42,3.86-18.85,7.72-28.27,11.58l-1.03-2.51
			c0.07-0.03,0.07-0.102-0.14-0.23c0.021-0.01,0.04-0.02,0.07-0.028c1.12-0.46,2.25-0.92,3.38-1.382
			C394.162,132.431,399.242,130.351,404.322,128.271z"/>
		<path fill="#E9202B" d="M405.122,71.84c22.87,9.37,45.729,18.73,68.59,28.091c-0.16,0.01-0.33,0.05-0.51,0.119
			c-1.18,0.48-2.36,0.971-3.54,1.45c-17.58-7.21-35.17-14.399-52.75-21.609c-10.29-4.21-20.58-8.431-30.87-12.641
			c-0.16-0.069-0.28-0.13-0.37-0.17c0.55-0.28-0.62-0.37-0.01,0c-0.02,0.01-0.04,0.021-0.07,0.03c-1.12,0.46-2.25,0.92-3.37,1.38
			c-5.09,2.08-10.17,4.16-15.25,6.25c-21.78,8.92-43.55,17.83-65.33,26.76c-1.18-0.479-2.36-0.97-3.54-1.45c0,0.971,0,1.931,0,2.9
			l-0.11,0.28c-0.23-0.09-0.46-0.19-0.69-0.28c-1.42-0.59-1.42-2.31,0-2.9c19.64-8.04,39.28-16.09,58.92-24.13
			c9.57-3.92,19.14-7.84,28.71-11.76c1.45-0.59,3.66,0.91,4.94,1.44C394.962,67.681,400.042,69.76,405.122,71.84z"/>
	</g>
</g>
<path opacity="0.4" d="M260.222,100.83c0.55,0.22,1.09,0.45,1.64,0.67c-1.18,0.48-2.36,0.971-3.54,1.45c0-0.97,0-1.93,0-2.9
	C258.962,100.311,259.592,100.57,260.222,100.83z"/>
<g opacity="0.4">
	<path fill="#E9202B" d="M386.872,48.07c42.2,17.29,84.4,34.57,126.6,51.87c-0.149,0-0.319,0.04-0.5,0.109
		c-1.18,0.48-2.359,0.971-3.54,1.45c-23.47-9.62-46.939-19.229-70.409-28.84c-13.221-5.42-26.44-10.83-39.65-16.25
		c-3.81-1.55-7.61-3.11-11.42-4.67c-0.77-0.32-1.54-0.63-2.3-0.95c0.27-0.13,0.28-0.189,0.2-0.22L386.872,48.07z"/>
	<path fill="#E9202B" d="M437.092,134.36c-12.899,5.28-25.79,10.56-38.689,15.84c-3.49,1.43-6.97,2.86-10.46,4.29
		c-1.16,0.47-2.03,1.05-3.24,0.55c-0.09-0.04-0.19-0.08-0.28-0.12l1.02-2.488c0.15,0.04,0.62-0.052,0.39-0.15
		c-0.06-0.021-0.12-0.05-0.18-0.08c0.04-0.02,0.09-0.04,0.15-0.06c41.209-16.882,82.419-33.75,123.629-50.642
		c0.551,0.221,1.091,0.45,1.641,0.67c0.63,0.261,1.27,0.521,1.899,0.78c0.19,0.08,0.36,0.12,0.521,0.12
		c-0.811,0.33-1.62,0.66-2.43,0.99C486.412,114.16,461.752,124.26,437.092,134.36z"/>
	<path fill="#E9202B" d="M386.602,47.96c0.09,0.04,0.18,0.07,0.27,0.11l-1.02,2.5c-0.15-0.04-0.62,0.05-0.38,0.15
		c0.06,0.02,0.12,0.05,0.18,0.069c-0.04,0.021-0.1,0.04-0.16,0.07c-41.21,16.88-82.42,33.75-123.63,50.64
		c-0.55-0.22-1.09-0.45-1.64-0.67c-0.63-0.26-1.26-0.52-1.9-0.78l-0.11-0.27c0.67-0.28,1.35-0.55,2.02-0.83
		c24.66-10.1,49.32-20.2,73.97-30.3c12.9-5.29,25.8-10.57,38.69-15.851c3.49-1.43,6.98-2.859,10.46-4.279
		C384.512,48.04,385.382,47.471,386.602,47.96z"/>
	<path fill="#E9202B" d="M384.422,154.92c-42.3-17.33-84.6-34.648-126.89-51.97c-1.43-0.58-1.43-2.31,0-2.89
		c0.23-0.09,0.45-0.19,0.68-0.28l0.11,0.27c0,0.971,0,1.931,0,2.9c1.18-0.48,2.36-0.97,3.54-1.45
		c23.47,9.62,46.95,19.23,70.42,28.852c13.21,5.408,26.43,10.818,39.65,16.238c3.8,1.562,7.61,3.11,11.41,4.67
		c0.771,0.32,1.54,0.632,2.31,0.94c-0.28,0.14-0.29,0.2-0.21,0.23L384.422,154.92z"/>
</g>
<path opacity="0.4" fill="#E9202B" d="M766.272,101.5c-41.21,16.88-82.432,33.76-123.642,50.642c-0.06,0.02-0.108,0.04-0.148,0.06
	c-0.771-0.31-1.541-0.62-2.312-0.939c-3.8-1.561-7.609-3.109-11.41-4.671c-13.22-5.42-26.43-10.829-39.649-16.238
	c-23.47-9.62-46.95-19.23-70.42-28.852c41.21-16.88,82.43-33.76,123.64-50.64c0.061-0.021,0.11-0.04,0.15-0.061
	c0.77,0.311,1.528,0.62,2.3,0.94c3.81,1.56,7.609,3.12,11.42,4.67c13.21,5.42,26.43,10.83,39.65,16.25
	C719.322,82.271,742.802,91.88,766.272,101.5z M731.822,101.5c0.01-0.05,0-0.109-0.01-0.16c-0.03-0.75-0.512-1.439-1.28-1.399
	c-22.86-9.37-45.72-18.73-68.58-28.101c-5.08-2.08-10.16-4.159-15.24-6.239c-1.28-0.53-3.5-2.03-4.95-1.44
	c-0.149,0.061-0.29,0.12-0.439,0.18c-9.41,3.86-18.84,7.721-28.26,11.58c-19.41,7.95-38.83,15.9-58.24,23.86
	c-0.23,0.09-0.46,0.19-0.69,0.28c-1.42,0.58-1.42,2.31,0,2.89c22.96,9.4,45.92,18.81,68.88,28.21c5.08,2.08,10.16,4.16,15.24,6.24
	c1.28,0.53,3.5,2.04,4.94,1.438c9.568-3.92,19.14-7.84,28.71-11.76c19.55-8,39.09-16.01,58.648-24.01
	c0.762,0.01,1.24-0.67,1.262-1.41C731.822,101.61,731.832,101.561,731.822,101.5z"/>
<path opacity="0.4" d="M660.742,88.01c10.28,4.211,20.57,8.421,30.84,12.631c-12.729,5.21-25.47,10.42-38.2,15.64
	c-2.97,1.22-5.938,2.43-8.91,3.65c-0.658,0.27-1.318,0.54-1.979,0.81c-0.021,0.01-0.04,0.02-0.05,0.02
	c-0.051-0.028-0.12-0.06-0.21-0.1c-6.011-2.47-12.03-4.93-18.05-7.39c-10.271-4.221-20.561-8.431-30.83-12.63
	c12.729-5.221,25.47-10.431,38.199-15.65c2.971-1.22,5.94-2.43,8.91-3.65c0.66-0.27,1.311-0.54,1.97-0.81
	c0.021-0.01,0.04-0.021,0.052-0.03c0.05,0.03,0.12,0.07,0.22,0.11C648.712,83.08,654.732,85.54,660.742,88.01z"/>
<path opacity="0.4" d="M771.592,101.34c0.012,0.051,0.012,0.11,0.012,0.16C771.602,101.45,771.592,101.4,771.592,101.34z"/>
<path opacity="0.4" d="M771.602,101.5c0,0.061,0,0.11-0.011,0.16C771.592,101.61,771.602,101.55,771.602,101.5z"/>
<path opacity="0.4" d="M771.592,101.34c-0.068-0.52-0.38-1.04-0.988-1.279c-0.102-0.04-0.2-0.08-0.302-0.12
	C771.072,99.9,771.563,100.59,771.592,101.34z"/>
<path opacity="0.4" d="M770.602,102.95c0.609-0.25,0.921-0.76,0.989-1.29c-0.028,0.74-0.51,1.42-1.27,1.41
	C770.412,103.03,770.512,102.99,770.602,102.95z"/>
<path opacity="0.4" d="M766.272,101.5c1.18-0.49,2.35-0.97,3.528-1.45c0.182-0.069,0.352-0.109,0.5-0.109
	c0.102,0.04,0.2,0.08,0.302,0.12c0.608,0.239,0.92,0.76,0.988,1.279c0,0.061,0.012,0.11,0.012,0.16s-0.012,0.11-0.012,0.16
	c-0.068,0.53-0.38,1.04-0.988,1.29c-0.092,0.04-0.19,0.08-0.28,0.12c-0.16,0-0.33-0.04-0.521-0.12c-0.63-0.26-1.26-0.52-1.89-0.78
	C767.362,101.95,766.822,101.721,766.272,101.5z"/>
<path opacity="0.4" fill="#231F20" d="M731.813,101.34c0.01,0.051,0.02,0.11,0.01,0.16C731.822,101.45,731.813,101.4,731.813,101.34
	z"/>
<path opacity="0.4" fill="#231F20" d="M731.822,101.5c0.01,0.061,0,0.11-0.01,0.16C731.813,101.61,731.822,101.55,731.822,101.5z"/>
<path opacity="0.4" fill="#231F20" d="M731.813,101.34c-0.07-0.52-0.382-1.04-0.98-1.279c-0.1-0.04-0.2-0.08-0.3-0.12
	C731.302,99.9,731.782,100.59,731.813,101.34z"/>
<path opacity="0.4" fill="#231F20" d="M730.832,102.95c0.6-0.25,0.91-0.76,0.98-1.29c-0.021,0.74-0.5,1.42-1.262,1.41
	C730.643,103.03,730.742,102.99,730.832,102.95z"/>
<path opacity="0.4" fill="#231F20" d="M730.832,100.061c0.6,0.239,0.91,0.76,0.98,1.279c0,0.061,0.01,0.11,0.01,0.16
	s-0.01,0.11-0.01,0.16c-0.07,0.53-0.382,1.04-0.98,1.29c-0.09,0.04-0.189,0.08-0.28,0.12c-0.159,0-0.33-0.04-0.52-0.12
	c-1.181-0.479-2.36-0.97-3.54-1.45c1.18-0.479,2.359-0.97,3.54-1.45c0.18-0.069,0.35-0.109,0.5-0.109
	C730.632,99.98,730.732,100.021,730.832,100.061z"/>
<path opacity="0.4" fill="#231F20" d="M693.952,99.721c0.47-0.011,0.76,0.449,0.74,0.92c-0.012-0.341-0.182-0.681-0.58-0.851
	C694.063,99.771,694.002,99.75,693.952,99.721z"/>
<path opacity="0.4" fill="#231F20" d="M694.112,101.48c0.38-0.16,0.56-0.48,0.58-0.811c0,0.46-0.28,0.891-0.74,0.88
	C694.002,101.521,694.063,101.5,694.112,101.48z"/>
<path opacity="0.4" fill="#231F20" d="M694.112,99.79c0.398,0.17,0.568,0.51,0.58,0.851c0,0.01,0,0.02,0,0.029
	c-0.021,0.33-0.2,0.65-0.58,0.811c-0.05,0.02-0.11,0.04-0.16,0.069c-0.09,0-0.2-0.02-0.312-0.069c-0.688-0.28-1.368-0.561-2.06-0.84
	c0.69-0.29,1.37-0.57,2.06-0.851c0.11-0.05,0.222-0.069,0.312-0.069C694.002,99.75,694.063,99.771,694.112,99.79z"/>
<path opacity="0.4" d="M642.692,50.57c0.08,0.03,0.068,0.09-0.21,0.229c-0.062-0.029-0.12-0.06-0.181-0.079
	C642.063,50.62,642.542,50.53,642.692,50.57z"/>
<path opacity="0.4" d="M642.662,152.28c0.24,0.1-0.24,0.19-0.39,0.15c-0.08-0.03-0.07-0.092,0.21-0.23
	C642.542,152.23,642.602,152.26,642.662,152.28z"/>
<path opacity="0.4" fill="#231F20" d="M642.462,135.92c0.61,0.37-0.55,0.29-0.01,0C642.452,135.92,642.452,135.92,642.462,135.92z"
	/>
<path opacity="0.4" fill="#231F20" d="M642.482,80.5C642.122,80.3,642.792,80.351,642.482,80.5L642.482,80.5z"/>
<path opacity="0.4" fill="#231F20" d="M642.442,120.76C642.822,120.971,642.143,120.92,642.442,120.76L642.442,120.76z"/>
<path opacity="0.4" fill="#231F20" d="M642.502,67.08c-0.21-0.13-0.21-0.2-0.15-0.229c0.131-0.061,0.521,0.04,0.16,0.229
	C642.502,67.07,642.502,67.08,642.502,67.08z"/>
<path opacity="0.4" fill="#231F20" d="M624.182,113.271c6.021,2.46,12.04,4.92,18.051,7.39c0.09,0.04,0.159,0.07,0.21,0.1
	c-0.3,0.16,0.38,0.212,0,0c0.01,0,0.028-0.01,0.05-0.02c0.66-0.27,1.32-0.54,1.979-0.81c2.972-1.222,5.94-2.432,8.91-3.65
	c12.73-5.22,25.471-10.43,38.2-15.64c0.69,0.279,1.37,0.56,2.06,0.84c0.11,0.05,0.222,0.069,0.312,0.069
	c-11.43,4.671-22.851,9.36-34.29,14.04c-5.59,2.29-11.18,4.58-16.78,6.87c-0.84,0.352-2.14-0.528-2.89-0.84
	c-2.97-1.22-5.94-2.43-8.91-3.648c-13.29-5.451-26.57-10.881-39.86-16.331l0.07-0.16c0.69-0.28,1.37-0.561,2.06-0.84
	C603.622,104.84,613.912,109.05,624.182,113.271z"/>
<path opacity="0.4" fill="#231F20" d="M591.292,101.48c0-0.561,0-1.13,0-1.69c0.69,0.28,1.37,0.561,2.06,0.851
	C592.662,100.92,591.982,101.2,591.292,101.48z"/>
<path opacity="0.4" fill="#231F20" d="M642.052,78.811c0.839-0.351,2.141,0.529,2.891,0.84c2.97,1.21,5.938,2.43,8.909,3.649
	c13.369,5.48,26.729,10.95,40.101,16.421c-0.09,0-0.2,0.02-0.312,0.069c-0.688,0.28-1.368,0.561-2.06,0.851
	c-10.271-4.21-20.56-8.42-30.84-12.631c-6.01-2.47-12.03-4.93-18.04-7.399c-0.1-0.04-0.17-0.08-0.22-0.11c0.31-0.149-0.36-0.2,0,0
	c-0.012,0.011-0.03,0.021-0.052,0.03c-0.659,0.27-1.31,0.54-1.97,0.81c-2.97,1.221-5.939,2.431-8.91,3.65
	c-12.729,5.22-25.47,10.43-38.2,15.65c-0.689-0.29-1.369-0.57-2.06-0.851c0,0.561,0,1.13,0,1.69l-0.07,0.16
	c-0.13-0.051-0.27-0.11-0.399-0.16c-0.83-0.34-0.83-1.351,0-1.69c11.479-4.7,22.96-9.41,34.45-14.109
	C630.862,83.391,636.452,81.101,642.052,78.811z"/>
<path opacity="0.4" fill="#231F20" d="M558.472,101.5c-1.18,0.48-2.359,0.971-3.54,1.45c0-0.97,0-1.93,0-2.9
	C556.112,100.53,557.292,101.021,558.472,101.5z"/>
<g opacity="0.4">
	<path fill="#E9202B" d="M642.512,67.08c0.36-0.189-0.028-0.29-0.159-0.229l-1.03-2.511c0.149-0.06,0.29-0.119,0.439-0.18
		c1.45-0.59,3.669,0.91,4.95,1.44c5.08,2.08,10.16,4.159,15.24,6.239c22.86,9.37,45.72,18.73,68.58,28.101
		c-0.15,0-0.32,0.04-0.5,0.109c-1.18,0.48-2.36,0.971-3.54,1.45c-17.58-7.21-35.16-14.399-52.74-21.6
		c-10.29-4.22-20.58-8.44-30.88-12.65C642.712,67.181,642.592,67.12,642.512,67.08z"/>
	<path fill="#E9202B" d="M642.352,66.851c-0.06,0.029-0.06,0.1,0.15,0.229c-0.02,0.01-0.04,0.021-0.07,0.03
		c-1.129,0.46-2.26,0.92-3.379,1.38c-5.08,2.08-10.17,4.16-15.25,6.25c-21.779,8.92-43.55,17.83-65.33,26.76
		c-1.18-0.479-2.359-0.97-3.54-1.45l-0.109-0.27c19.41-7.96,38.83-15.91,58.24-23.86c9.42-3.859,18.85-7.72,28.26-11.58
		L642.352,66.851z"/>
	<path fill="#E9202B" d="M611.212,123.11c10.29,4.21,20.58,8.43,30.87,12.64c0.16,0.07,0.28,0.13,0.37,0.17
		c-0.54,0.29,0.62,0.37,0.01,0c0.021-0.01,0.04-0.02,0.07-0.028c1.13-0.46,2.25-0.92,3.38-1.382c5.08-2.078,10.16-4.158,15.24-6.238
		c21.778-8.932,43.56-17.84,65.34-26.771c1.18,0.48,2.359,0.971,3.54,1.45c0.188,0.08,0.358,0.12,0.52,0.12
		c-19.56,8-39.1,16.01-58.648,24.01c-9.57,3.92-19.142,7.84-28.71,11.76c-1.44,0.602-3.66-0.908-4.94-1.438
		c-5.08-2.08-10.16-4.16-15.24-6.24c-22.96-9.399-45.92-18.81-68.88-28.21c-1.42-0.58-1.42-2.31,0-2.89
		c0.23-0.09,0.46-0.19,0.69-0.28l0.109,0.27c0,0.971,0,1.931,0,2.9c1.181-0.479,2.36-0.97,3.54-1.45
		C576.052,108.71,593.632,115.9,611.212,123.11z"/>
</g>
<path opacity="0.4" d="M517.052,100.83c0.55,0.22,1.091,0.45,1.641,0.67c-1.181,0.49-2.351,0.971-3.53,1.45c0-0.97,0-1.93,0-2.9
	C515.792,100.311,516.422,100.57,517.052,100.83z"/>
<g opacity="0.4">
	<path fill="#E9202B" d="M642.482,50.8c0.278-0.14,0.29-0.199,0.21-0.229l1.02-2.49c42.2,17.29,84.392,34.57,126.59,51.86
		c-0.148,0-0.318,0.04-0.5,0.109c-1.18,0.48-2.35,0.96-3.528,1.45c-23.472-9.62-46.95-19.229-70.42-28.84
		c-13.222-5.42-26.44-10.83-39.65-16.25c-3.811-1.55-7.61-3.11-11.42-4.67C644.012,51.42,643.252,51.11,642.482,50.8z"/>
	<path fill="#E9202B" d="M642.272,152.431c0.149,0.04,0.63-0.052,0.39-0.15c-0.06-0.021-0.12-0.05-0.18-0.08
		c0.04-0.02,0.09-0.04,0.148-0.06c41.211-16.881,82.432-33.761,123.642-50.641c0.55,0.221,1.09,0.45,1.64,0.67
		c0.63,0.261,1.26,0.521,1.89,0.78c0.19,0.08,0.36,0.12,0.521,0.12c-0.812,0.33-1.61,0.66-2.42,0.99
		c-24.66,10.1-49.32,20.199-73.98,30.3c-12.89,5.28-25.79,10.56-38.688,15.84c-3.48,1.43-6.972,2.86-10.46,4.29
		c-1.15,0.47-2.021,1.05-3.24,0.55c-0.09-0.04-0.19-0.08-0.28-0.12L642.272,152.431z"/>
	<path fill="#E9202B" d="M642.692,50.57c-0.15-0.04-0.63,0.05-0.391,0.15c0.061,0.02,0.12,0.05,0.181,0.079
		c-0.04,0.021-0.092,0.04-0.15,0.061c-41.21,16.88-82.43,33.76-123.64,50.64c-0.551-0.22-1.091-0.45-1.641-0.67
		c-0.63-0.26-1.26-0.52-1.89-0.78l-0.11-0.27c0.67-0.28,1.34-0.55,2.011-0.83c24.659-10.1,49.319-20.2,73.979-30.3
		c12.89-5.29,25.79-10.57,38.69-15.851c3.479-1.43,6.97-2.859,10.449-4.279c1.16-0.48,2.03-1.05,3.25-0.561
		c0.092,0.04,0.19,0.08,0.28,0.12L642.692,50.57z"/>
	<path fill="#E9202B" d="M642.482,152.2c-0.28,0.14-0.291,0.2-0.21,0.23l-1.021,2.488c-42.3-17.33-84.59-34.648-126.89-51.97
		c-1.42-0.58-1.42-2.31,0-2.89c0.229-0.091,0.46-0.19,0.689-0.28l0.11,0.27c0,0.971,0,1.931,0,2.9c1.18-0.48,2.35-0.96,3.53-1.45
		c23.47,9.62,46.949,19.23,70.42,28.852c13.22,5.408,26.43,10.818,39.649,16.238c3.801,1.562,7.61,3.11,11.41,4.67
		C640.942,151.58,641.712,151.891,642.482,152.2z"/>
</g>
<path opacity="0.4" fill="#E9202B" d="M42.542,103.23c22.73,9.31,45.46,18.608,68.19,27.93c5.08,2.08,10.16,4.16,15.24,6.24
	c1.28,0.53,3.5,2.03,4.94,1.438c0.15-0.06,0.29-0.118,0.44-0.18c9.42-3.86,18.85-7.72,28.27-11.58c19.55-8,39.1-16.01,58.65-24.01
	c0.76,0.01,1.24-0.67,1.26-1.41c0.01-0.04,0.01-0.08,0.01-0.11c0-0.02,0-0.029,0-0.05c0.01-0.05,0-0.109-0.01-0.16
	c-0.02-0.739-0.5-1.42-1.26-1.409c-22.87-9.36-45.73-18.721-68.6-28.091c-5.08-2.08-10.16-4.159-15.24-6.239
	c-1.28-0.53-3.5-2.03-4.94-1.44c-9.57,3.92-19.14,7.84-28.71,11.76c-19.64,8.04-39.28,16.09-58.93,24.13
	c-1.42,0.591-1.42,2.311,0,2.9C42.082,103.04,42.312,103.141,42.542,103.23z M127.892,151.26c-3.8-1.56-7.6-3.108-11.41-4.67
	c-13.22-5.42-26.43-10.83-39.65-16.238c-23.47-9.62-46.95-19.23-70.42-28.852c41.21-16.88,82.43-33.76,123.64-50.64
	c0.06-0.021,0.11-0.04,0.15-0.061c0.77,0.311,1.54,0.62,2.31,0.94c3.8,1.56,7.61,3.12,11.41,4.67
	c13.22,5.42,26.43,10.83,39.65,16.25c23.47,9.61,46.95,19.22,70.42,28.84c-41.21,16.88-82.43,33.76-123.64,50.642
	c-0.06,0.02-0.11,0.04-0.15,0.06C129.432,151.891,128.662,151.58,127.892,151.26z"/>
<path opacity="0.4" fill="#231F20" d="M179.502,102.95c-12.73,5.21-25.47,10.43-38.2,15.65c-2.97,1.21-5.94,2.43-8.91,3.648
	c-0.66,0.271-1.32,0.53-1.98,0.8c-0.02,0.012-0.04,0.021-0.05,0.021c-0.05-0.03-0.12-0.062-0.21-0.101
	c-6.02-2.461-12.03-4.931-18.05-7.391c-10.27-4.21-20.55-8.41-30.83-12.63c12.73-5.22,25.46-10.43,38.19-15.65
	c2.97-1.21,5.94-2.43,8.92-3.649c0.65-0.271,1.31-0.54,1.97-0.811c0.01-0.01,0.03-0.01,0.04-0.02c0.05,0.03,0.12,0.07,0.22,0.11
	c6.02,2.46,12.03,4.93,18.05,7.39C158.942,94.53,169.222,98.74,179.502,102.95z"/>
<path opacity="0.4" fill="#231F20" d="M258.042,103.07c0.09-0.04,0.19-0.08,0.28-0.12c0.61-0.25,0.92-0.76,0.99-1.29
	C259.282,102.4,258.802,103.08,258.042,103.07z"/>
<path opacity="0.4" fill="#231F20" d="M257.522,102.95c-0.63-0.26-1.26-0.52-1.89-0.78c-0.55-0.22-1.09-0.449-1.64-0.67
	c1.18-0.49,2.35-0.97,3.53-1.45c0.18-0.069,0.35-0.109,0.5-0.109c0.1,0.04,0.2,0.08,0.3,0.12c0.61,0.239,0.92,0.76,0.99,1.279
	c0,0.061,0.01,0.11,0.01,0.16s-0.01,0.11-0.01,0.16c-0.07,0.53-0.38,1.04-0.99,1.29c-0.09,0.04-0.19,0.08-0.28,0.12
	C257.882,103.07,257.712,103.03,257.522,102.95z"/>
<path opacity="0.4" fill="#231F20" d="M259.312,101.34c-0.07-0.52-0.38-1.04-0.99-1.279c-0.1-0.04-0.2-0.08-0.3-0.12
	C258.792,99.9,259.282,100.59,259.312,101.34z"/>
<path opacity="0.4" fill="#231F20" d="M218.272,99.931c0.76-0.011,1.24,0.67,1.26,1.409c-0.07-0.529-0.38-1.04-0.98-1.29
	C218.462,100.01,218.362,99.971,218.272,99.931z"/>
<path opacity="0.4" fill="#231F20" d="M218.272,103.07c0.09-0.04,0.19-0.08,0.28-0.12c0.6-0.25,0.91-0.76,0.98-1.29
	C219.512,102.4,219.032,103.08,218.272,103.07z"/>
<path opacity="0.4" fill="#231F20" d="M219.532,101.34c0.01,0.051,0.02,0.11,0.01,0.16c0,0.021,0,0.03,0,0.05
	c0,0.03,0,0.07-0.01,0.11c-0.07,0.53-0.38,1.04-0.98,1.29c-0.09,0.04-0.19,0.08-0.28,0.12c-0.16,0-0.33-0.04-0.52-0.12
	c-1.18-0.479-2.36-0.97-3.54-1.45c1.18-0.479,2.36-0.97,3.54-1.45c0.19-0.079,0.36-0.119,0.52-0.119
	c0.09,0.04,0.19,0.079,0.28,0.119C219.152,100.3,219.462,100.811,219.532,101.34z"/>
<path opacity="0.4" fill="#231F20" d="M181.872,102.04c0.47-0.01,0.76,0.45,0.74,0.91c-0.01-0.34-0.19-0.68-0.58-0.84
	C181.982,102.09,181.922,102.07,181.872,102.04z"/>
<path opacity="0.4" fill="#231F20" d="M182.612,102.95c0.02,0.47-0.27,0.93-0.75,0.92c0.06-0.02,0.11-0.05,0.17-0.07
	C182.422,103.641,182.602,103.3,182.612,102.95z"/>
<path opacity="0.4" fill="#231F20" d="M181.562,103.8c-0.69-0.279-1.37-0.56-2.06-0.85c0.69-0.28,1.37-0.56,2.06-0.84
	c0.11-0.05,0.22-0.07,0.31-0.07c0.05,0.03,0.11,0.05,0.16,0.07c0.39,0.16,0.57,0.5,0.58,0.84c-0.01,0.35-0.19,0.69-0.58,0.85
	c-0.06,0.021-0.11,0.051-0.17,0.07C181.772,103.87,181.662,103.851,181.562,103.8z"/>
<path opacity="0.4" fill="#231F20" d="M130.362,123.07C130.732,123.28,130.052,123.23,130.362,123.07L130.362,123.07z"/>
<path opacity="0.4" fill="#231F20" d="M130.022,50.721c-0.24-0.101,0.24-0.19,0.39-0.15c0.08,0.03,0.07,0.09-0.21,0.229
	C130.142,50.771,130.082,50.74,130.022,50.721z"/>
<path opacity="0.4" fill="#231F20" d="M130.392,82.82C130.032,82.61,130.732,82.67,130.392,82.82L130.392,82.82z"/>
<path opacity="0.4" fill="#231F20" d="M130.322,136.15c-0.13,0.05-0.51-0.04-0.15-0.23c0,0,0,0,0.01,0
	C130.392,136.05,130.392,136.12,130.322,136.15z"/>
<path opacity="0.4" fill="#231F20" d="M130.222,67.08c-0.61-0.37,0.55-0.28,0.01,0C130.232,67.08,130.232,67.08,130.222,67.08z"/>
<path opacity="0.4" fill="#231F20" d="M130.382,152.28c0.24,0.1-0.24,0.19-0.39,0.15c-0.08-0.03-0.07-0.092,0.21-0.23
	C130.262,152.23,130.322,152.26,130.382,152.28z"/>
<path opacity="0.4" fill="#231F20" d="M128.382,83.65c-2.98,1.22-5.95,2.439-8.92,3.649c-12.73,5.221-25.46,10.431-38.19,15.65
	c-0.69-0.28-1.38-0.57-2.07-0.85l-0.06-0.15c11.35-4.66,22.69-9.3,34.04-13.95c5.6-2.3,11.19-4.59,16.78-6.88
	c0.85-0.34,2.15,0.54,2.89,0.84c2.97,1.221,5.94,2.44,8.92,3.65c13.37,5.479,26.73,10.96,40.1,16.43c-0.09,0-0.2,0.021-0.31,0.07
	c-0.69,0.28-1.37,0.56-2.06,0.84c-10.28-4.21-20.56-8.42-30.84-12.63c-6.02-2.46-12.03-4.93-18.05-7.391
	c-0.1-0.039-0.17-0.079-0.22-0.109c0.34-0.15-0.36-0.21,0,0c-0.01,0.01-0.03,0.01-0.04,0.02
	C129.692,83.11,129.032,83.38,128.382,83.65z"/>
<path opacity="0.4" fill="#231F20" d="M81.272,102.95c-0.69,0.28-1.38,0.57-2.07,0.85c0-0.569,0-1.13,0-1.699
	C79.892,102.38,80.582,102.67,81.272,102.95z"/>
<path opacity="0.4" fill="#231F20" d="M127.912,123.94c-2.97-1.22-5.94-2.44-8.91-3.66c-13.42-5.49-26.84-10.99-40.26-16.48
	c-0.83-0.34-0.83-1.35,0-1.689c0.13-0.05,0.27-0.11,0.4-0.16l0.06,0.15c0,0.569,0,1.13,0,1.699c0.69-0.279,1.38-0.569,2.07-0.85
	c10.28,4.22,20.56,8.42,30.83,12.63c6.02,2.46,12.03,4.93,18.05,7.392c0.09,0.038,0.16,0.068,0.21,0.1c-0.31,0.16,0.37,0.21,0,0
	c0.01,0,0.03-0.01,0.05-0.021c0.66-0.27,1.32-0.528,1.98-0.8c2.97-1.22,5.94-2.438,8.91-3.648c12.73-5.221,25.47-10.44,38.2-15.65
	c0.69,0.29,1.37,0.57,2.06,0.85c0.1,0.051,0.21,0.07,0.3,0.07c-11.43,4.68-22.86,9.351-34.28,14.03c-5.59,2.3-11.19,4.59-16.78,6.88
	C129.952,125.12,128.662,124.24,127.912,123.94z"/>
<path opacity="0.4" fill="#231F20" d="M46.192,101.5c-1.18,0.48-2.36,0.971-3.54,1.45c0-0.97,0-1.93,0-2.9
	C43.832,100.53,45.012,101.021,46.192,101.5z"/>
<g opacity="0.4">
	<path fill="#E9202B" d="M130.252,135.891c1.13-0.46,2.25-0.92,3.38-1.382c5.08-2.078,10.16-4.158,15.25-6.238
		c21.771-8.932,43.55-17.84,65.33-26.771c1.18,0.48,2.36,0.97,3.54,1.45c0.19,0.08,0.36,0.12,0.52,0.12
		c-19.55,8-39.1,16.01-58.65,24.01c-9.42,3.86-18.85,7.72-28.27,11.58l-1.03-2.51c0.07-0.03,0.07-0.102-0.14-0.23
		C130.202,135.91,130.222,135.9,130.252,135.891z"/>
	<path fill="#E9202B" d="M126.772,68.49c-5.08,2.08-10.16,4.16-15.25,6.25c-21.77,8.92-43.55,17.83-65.33,26.76
		c-1.18-0.479-2.36-0.97-3.54-1.45c0,0.971,0,1.931,0,2.9l-0.11,0.28c-0.23-0.09-0.46-0.19-0.69-0.28c-1.42-0.59-1.42-2.31,0-2.9
		c19.65-8.04,39.29-16.09,58.93-24.13c9.57-3.92,19.14-7.84,28.71-11.76c1.44-0.59,3.66,0.91,4.94,1.44
		c5.08,2.08,10.16,4.159,15.24,6.239c22.87,9.37,45.73,18.73,68.6,28.091c-0.16,0-0.33,0.04-0.52,0.119
		c-1.18,0.48-2.36,0.971-3.54,1.45c-17.58-7.21-35.16-14.399-52.74-21.609c-10.29-4.21-20.58-8.431-30.87-12.641
		c-0.16-0.07-0.28-0.13-0.37-0.17c0.54-0.28-0.62-0.37-0.01,0c-0.02,0.01-0.04,0.021-0.07,0.03
		C129.022,67.57,127.902,68.03,126.772,68.49z"/>
	<path fill="#E9202B" d="M98.932,123.11c10.29,4.21,20.58,8.43,30.87,12.64c0.16,0.07,0.28,0.13,0.37,0.17
		c-0.36,0.19,0.02,0.28,0.15,0.23l1.03,2.51c-0.15,0.062-0.29,0.12-0.44,0.18c-1.44,0.592-3.66-0.908-4.94-1.438
		c-5.08-2.08-10.16-4.16-15.24-6.24c-22.73-9.32-45.46-18.62-68.19-27.93l0.11-0.28c1.18-0.479,2.36-0.97,3.54-1.45
		C63.772,108.71,81.352,115.9,98.932,123.11z"/>
</g>
<path opacity="0.4" fill="#231F20" d="M4.772,100.83c0.55,0.22,1.09,0.45,1.64,0.67c-1.18,0.49-2.35,0.971-3.53,1.45
	c0-0.97,0-1.93,0-2.9C3.512,100.311,4.142,100.57,4.772,100.83z"/>
<g opacity="0.4">
	<path fill="#E9202B" d="M132.512,51.74c-0.77-0.32-1.54-0.63-2.31-0.94c0.28-0.14,0.29-0.199,0.21-0.229l1.02-2.49
		c42.2,17.29,84.39,34.57,126.59,51.86c-0.15,0-0.32,0.04-0.5,0.109c-1.18,0.48-2.35,0.96-3.53,1.45
		c-23.47-9.62-46.95-19.229-70.42-28.84c-13.22-5.42-26.43-10.83-39.65-16.25C140.122,54.86,136.312,53.3,132.512,51.74z"/>
	<path fill="#E9202B" d="M132.502,154.49c-1.16,0.47-2.03,1.05-3.25,0.55c-0.09-0.04-0.19-0.08-0.28-0.12l1.02-2.488
		c0.15,0.04,0.63-0.052,0.39-0.15c-0.06-0.021-0.12-0.05-0.18-0.08c0.04-0.02,0.09-0.04,0.15-0.06
		c41.21-16.882,82.43-33.762,123.64-50.642c0.55,0.221,1.09,0.45,1.64,0.67c0.63,0.261,1.26,0.521,1.89,0.78
		c0.19,0.08,0.36,0.12,0.52,0.12c-0.81,0.33-1.61,0.66-2.42,0.99c-24.66,10.1-49.32,20.199-73.98,30.3
		c-12.89,5.28-25.79,10.56-38.69,15.84C139.472,151.63,135.982,153.061,132.502,154.49z"/>
	<path fill="#E9202B" d="M130.052,50.86c-41.21,16.88-82.43,33.76-123.64,50.64c-0.55-0.22-1.09-0.45-1.64-0.67
		c-0.63-0.26-1.26-0.52-1.89-0.78l-0.11-0.27c0.67-0.28,1.34-0.55,2.01-0.83c24.66-10.1,49.32-20.2,73.98-30.3
		c12.9-5.29,25.79-10.57,38.69-15.851c3.48-1.43,6.97-2.859,10.46-4.279c1.15-0.48,2.02-1.05,3.24-0.561
		c0.09,0.04,0.19,0.08,0.28,0.12l-1.02,2.49c-0.15-0.04-0.63,0.05-0.39,0.15c0.06,0.02,0.12,0.05,0.18,0.079
		C130.162,50.82,130.112,50.84,130.052,50.86z"/>
	<path fill="#E9202B" d="M116.482,146.59c3.81,1.562,7.61,3.11,11.41,4.67c0.77,0.32,1.54,0.632,2.31,0.94
		c-0.28,0.14-0.29,0.2-0.21,0.23l-1.02,2.488c-42.3-17.329-84.59-34.648-126.89-51.969c-1.42-0.58-1.42-2.31,0-2.89
		c0.23-0.09,0.46-0.19,0.69-0.28l0.11,0.27c0,0.971,0,1.931,0,2.9c1.18-0.48,2.35-0.96,3.53-1.45
		c23.47,9.62,46.95,19.23,70.42,28.852C90.052,135.76,103.262,141.17,116.482,146.59z"/>
</g>
<path opacity="0.4" fill="#E9202B" d="M1021.882,101.5c-41.21,16.892-82.42,33.76-123.63,50.642c-0.06,0.028-0.12,0.05-0.16,0.068
	c-0.77-0.318-1.528-0.63-2.3-0.95c-3.81-1.56-7.61-3.108-11.42-4.67c-13.21-5.42-26.43-10.83-39.649-16.238
	c-23.471-9.62-46.939-19.23-70.421-28.852c41.21-16.88,82.432-33.76,123.642-50.64c0.06-0.021,0.108-0.04,0.148-0.061
	c0.771,0.311,1.54,0.62,2.312,0.94c3.8,1.56,7.608,3.12,11.409,4.67c13.221,5.42,26.439,10.83,39.649,16.25
	C974.932,82.271,998.412,91.88,1021.882,101.5z M987.432,101.5c0.012-0.05,0-0.109-0.01-0.16c-0.029-0.75-0.51-1.439-1.279-1.399
	c-22.859-9.37-45.721-18.73-68.58-28.101c-5.079-2.08-10.159-4.159-15.239-6.239c-1.28-0.53-3.5-2.03-4.94-1.44
	c-0.148,0.061-0.29,0.12-0.438,0.18c-9.42,3.86-18.852,7.721-28.271,11.58c-19.41,7.95-38.83,15.9-58.239,23.86
	c-0.229,0.09-0.449,0.19-0.681,0.28c-1.42,0.58-1.42,2.31,0,2.89c22.95,9.4,45.91,18.81,68.87,28.21
	c5.08,2.08,10.16,4.16,15.24,6.24c1.279,0.53,3.5,2.04,4.938,1.438c9.57-3.92,19.142-7.84,28.71-11.76
	c19.562-8,39.102-16.01,58.65-24.01c0.76,0.01,1.24-0.67,1.26-1.41C987.432,101.61,987.442,101.561,987.432,101.5z"/>
<path opacity="0.4" d="M947.202,101.34c-12.729,5.21-25.479,10.431-38.21,15.65c-2.97,1.21-5.94,2.43-8.91,3.65
	c-0.66,0.27-1.31,0.54-1.97,0.81c-0.011,0.01-0.03,0.01-0.04,0.021c-0.05-0.03-0.12-0.07-0.22-0.11
	c-6.021-2.46-12.04-4.93-18.052-7.39c-10.278-4.21-20.56-8.41-30.83-12.631c12.73-5.22,25.461-10.43,38.19-15.649
	c2.97-1.21,5.94-2.43,8.91-3.65c0.66-0.27,1.319-0.54,1.979-0.8c0.021-0.01,0.04-0.02,0.052-0.02c0.05,0.029,0.119,0.06,0.21,0.1
	c6.02,2.46,12.028,4.93,18.05,7.39C926.632,92.92,936.922,97.13,947.202,101.34z"/>
<path opacity="0.4" d="M1027.202,101.351c0.01,0.05,0.01,0.1,0.01,0.159C1027.212,101.46,1027.202,101.4,1027.202,101.351z"/>
<path opacity="0.4" d="M1027.212,101.51c0,0.051,0,0.101-0.01,0.15C1027.202,101.61,1027.212,101.561,1027.212,101.51z"/>
<path opacity="0.4" d="M1027.202,101.351c-0.07-0.53-0.38-1.051-0.99-1.29c-0.1-0.04-0.2-0.08-0.3-0.12
	C1026.692,99.9,1027.182,100.601,1027.202,101.351z"/>
<path opacity="0.4" d="M1026.212,102.95c0.61-0.25,0.92-0.77,0.99-1.29c-0.021,0.74-0.51,1.43-1.271,1.41
	C1026.022,103.03,1026.122,102.99,1026.212,102.95z"/>
<path opacity="0.4" d="M1026.212,100.061c0.61,0.239,0.92,0.76,0.99,1.29c0,0.05,0.01,0.109,0.01,0.159
	c0,0.051-0.01,0.101-0.01,0.15c-0.07,0.521-0.38,1.04-0.99,1.29c-0.09,0.04-0.188,0.08-0.28,0.12c-0.158-0.01-0.328-0.05-0.51-0.12
	c-0.63-0.26-1.27-0.52-1.898-0.78c-0.552-0.22-1.092-0.449-1.642-0.67c1.181-0.479,2.36-0.97,3.54-1.45
	c0.182-0.069,0.34-0.109,0.49-0.109C1026.012,99.98,1026.112,100.021,1026.212,100.061z"/>
<path opacity="0.4" fill="#231F20" d="M987.422,101.34c0.01,0.051,0.021,0.11,0.01,0.16
	C987.432,101.45,987.422,101.4,987.422,101.34z"/>
<path opacity="0.4" fill="#231F20" d="M987.432,101.5c0.012,0.061,0,0.11-0.01,0.16C987.422,101.61,987.432,101.55,987.432,101.5z"
	/>
<path opacity="0.4" fill="#231F20" d="M987.422,101.34c-0.068-0.52-0.38-1.04-0.979-1.279c-0.102-0.04-0.2-0.08-0.301-0.12
	C986.912,99.9,987.393,100.59,987.422,101.34z"/>
<path opacity="0.4" fill="#231F20" d="M986.442,102.95c0.6-0.25,0.909-0.76,0.979-1.29c-0.02,0.74-0.5,1.42-1.26,1.41
	C986.252,103.03,986.352,102.99,986.442,102.95z"/>
<path opacity="0.4" fill="#231F20" d="M986.442,100.061c0.6,0.239,0.909,0.76,0.979,1.279c0,0.061,0.011,0.11,0.011,0.16
	s-0.011,0.11-0.011,0.16c-0.069,0.53-0.38,1.04-0.979,1.29c-0.091,0.04-0.19,0.08-0.28,0.12c-0.16,0-0.33-0.04-0.521-0.12
	c-1.18-0.479-2.358-0.97-3.539-1.45c1.181-0.479,2.359-0.97,3.539-1.45c0.182-0.069,0.352-0.109,0.5-0.109
	C986.242,99.98,986.342,100.021,986.442,100.061z"/>
<path opacity="0.4" fill="#231F20" d="M949.563,100.431c0.479-0.011,0.76,0.449,0.738,0.92c-0.01-0.351-0.188-0.69-0.58-0.851
	C949.672,100.48,949.612,100.46,949.563,100.431z"/>
<path opacity="0.4" fill="#231F20" d="M950.302,101.351c0.021,0.46-0.27,0.92-0.739,0.909c0.051-0.029,0.109-0.05,0.159-0.069
	C950.112,102.03,950.282,101.69,950.302,101.351z"/>
<path opacity="0.4" fill="#231F20" d="M949.262,102.19c-0.688-0.28-1.369-0.561-2.06-0.851c0.688-0.279,1.37-0.56,2.06-0.84
	c0.11-0.05,0.211-0.069,0.302-0.069c0.05,0.029,0.108,0.05,0.159,0.069c0.391,0.16,0.569,0.5,0.579,0.851
	c-0.02,0.34-0.188,0.68-0.579,0.84c-0.051,0.02-0.109,0.04-0.159,0.069C949.472,102.26,949.372,102.24,949.262,102.19z"/>
<path opacity="0.4" d="M898.302,50.57c0.08,0.03,0.07,0.09-0.21,0.229c-0.06-0.029-0.12-0.06-0.18-0.079
	C897.682,50.62,898.152,50.53,898.302,50.57z"/>
<path opacity="0.4" d="M898.272,152.28c0.238,0.1-0.23,0.19-0.382,0.15c-0.078-0.03-0.068-0.092,0.2-0.222
	C898.152,152.23,898.212,152.26,898.272,152.28z"/>
<path opacity="0.4" fill="#231F20" d="M898.072,135.92c0.62,0.37-0.55,0.29-0.01,0C898.063,135.92,898.063,135.92,898.072,135.92z"
	/>
<path opacity="0.4" fill="#231F20" d="M898.072,121.471C898.432,121.681,897.732,121.62,898.072,121.471L898.072,121.471z"/>
<path opacity="0.4" fill="#231F20" d="M898.102,81.221C897.732,81.01,898.402,81.061,898.102,81.221L898.102,81.221z"/>
<path opacity="0.4" fill="#231F20" d="M898.112,67.08c-0.21-0.13-0.21-0.2-0.142-0.229c0.131-0.051,0.512,0.04,0.15,0.229
	C898.122,67.07,898.122,67.07,898.112,67.08z"/>
<path opacity="0.4" fill="#231F20" d="M898.052,81.24c-0.659,0.26-1.318,0.53-1.979,0.8c-2.97,1.22-5.94,2.44-8.91,3.65
	c-12.729,5.22-25.46,10.43-38.19,15.649c-0.688-0.279-1.38-0.569-2.068-0.85l-0.062-0.16c11.341-4.649,22.7-9.3,34.04-13.939
	c5.59-2.301,11.19-4.591,16.78-6.881c0.84-0.34,2.14,0.54,2.89,0.841c2.972,1.22,5.94,2.439,8.91,3.649
	c13.37,5.48,26.73,10.96,40.102,16.43c-0.092,0-0.19,0.021-0.301,0.07c-0.689,0.28-1.371,0.561-2.061,0.84
	c-10.28-4.21-20.57-8.42-30.84-12.63c-6.021-2.46-12.03-4.93-18.05-7.39c-0.091-0.04-0.16-0.07-0.21-0.101c0.3-0.159-0.37-0.21,0,0
	C898.092,81.221,898.072,81.23,898.052,81.24z"/>
<path opacity="0.4" fill="#231F20" d="M848.972,101.34c-0.688,0.28-1.38,0.57-2.068,0.851c0-0.57,0-1.13,0-1.7
	C847.592,100.771,848.282,101.061,848.972,101.34z"/>
<path opacity="0.4" fill="#231F20" d="M898.492,123.17c-0.84,0.352-2.141-0.54-2.88-0.84c-2.972-1.22-5.95-2.438-8.92-3.648
	c-13.42-5.5-26.841-11-40.261-16.49c-0.83-0.34-0.83-1.351,0-1.69c0.141-0.06,0.271-0.109,0.409-0.17l0.062,0.16
	c0,0.57,0,1.13,0,1.7c0.688-0.28,1.38-0.57,2.068-0.851c10.271,4.221,20.551,8.421,30.83,12.631c6.012,2.46,12.03,4.93,18.051,7.39
	c0.101,0.04,0.17,0.08,0.221,0.11c-0.34,0.148,0.358,0.21,0,0c0.01-0.012,0.029-0.012,0.04-0.021c0.659-0.27,1.31-0.54,1.97-0.81
	c2.97-1.222,5.939-2.44,8.91-3.65c12.729-5.22,25.479-10.44,38.21-15.65c0.688,0.29,1.37,0.57,2.06,0.851
	c0.11,0.05,0.21,0.07,0.301,0.07c-11.431,4.67-22.851,9.35-34.279,14.029C909.682,118.59,904.092,120.88,898.492,123.17z"/>
<path opacity="0.4" fill="#231F20" d="M814.082,101.5c-1.18,0.48-2.359,0.971-3.54,1.45c0-0.97,0-1.93,0-2.9
	C811.722,100.53,812.902,101.021,814.082,101.5z"/>
<g opacity="0.4">
	<path fill="#E9202B" d="M898.122,67.08c0.36-0.189-0.021-0.28-0.15-0.229l-1.028-2.511c0.148-0.06,0.29-0.119,0.438-0.18
		c1.44-0.59,3.66,0.91,4.94,1.44c5.08,2.08,10.16,4.159,15.24,6.239c22.858,9.37,45.72,18.73,68.578,28.101
		c-0.148,0-0.318,0.04-0.5,0.109c-1.18,0.48-2.358,0.971-3.539,1.45c-17.58-7.21-35.159-14.399-52.739-21.6
		c-10.29-4.22-20.58-8.44-30.87-12.65C898.332,67.181,898.212,67.12,898.122,67.08z"/>
	<path fill="#E9202B" d="M898.042,67.11c-1.13,0.46-2.25,0.92-3.38,1.38c-5.08,2.08-10.16,4.16-15.24,6.25
		c-21.779,8.92-43.56,17.83-65.34,26.76c-1.18-0.479-2.36-0.97-3.54-1.45l-0.11-0.27c19.41-7.96,38.83-15.91,58.24-23.86
		c9.42-3.859,18.852-7.72,28.271-11.58l1.028,2.511c-0.068,0.029-0.068,0.1,0.142,0.229C898.092,67.09,898.072,67.101,898.042,67.11
		z"/>
	<path fill="#E9202B" d="M866.822,123.11c10.29,4.21,20.58,8.43,30.88,12.64c0.16,0.07,0.28,0.13,0.36,0.17
		c-0.54,0.29,0.63,0.37,0.01,0c0.02-0.01,0.04-0.02,0.068-0.028c1.131-0.46,2.262-0.92,3.381-1.382
		c5.08-2.078,10.171-4.158,15.25-6.238c21.771-8.932,43.551-17.84,65.33-26.771c1.181,0.48,2.359,0.971,3.539,1.45
		c0.19,0.08,0.36,0.12,0.521,0.12c-19.55,8-39.09,16.01-58.65,24.01c-9.568,3.92-19.14,7.84-28.71,11.76
		c-1.438,0.602-3.659-0.908-4.938-1.438c-5.08-2.08-10.16-4.16-15.24-6.24c-22.96-9.399-45.92-18.81-68.87-28.21
		c-1.42-0.58-1.42-2.31,0-2.89c0.229-0.09,0.45-0.19,0.68-0.28l0.11,0.27c0,0.971,0,1.931,0,2.9c1.18-0.479,2.36-0.97,3.54-1.45
		C831.662,108.71,849.242,115.9,866.822,123.11z"/>
</g>
<path opacity="0.4" d="M772.662,100.83c0.55,0.22,1.09,0.45,1.64,0.67c-1.18,0.49-2.35,0.971-3.528,1.45c0-0.97,0-1.93,0-2.9
	C771.402,100.311,772.032,100.57,772.662,100.83z"/>
<g opacity="0.4">
	<path fill="#E9202B" d="M900.402,51.74c-0.771-0.32-1.54-0.63-2.312-0.94c0.28-0.14,0.29-0.199,0.21-0.229l1.021-2.49
		c42.2,17.29,84.39,34.57,126.59,51.86c-0.15,0-0.311,0.04-0.49,0.109c-1.18,0.48-2.358,0.971-3.54,1.45
		c-23.47-9.62-46.95-19.229-70.42-28.84c-13.21-5.42-26.43-10.83-39.648-16.25C908.012,54.86,904.202,53.3,900.402,51.74z"/>
	<path fill="#E9202B" d="M897.893,152.431c0.149,0.04,0.619-0.052,0.381-0.15c-0.062-0.021-0.12-0.05-0.182-0.07
		c0.04-0.02,0.102-0.04,0.16-0.068c41.21-16.882,82.42-33.75,123.63-50.642c0.55,0.221,1.09,0.45,1.642,0.67
		c0.63,0.261,1.27,0.521,1.898,0.78c0.182,0.07,0.352,0.11,0.51,0.12c-0.81,0.33-1.608,0.66-2.42,0.99
		c-24.658,10.1-49.318,20.199-73.97,30.3c-12.9,5.28-25.8,10.56-38.688,15.84c-3.49,1.43-6.98,2.86-10.462,4.29
		c-1.159,0.47-2.028,1.05-3.25,0.55c-0.09-0.04-0.18-0.068-0.27-0.108L897.893,152.431z"/>
	<path fill="#E9202B" d="M895.802,48.521c1.15-0.48,2.021-1.05,3.24-0.561c0.09,0.04,0.19,0.08,0.28,0.12l-1.021,2.49
		c-0.148-0.04-0.619,0.05-0.39,0.15c0.06,0.02,0.12,0.05,0.18,0.079c-0.04,0.021-0.09,0.04-0.148,0.061
		c-41.21,16.88-82.432,33.76-123.642,50.64c-0.55-0.22-1.09-0.45-1.64-0.67c-0.63-0.26-1.26-0.52-1.89-0.78l-0.11-0.27
		c0.67-0.28,1.34-0.55,2.01-0.83c24.66-10.1,49.32-20.2,73.98-30.3c12.898-5.29,25.79-10.57,38.688-15.851
		C888.832,51.37,892.313,49.94,895.802,48.521z"/>
	<path fill="#E9202B" d="M769.972,102.95c-1.42-0.58-1.42-2.31,0-2.89c0.23-0.09,0.46-0.19,0.69-0.28l0.11,0.27
		c0,0.971,0,1.931,0,2.9c1.18-0.48,2.35-0.96,3.528-1.45c23.48,9.62,46.95,19.23,70.42,28.852
		c13.222,5.408,26.44,10.818,39.65,16.238c3.81,1.562,7.609,3.11,11.42,4.67c0.771,0.32,1.53,0.632,2.3,0.95
		c-0.27,0.13-0.278,0.19-0.2,0.222l-1.02,2.5C854.572,137.601,812.272,120.271,769.972,102.95z"/>
</g>
<path opacity="0.4" fill="#E9202B" d="M1277.332,101.5c-41.21,16.88-82.43,33.76-123.64,50.642c-0.062,0.02-0.11,0.04-0.15,0.06
	c-0.771-0.31-1.54-0.62-2.31-0.939c-3.802-1.561-7.61-3.109-11.41-4.671c-13.221-5.42-26.432-10.829-39.65-16.238
	c-23.47-9.62-46.95-19.23-70.42-28.852c41.22-16.89,82.42-33.76,123.64-50.64c0.062-0.021,0.11-0.04,0.15-0.061
	c0.771,0.311,1.54,0.62,2.3,0.94c3.812,1.56,7.61,3.12,11.42,4.67c13.221,5.42,26.432,10.83,39.65,16.24
	C1230.382,82.271,1253.862,91.88,1277.332,101.5z M1242.882,101.5c0-0.06,0-0.109-0.01-0.16c-0.03-0.739-0.51-1.43-1.271-1.409
	c-22.859-9.36-45.721-18.73-68.591-28.091c-5.08-2.08-10.159-4.159-15.239-6.239c-1.279-0.53-3.5-2.03-4.939-1.44
	c-9.57,3.92-19.14,7.84-28.71,11.76c-19.64,8.04-39.28,16.09-58.93,24.13c-1.421,0.58-1.421,2.311,0,2.9
	c0.229,0.09,0.46,0.19,0.688,0.28c22.73,9.31,45.46,18.608,68.19,27.93c5.08,2.08,10.16,4.16,15.239,6.24
	c1.279,0.53,3.5,2.03,4.939,1.438c0.15-0.06,0.29-0.118,0.439-0.18c9.421-3.86,18.851-7.72,28.271-11.58
	c19.55-8,39.09-16.01,58.641-24.01c0.761,0.02,1.239-0.67,1.271-1.41C1242.882,101.61,1242.882,101.561,1242.882,101.5z"/>
<path opacity="0.4" d="M1171.802,88.01c10.28,4.211,20.57,8.421,30.841,12.631c-12.729,5.21-25.471,10.42-38.199,15.64
	c-2.971,1.22-5.94,2.43-8.91,3.65c-0.66,0.27-1.32,0.54-1.97,0.81c-0.021,0.01-0.04,0.02-0.052,0.03
	c-0.05-0.03-0.119-0.07-0.22-0.11c-6.01-2.47-12.03-4.93-18.04-7.39c-10.28-4.221-20.57-8.431-30.84-12.63
	c12.729-5.221,25.47-10.431,38.2-15.65c2.97-1.22,5.938-2.43,8.91-3.65c0.659-0.27,1.31-0.54,1.97-0.81
	c0.02-0.01,0.04-0.021,0.05-0.03c0.05,0.03,0.12,0.07,0.22,0.11C1159.772,83.08,1165.792,85.54,1171.802,88.01z"/>
<path opacity="0.4" d="M1282.652,101.34c0.01,0.051,0.01,0.11,0.01,0.16C1282.662,101.45,1282.652,101.391,1282.652,101.34z"/>
<path opacity="0.4" d="M1282.662,101.5c0,0.05,0,0.11-0.01,0.16C1282.652,101.61,1282.662,101.55,1282.662,101.5z"/>
<path opacity="0.4" d="M1282.652,101.34c-0.07-0.529-0.38-1.04-0.99-1.29c-0.09-0.04-0.189-0.079-0.28-0.119
	C1282.143,99.92,1282.622,100.601,1282.652,101.34z"/>
<path opacity="0.4" d="M1281.662,102.95c0.61-0.25,0.92-0.76,0.99-1.29c-0.03,0.74-0.512,1.42-1.271,1.41
	C1281.472,103.03,1281.572,102.99,1281.662,102.95z"/>
<path opacity="0.4" d="M1277.332,101.5c1.18-0.49,2.35-0.97,3.53-1.45c0.188-0.079,0.358-0.119,0.52-0.119
	c0.09,0.04,0.19,0.079,0.28,0.119c0.61,0.25,0.92,0.761,0.99,1.29c0,0.051,0.01,0.11,0.01,0.16s-0.01,0.11-0.01,0.16
	c-0.07,0.53-0.38,1.04-0.99,1.29c-0.09,0.04-0.189,0.08-0.28,0.12c-0.16,0-0.33-0.04-0.52-0.12c-0.63-0.26-1.261-0.52-1.892-0.78
	C1278.422,101.95,1277.882,101.721,1277.332,101.5z"/>
<path opacity="0.4" fill="#231F20" d="M1242.872,101.34c0.01,0.051,0.01,0.101,0.01,0.16
	C1242.882,101.45,1242.872,101.4,1242.872,101.34z"/>
<path opacity="0.4" fill="#231F20" d="M1242.882,101.5c0,0.061,0,0.11-0.01,0.16C1242.872,101.601,1242.882,101.55,1242.882,101.5z"
	/>
<path opacity="0.4" fill="#231F20" d="M1242.872,101.34c-0.07-0.52-0.38-1.04-0.99-1.29c-0.09-0.04-0.188-0.079-0.278-0.119
	C1242.362,99.91,1242.842,100.601,1242.872,101.34z"/>
<path opacity="0.4" fill="#231F20" d="M1241.882,102.95c0.61-0.25,0.92-0.77,0.99-1.29c-0.03,0.74-0.51,1.43-1.271,1.41
	C1241.692,103.03,1241.792,102.99,1241.882,102.95z"/>
<path opacity="0.4" fill="#231F20" d="M1241.882,100.05c0.61,0.25,0.92,0.771,0.99,1.29c0,0.061,0.01,0.11,0.01,0.16
	s-0.01,0.101-0.01,0.16c-0.07,0.521-0.38,1.04-0.99,1.29c-0.09,0.04-0.188,0.08-0.278,0.12c-0.16-0.01-0.33-0.05-0.512-0.12
	c-1.18-0.479-2.358-0.97-3.54-1.45c1.182-0.479,2.36-0.97,3.54-1.45c0.182-0.069,0.352-0.109,0.512-0.119
	C1241.692,99.971,1241.792,100.01,1241.882,100.05z"/>
<path opacity="0.4" fill="#231F20" d="M1205.012,99.721c0.472-0.011,0.762,0.449,0.74,0.92c-0.01-0.341-0.18-0.681-0.58-0.851
	C1205.122,99.771,1205.063,99.75,1205.012,99.721z"/>
<path opacity="0.4" fill="#231F20" d="M1205.172,101.48c0.38-0.16,0.562-0.48,0.58-0.811c0,0.46-0.28,0.891-0.74,0.88
	C1205.063,101.521,1205.122,101.5,1205.172,101.48z"/>
<path opacity="0.4" fill="#231F20" d="M1205.172,99.79c0.4,0.17,0.57,0.51,0.58,0.851c0,0.01,0,0.02,0,0.029
	c-0.02,0.33-0.2,0.65-0.58,0.811c-0.05,0.02-0.108,0.04-0.16,0.069c-0.09,0-0.198-0.02-0.31-0.069c-0.69-0.28-1.37-0.561-2.062-0.84
	c0.69-0.29,1.37-0.57,2.062-0.851c0.11-0.05,0.22-0.069,0.31-0.069C1205.063,99.75,1205.122,99.771,1205.172,99.79z"/>
<path opacity="0.4" d="M1153.752,50.57c0.08,0.03,0.07,0.09-0.21,0.229c-0.06-0.029-0.12-0.06-0.18-0.079
	C1153.122,50.62,1153.602,50.53,1153.752,50.57z"/>
<path opacity="0.4" d="M1153.722,152.28c0.24,0.1-0.238,0.19-0.39,0.15c-0.08-0.03-0.07-0.092,0.21-0.23
	C1153.602,152.23,1153.662,152.26,1153.722,152.28z"/>
<path opacity="0.4" fill="#231F20" d="M1153.522,135.92c0.21,0.13,0.21,0.2,0.14,0.23c-0.13,0.05-0.51-0.04-0.15-0.23
	C1153.512,135.92,1153.512,135.92,1153.522,135.92z"/>
<path opacity="0.4" fill="#231F20" d="M1153.512,120.771C1153.872,120.971,1153.202,120.92,1153.512,120.771L1153.512,120.771z"/>
<path opacity="0.4" fill="#231F20" d="M1153.542,80.5C1153.182,80.3,1153.852,80.351,1153.542,80.5L1153.542,80.5z"/>
<path opacity="0.4" fill="#231F20" d="M1153.563,67.08c-0.61-0.37,0.55-0.28,0.01,0C1153.572,67.07,1153.572,67.07,1153.563,67.08z"
	/>
<path opacity="0.4" fill="#231F20" d="M1142.143,117.971c-13.289-5.451-26.569-10.881-39.859-16.331l0.07-0.16
	c0.688-0.28,1.368-0.561,2.06-0.84c10.271,4.199,20.56,8.409,30.84,12.63c6.01,2.46,12.03,4.92,18.04,7.39
	c0.1,0.04,0.17,0.08,0.22,0.11c-0.31,0.148,0.36,0.2,0,0c0.012-0.012,0.03-0.021,0.052-0.03c0.648-0.27,1.31-0.54,1.97-0.81
	c2.97-1.222,5.938-2.432,8.91-3.65c12.729-5.22,25.47-10.43,38.198-15.64c0.69,0.279,1.37,0.56,2.062,0.84
	c0.11,0.05,0.22,0.069,0.31,0.069c-11.43,4.671-22.85,9.36-34.289,14.04c-5.591,2.29-11.181,4.58-16.779,6.87
	c-0.84,0.352-2.142-0.528-2.892-0.84C1148.082,120.4,1145.112,119.19,1142.143,117.971z"/>
<path opacity="0.4" fill="#231F20" d="M1102.352,101.48c0-0.561,0-1.13,0-1.69c0.689,0.28,1.369,0.561,2.061,0.851
	C1103.722,100.92,1103.042,101.2,1102.352,101.48z"/>
<path opacity="0.4" fill="#231F20" d="M1101.882,99.79c11.48-4.7,22.96-9.41,34.45-14.109c5.59-2.29,11.18-4.58,16.78-6.87
	c0.84-0.351,2.14,0.529,2.89,0.84c2.97,1.21,5.94,2.43,8.91,3.649c13.37,5.48,26.729,10.95,40.1,16.421
	c-0.09,0-0.198,0.02-0.31,0.069c-0.69,0.28-1.37,0.561-2.062,0.851c-10.27-4.21-20.56-8.42-30.84-12.631
	c-6.01-2.47-12.029-4.93-18.04-7.399c-0.1-0.04-0.17-0.08-0.22-0.11c0.311-0.149-0.36-0.2,0,0c-0.01,0.011-0.03,0.021-0.05,0.03
	c-0.66,0.27-1.312,0.54-1.97,0.81c-2.972,1.221-5.94,2.431-8.91,3.65c-12.73,5.22-25.472,10.43-38.2,15.65
	c-0.69-0.29-1.37-0.57-2.061-0.851c0,0.561,0,1.13,0,1.69l-0.069,0.16c-0.13-0.051-0.271-0.11-0.4-0.16
	C1101.052,101.141,1101.052,100.13,1101.882,99.79z"/>
<path opacity="0.4" fill="#231F20" d="M1065.992,102.95c0-0.97,0-1.93,0-2.9c1.18,0.48,2.359,0.971,3.54,1.45
	C1068.352,101.98,1067.172,102.471,1065.992,102.95z"/>
<g opacity="0.4">
	<path fill="#E9202B" d="M1182.962,127.08c-9.42,3.86-18.85,7.72-28.27,11.58l-1.03-2.51c0.07-0.03,0.07-0.102-0.141-0.23
		c0.021-0.01,0.041-0.02,0.069-0.028c1.13-0.46,2.25-0.921,3.38-1.382c5.08-2.078,10.16-4.158,15.24-6.238
		c21.78-8.932,43.561-17.84,65.34-26.771c1.182,0.48,2.36,0.97,3.54,1.45c0.181,0.07,0.351,0.11,0.511,0.12
		C1222.052,111.07,1202.512,119.08,1182.962,127.08z"/>
	<path fill="#E9202B" d="M1134.072,131.16c-22.73-9.32-45.46-18.62-68.19-27.93l0.11-0.28c1.18-0.479,2.359-0.97,3.54-1.45
		c17.58,7.21,35.16,14.4,52.74,21.61c10.29,4.21,20.579,8.43,30.868,12.64c0.16,0.07,0.28,0.13,0.37,0.17
		c-0.358,0.19,0.021,0.28,0.15,0.23l1.03,2.51c-0.15,0.062-0.29,0.12-0.44,0.18c-1.438,0.592-3.66-0.908-4.938-1.438
		C1144.232,135.32,1139.152,133.24,1134.072,131.16z"/>
	<path fill="#E9202B" d="M1134.862,74.73c-21.771,8.93-43.55,17.84-65.33,26.77c-1.181-0.479-2.36-0.97-3.54-1.45
		c0,0.971,0,1.931,0,2.9l-0.11,0.28c-0.229-0.09-0.46-0.19-0.688-0.28c-1.42-0.59-1.42-2.32,0-2.9
		c19.648-8.04,39.29-16.09,58.93-24.13c9.57-3.92,19.141-7.84,28.71-11.76c1.44-0.59,3.66,0.91,4.94,1.44
		c5.08,2.079,10.158,4.159,15.238,6.239c22.87,9.36,45.73,18.73,68.592,28.09c-0.16,0.011-0.33,0.051-0.512,0.12
		c-1.18,0.48-2.358,0.971-3.54,1.45c-17.58-7.21-35.16-14.399-52.739-21.609c-10.289-4.21-20.579-8.431-30.869-12.641
		c-0.16-0.07-0.28-0.13-0.37-0.17c0.54-0.28-0.62-0.37-0.011,0c-0.021,0.01-0.039,0.021-0.069,0.03c-1.13,0.46-2.25,0.92-3.38,1.38
		C1145.032,70.57,1139.952,72.65,1134.862,74.73z"/>
</g>
<path opacity="0.4" d="M1028.112,100.83c0.55,0.22,1.09,0.45,1.64,0.67c-1.18,0.48-2.359,0.971-3.54,1.45c0-0.97,0-1.93,0-2.9
	C1026.852,100.311,1027.482,100.57,1028.112,100.83z"/>
<g opacity="0.4">
	<path fill="#E9202B" d="M1153.542,50.8c0.28-0.14,0.29-0.199,0.21-0.229l1.021-2.49c42.198,17.29,84.408,34.57,126.608,51.851
		c-0.16,0-0.33,0.04-0.52,0.119c-1.182,0.48-2.352,0.96-3.53,1.45c-23.47-9.62-46.95-19.229-70.42-28.85
		c-13.22-5.41-26.43-10.82-39.65-16.24c-3.81-1.55-7.608-3.11-11.42-4.67C1155.082,51.42,1154.313,51.11,1153.542,50.8z"/>
	<path fill="#E9202B" d="M1153.332,152.431c0.15,0.04,0.63-0.052,0.39-0.15c-0.06-0.021-0.118-0.05-0.18-0.08
		c0.04-0.02,0.09-0.04,0.15-0.06c41.21-16.882,82.43-33.762,123.64-50.642c0.55,0.221,1.09,0.45,1.64,0.67
		c0.632,0.261,1.262,0.521,1.892,0.78c0.188,0.08,0.358,0.12,0.52,0.12c-0.81,0.32-1.608,0.65-2.42,0.979
		c-24.66,10.101-49.32,20.2-73.979,30.311c-12.9,5.28-25.79,10.56-38.69,15.84c-3.479,1.43-6.97,2.86-10.46,4.29
		c-1.15,0.47-2.02,1.05-3.24,0.55c-0.09-0.04-0.188-0.08-0.278-0.12L1153.332,152.431z"/>
	<path fill="#E9202B" d="M1100.172,130.351c13.221,5.408,26.432,10.818,39.65,16.238c3.8,1.562,7.609,3.11,11.41,4.67
		c0.77,0.32,1.54,0.632,2.31,0.94c-0.28,0.14-0.29,0.2-0.21,0.23l-1.02,2.488c-42.07-17.229-84.142-34.46-126.21-51.688l0.108-0.28
		c1.181-0.479,2.36-0.97,3.54-1.45C1053.222,111.12,1076.702,120.73,1100.172,130.351z"/>
	<path fill="#E9202B" d="M1102.102,68.65c12.891-5.29,25.789-10.57,38.689-15.851c3.48-1.43,6.97-2.859,10.45-4.279
		c1.16-0.48,2.03-1.061,3.25-0.561c0.09,0.04,0.188,0.08,0.28,0.12l-1.021,2.49c-0.149-0.04-0.63,0.05-0.39,0.15
		c0.06,0.02,0.12,0.05,0.18,0.079c-0.04,0.021-0.09,0.04-0.15,0.061c-41.22,16.88-82.42,33.75-123.64,50.64
		c-0.55-0.22-1.09-0.45-1.64-0.67c-0.63-0.26-1.261-0.52-1.9-0.78c0,0.971,0,1.931,0,2.9l-0.109,0.28
		c-0.229-0.09-0.45-0.19-0.681-0.28c-1.42-0.59-1.42-2.31,0-2.9c0.9-0.359,1.8-0.729,2.7-1.1
		C1052.782,88.851,1077.442,78.75,1102.102,68.65z"/>
</g>
<path opacity="0.4" fill="#FFFFFF" d="M1362.33,575.79l-81.41,142.42l-0.41-0.7L1198.28,576.5l83.1-0.36L1362.33,575.79z
	 M1280.72,684.33l54.34-95.09l-109.51,0.479L1280.72,684.33z"/>
<polygon opacity="0.4" fill="#357835" points="1335.06,593.24 1280.72,688.33 1225.55,593.72 "/>
<polygon opacity="0.4" points="1198.28,576.5 1280.51,717.51 1279.31,718.21 1089.56,718.21 1253.62,717.5 1170.97,575.79 
	1281.38,575.79 1281.38,576.14 "/>
<path opacity="0.4" fill="#FFFFFF" d="M1170.97,575.79l82.65,141.71l-164.061,0.71L1170.97,575.79z M1226.35,704.28l-55.17-94.61
	l-54.35,95.09L1226.35,704.28z"/>
<polygon opacity="0.4" fill="#CE3C3C" points="1171.18,609.67 1226.35,704.28 1116.83,704.76 "/>
<polygon opacity="0.4" points="1170.97,575.79 1089.56,718.21 1066.91,718.21 1148.32,575.79 "/>
<path opacity="0.4" fill="#FFFFFF" d="M1148.32,575.79l-81.41,142.42L984.26,576.5L1148.32,575.79z M1066.7,684.33l54.35-95.09
	l-109.52,0.479L1066.7,684.33z"/>
<polygon opacity="0.4" points="1148.32,575.79 984.26,576.5 1066.91,718.21 879.38,718.21 1043.43,717.5 960.78,575.79 "/>
<polygon opacity="0.4" fill="#357835" points="1121.05,593.24 1066.7,688.33 1011.53,593.72 "/>
<path opacity="0.4" fill="#FFFFFF" d="M960.78,575.79l82.649,141.71l-164.05,0.71L960.78,575.79z M1016.16,704.28l-55.17-94.61
	l-54.351,95.09L1016.16,704.28z"/>
<polygon opacity="0.4" fill="#297BB3" points="960.99,609.67 1016.16,704.28 906.64,704.76 "/>
<polygon opacity="0.4" points="960.78,575.79 879.38,718.21 856.95,718.21 938.35,575.79 "/>
<path opacity="0.4" fill="#FFFFFF" d="M938.35,575.79L856.95,718.21L774.3,576.5L938.35,575.79z M856.74,684.33l54.35-95.09
	l-109.52,0.479L856.74,684.33z"/>
<polygon opacity="0.4" points="938.35,575.79 774.3,576.5 856.95,718.21 670.94,718.21 834.99,717.5 752.35,575.79 "/>
<polygon opacity="0.4" fill="#357835" points="911.09,593.24 856.74,688.33 801.57,593.72 "/>
<path opacity="0.4" fill="#FFFFFF" d="M752.35,575.79L834.99,717.5l-164.05,0.71L752.35,575.79z M807.72,704.28l-55.17-94.61
	l-54.34,95.09L807.72,704.28z"/>
<polygon opacity="0.4" fill="#CE3C3C" points="752.55,609.67 807.72,704.28 698.21,704.76 "/>
<polygon opacity="0.4" points="752.35,575.79 670.94,718.21 646.92,718.21 728.32,575.79 "/>
<path opacity="0.4" fill="#FFFFFF" d="M728.32,575.79l-81.4,142.42L564.27,576.5L728.32,575.79z M646.71,684.33l54.35-95.09
	l-109.52,0.479L646.71,684.33z"/>
<polygon opacity="0.4" points="728.32,575.79 564.27,576.5 646.92,718.21 458.11,718.21 622.16,717.5 539.51,575.79 "/>
<polygon opacity="0.4" fill="#357835" points="701.06,593.24 646.71,688.33 591.54,593.72 "/>
<path opacity="0.4" fill="#FFFFFF" d="M539.51,575.79l82.65,141.71l-164.05,0.71L539.51,575.79z M594.89,704.28l-55.17-94.61
	l-54.35,95.09L594.89,704.28z"/>
<polygon opacity="0.4" points="539.72,609.67 594.89,704.28 485.37,704.76 "/>
<polygon opacity="0.4" points="539.51,575.79 458.11,718.21 431.29,718.21 512.7,575.79 "/>
<path opacity="0.4" fill="#FFFFFF" d="M512.7,575.79l-81.41,142.42L348.65,576.5L512.7,575.79z M431.09,684.33l54.34-95.09
	l-109.52,0.479L431.09,684.33z"/>
<polygon opacity="0.4" points="512.7,575.79 348.65,576.5 431.29,718.21 240.52,718.21 404.57,717.5 321.92,575.79 "/>
<polygon opacity="0.4" fill="#357835" points="485.43,593.24 431.09,688.33 375.91,593.72 "/>
<path opacity="0.4" fill="#FFFFFF" d="M321.92,575.79l82.65,141.71l-164.05,0.71L321.92,575.79z M377.3,704.28l-55.17-94.61
	l-54.35,95.09L377.3,704.28z"/>
<polygon opacity="0.4" fill="#CE3C3C" points="322.13,609.67 377.3,704.28 267.78,704.76 "/>
<polygon opacity="0.4" points="321.92,575.79 240.52,718.21 215.89,718.21 297.3,575.79 "/>
<path opacity="0.4" fill="#FFFFFF" d="M297.3,575.79l-81.41,142.42L133.25,576.5L297.3,575.79z M215.69,684.33l54.34-95.09
	l-109.52,0.479L215.69,684.33z"/>
<polygon opacity="0.4" points="297.3,575.79 133.25,576.5 215.89,718.21 26,718.21 190.05,717.5 107.41,575.79 "/>
<polygon opacity="0.4" fill="#357835" points="270.03,593.24 215.69,688.33 160.51,593.72 "/>
<path opacity="0.4" fill="#FFFFFF" d="M107.41,575.79l82.64,141.71L26,718.21L107.41,575.79z M162.78,704.28l-55.17-94.61
	l-54.34,95.09L162.78,704.28z"/>
<polygon opacity="0.4" fill="#297BB3" points="107.61,608.67 162.78,703.28 53.27,703.76 "/>
<polygon opacity="0.4" points="107.41,575.79 26,718.21 1.39,718.21 82.8,575.79 "/>
<path opacity="0.4" fill="#FFFFFF" d="M82.8,575.79L1.39,718.21L-81.25,576.5L82.8,575.79z M1.19,684.33l54.34-95.09l-109.52,0.479
	L1.19,684.33z"/>
<polygon opacity="0.4" fill="#357835" points="55.53,593.24 1.19,688.33 -53.99,593.72 "/>
<polygon opacity="0.4" fill="none" points="107.41,575.79 190.05,717.5 26,718.21 "/>
<polygon opacity="0.4" fill="none" points="321.92,575.79 404.57,717.5 240.52,718.21 "/>
<polygon opacity="0.4" fill="none" points="539.51,575.79 622.16,717.5 458.11,718.21 "/>
<polygon opacity="0.4" fill="none" points="752.35,575.79 834.99,717.5 670.94,718.21 "/>
<polygon opacity="0.4" fill="none" points="960.78,575.79 1043.43,717.5 879.38,718.21 "/>
<polygon opacity="0.4" fill="none" points="1170.97,575.79 1253.62,717.5 1089.56,718.21 "/>
<polygon opacity="0.4" fill="none" points="215.89,718.21 133.25,576.5 297.3,575.79 "/>
<polygon opacity="0.4" fill="none" points="431.29,718.21 348.65,576.5 512.7,575.79 "/>
<polygon opacity="0.4" fill="none" points="646.92,718.21 564.27,576.5 728.32,575.79 "/>
<polygon opacity="0.4" fill="none" points="856.95,718.21 774.3,576.5 938.35,575.79 "/>
<polygon opacity="0.4" fill="none" points="1066.91,718.21 984.26,576.5 1148.32,575.79 "/>
<polygon opacity="0.4" fill="none" points="1.39,718.21 -81.25,576.5 82.8,575.79 "/>
<polygon opacity="0.4" fill="none" points="1280.51,717.51 1198.28,576.5 1281.38,576.14 1362.33,575.79 1280.92,718.21 "/>
<polyline opacity="0.9" fill="none" stroke="#CE3C3C" stroke-width="10" stroke-miterlimit="10" points="-3.535,718.21 
	-2.83,718.21 21.93,718.21 212.983,718.21 237.764,718.21 429.701,718.21 456.686,718.21 646.65,718.21 670.818,718.21 
	857.967,718.21 880.535,718.21 1069.212,718.21 1092,718.21 1282.912,718.21 "/>
<polyline fill="none" stroke="#CE3C3C" stroke-width="10" stroke-miterlimit="10" points="-2.833,575.79 77.547,575.79 
	102.265,575.79 292.987,575.79 317.715,575.79 509.332,575.79 536.258,575.79 725.896,575.79 750.031,575.79 936.847,575.79 
	959.375,575.79 1147.737,575.79 1170.486,575.79 1281.38,575.79 "/>
<polyline opacity="0.4" fill="none" stroke="#CE3C3C" stroke-width="10" stroke-miterlimit="10" points="-1.302,525.5 79.079,525.5 
	103.797,525.5 294.519,525.5 319.247,525.5 510.863,525.5 537.79,525.5 727.428,525.5 751.563,525.5 938.379,525.5 960.906,525.5 
	1149.27,525.5 1172.018,525.5 1282.912,525.5 "/>
<polyline opacity="0.4" fill="none" stroke="#CE3C3C" stroke-width="10" stroke-miterlimit="10" points="-2.107,768.5 78.273,768.5 
	102.992,768.5 293.714,768.5 318.441,768.5 510.058,768.5 536.985,768.5 726.623,768.5 750.758,768.5 937.573,768.5 960.102,768.5 
	1148.464,768.5 1171.213,768.5 1282.106,768.5 "/>
</svg>
