<?xml version="1.0" encoding="utf-8"?>
<!-- Generator: Adobe Illustrator 16.0.3, SVG Export Plug-In . SVG Version: 6.00 Build 0)  -->
<!DOCTYPE svg PUBLIC "-//W3C//DTD SVG 1.1//EN" "http://www.w3.org/Graphics/SVG/1.1/DTD/svg11.dtd">
<svg version="1.1" id="Layer_1" xmlns="http://www.w3.org/2000/svg" xmlns:xlink="http://www.w3.org/1999/xlink" x="0px" y="0px"
	 width="1280px" height="200px" viewBox="0 0 1280 200" enable-background="new 0 0 1280 200" xml:space="preserve">
<path opacity="0.2" fill="#E9202B" enable-background="new    " d="M508.415,101.999c-41.21,16.892-82.42,33.76-123.629,50.642
	c-0.06,0.021-0.11,0.041-0.15,0.062c-0.771-0.312-1.54-0.62-2.311-0.939c-3.8-1.561-7.61-3.108-11.41-4.671
	c-13.22-5.42-26.44-10.829-39.65-16.238c-23.47-9.619-46.95-19.229-70.42-28.852c41.21-16.89,82.42-33.76,123.63-50.64
	c0.06-0.03,0.12-0.051,0.16-0.07c0.76,0.32,1.53,0.63,2.3,0.95c3.81,1.56,7.61,3.12,11.42,4.67c13.21,5.42,26.43,10.83,39.65,16.25
	C461.475,82.77,484.945,92.379,508.415,101.999z M473.975,101.999c0-0.061,0-0.109-0.01-0.16c-0.03-0.739-0.512-1.43-1.271-1.409
	c-22.86-9.359-45.721-18.721-68.59-28.091c-5.08-2.08-10.16-4.159-15.25-6.239c-1.28-0.529-3.49-2.029-4.94-1.439
	c-9.57,3.92-19.14,7.84-28.71,11.76c-19.64,8.04-39.28,16.09-58.92,24.13c-1.42,0.591-1.42,2.312,0,2.9
	c0.23,0.09,0.46,0.189,0.69,0.279c22.73,9.311,45.46,18.608,68.18,27.931c5.08,2.08,10.17,4.16,15.25,6.239
	c1.28,0.53,3.5,2.03,4.94,1.438c0.15-0.061,0.29-0.118,0.44-0.18c9.42-3.86,18.85-7.721,28.271-11.58
	c19.549-8,39.09-16.011,58.64-24.011c0.76,0.021,1.239-0.67,1.271-1.409C473.975,102.109,473.975,102.06,473.975,101.999z"/>
<path opacity="0.2" enable-background="new    " d="M433.735,101.839c-12.729,5.21-25.47,10.431-38.2,15.65
	c-2.97,1.21-5.94,2.43-8.91,3.649c-0.66,0.271-1.32,0.54-1.98,0.811c-0.02,0.01-0.03,0.01-0.04,0.021
	c-0.05-0.03-0.12-0.07-0.22-0.11c-6.02-2.46-12.03-4.93-18.05-7.39c-10.27-4.21-20.56-8.421-30.84-12.631
	c12.73-5.21,25.47-10.43,38.2-15.649c2.98-1.21,5.95-2.43,8.92-3.649c0.66-0.271,1.31-0.54,1.97-0.811
	c0.01-0.01,0.03-0.01,0.04-0.021c0.05,0.03,0.12,0.07,0.22,0.109c6.021,2.461,12.04,4.931,18.05,7.391
	C413.175,93.419,423.455,97.629,433.735,101.839z"/>
<path opacity="0.2" enable-background="new    " d="M513.735,101.839c0.01,0.051,0.021,0.11,0.01,0.16
	C513.745,101.949,513.735,101.898,513.735,101.839z"/>
<path opacity="0.2" enable-background="new    " d="M513.745,101.999c0.012,0.061,0,0.109-0.01,0.16
	C513.735,102.109,513.745,102.049,513.745,101.999z"/>
<path opacity="0.2" enable-background="new    " d="M513.735,101.839c-0.07-0.52-0.381-1.04-0.979-1.279
	c-0.102-0.04-0.2-0.08-0.302-0.12C513.225,100.398,513.705,101.089,513.735,101.839z"/>
<path opacity="0.2" enable-background="new    " d="M512.755,103.449c0.6-0.25,0.908-0.761,0.979-1.29
	c-0.021,0.739-0.5,1.42-1.261,1.41C512.565,103.529,512.665,103.489,512.755,103.449z"/>
<path opacity="0.2" enable-background="new    " d="M512.755,100.56c0.6,0.239,0.908,0.761,0.979,1.279c0,0.061,0.01,0.11,0.01,0.16
	s-0.01,0.109-0.01,0.16c-0.07,0.529-0.38,1.04-0.979,1.29c-0.092,0.04-0.189,0.08-0.28,0.12c-0.159,0-0.33-0.04-0.521-0.12
	c-0.63-0.261-1.271-0.521-1.898-0.78c-0.55-0.22-1.091-0.449-1.642-0.67c1.182-0.479,2.36-0.97,3.54-1.45
	c0.182-0.069,0.352-0.109,0.5-0.109C512.555,100.479,512.655,100.52,512.755,100.56z"/>
<path opacity="0.2" fill="#231F20" enable-background="new    " d="M473.965,101.839c0.01,0.051,0.01,0.101,0.01,0.16
	C473.975,101.949,473.965,101.898,473.965,101.839z"/>
<path opacity="0.2" fill="#231F20" enable-background="new    " d="M473.975,101.999c0,0.061,0,0.109-0.01,0.16
	C473.965,102.1,473.975,102.049,473.975,101.999z"/>
<path opacity="0.2" fill="#231F20" enable-background="new    " d="M473.965,101.839c-0.069-0.52-0.382-1.04-0.99-1.29
	c-0.09-0.04-0.189-0.079-0.279-0.119C473.455,100.409,473.935,101.1,473.965,101.839z"/>
<path opacity="0.2" fill="#231F20" enable-background="new    " d="M472.975,103.449c0.608-0.25,0.921-0.771,0.99-1.29
	c-0.03,0.739-0.512,1.43-1.271,1.41C472.785,103.529,472.885,103.489,472.975,103.449z"/>
<path opacity="0.2" fill="#231F20" enable-background="new    " d="M472.975,100.549c0.608,0.25,0.921,0.771,0.99,1.29
	c0,0.062,0.01,0.11,0.01,0.16s-0.01,0.101-0.01,0.16c-0.069,0.521-0.382,1.04-0.99,1.29c-0.09,0.04-0.189,0.08-0.279,0.12
	c-0.16-0.011-0.33-0.051-0.511-0.12c-1.18-0.479-2.359-0.971-3.539-1.45c1.18-0.479,2.359-0.97,3.539-1.45
	c0.181-0.069,0.351-0.109,0.511-0.119C472.785,100.47,472.885,100.509,472.975,100.549z"/>
<path opacity="0.2" fill="#231F20" enable-background="new    " d="M436.104,100.93c0.471-0.011,0.761,0.449,0.74,0.909
	c-0.012-0.34-0.189-0.68-0.58-0.84C436.215,100.979,436.155,100.959,436.104,100.93z"/>
<path opacity="0.2" fill="#231F20" enable-background="new    " d="M436.845,101.839c0.021,0.48-0.279,0.94-0.762,0.91
	c0.063-0.021,0.12-0.05,0.182-0.069C436.655,102.52,436.834,102.18,436.845,101.839z"/>
<path opacity="0.2" fill="#231F20" enable-background="new    " d="M435.796,102.688c-0.689-0.279-1.37-0.561-2.062-0.851
	c0.689-0.279,1.37-0.56,2.062-0.84c0.108-0.05,0.22-0.069,0.311-0.069c0.05,0.029,0.109,0.05,0.159,0.069
	c0.391,0.16,0.568,0.5,0.58,0.84c-0.012,0.341-0.189,0.681-0.58,0.841c-0.062,0.021-0.12,0.05-0.182,0.069
	C435.995,102.749,435.896,102.729,435.796,102.688z"/>
<path opacity="0.2" enable-background="new    " d="M384.835,51.069c0.08,0.029,0.07,0.09-0.2,0.22
	c-0.061-0.021-0.12-0.05-0.18-0.069C384.215,51.119,384.685,51.029,384.835,51.069z"/>
<path opacity="0.2" enable-background="new    " d="M384.815,152.779c0.23,0.1-0.24,0.188-0.39,0.149
	c-0.08-0.031-0.07-0.093,0.21-0.229C384.695,152.729,384.755,152.759,384.815,152.779z"/>
<path opacity="0.2" fill="#231F20" enable-background="new    " d="M384.615,136.419c0.21,0.13,0.21,0.2,0.14,0.229
	c-0.13,0.051-0.51-0.039-0.15-0.229C384.605,136.419,384.605,136.419,384.615,136.419z"/>
<path opacity="0.2" fill="#231F20" enable-background="new    " d="M384.605,121.97C384.955,122.18,384.285,122.119,384.605,121.97
	L384.605,121.97z"/>
<path opacity="0.2" fill="#231F20" enable-background="new    " d="M384.625,81.709C384.265,81.499,384.965,81.549,384.625,81.709
	L384.625,81.709z"/>
<path opacity="0.2" fill="#231F20" enable-background="new    " d="M384.645,67.579c-0.61-0.37,0.56-0.28,0.01,0
	C384.655,67.569,384.655,67.569,384.645,67.579z"/>
<path opacity="0.2" fill="#231F20" enable-background="new    " d="M435.796,100.999c-0.689,0.28-1.37,0.561-2.062,0.84
	c-10.28-4.21-20.561-8.42-30.84-12.63c-6.01-2.46-12.03-4.93-18.05-7.391c-0.1-0.039-0.17-0.079-0.22-0.109c0.34-0.16-0.36-0.21,0,0
	c-0.01,0.011-0.03,0.011-0.04,0.021c-0.66,0.271-1.31,0.54-1.97,0.811c-2.97,1.22-5.94,2.439-8.92,3.649
	c-12.73,5.221-25.47,10.439-38.2,15.649c-0.69-0.29-1.37-0.569-2.06-0.85l-0.06-0.15c11.35-4.659,22.69-9.3,34.04-13.949
	c5.6-2.301,11.19-4.591,16.79-6.881c0.84-0.35,2.14,0.54,2.88,0.841c2.97,1.221,5.94,2.439,8.92,3.649
	c13.37,5.479,26.73,10.96,40.101,16.43C436.015,100.93,435.905,100.949,435.796,100.999z"/>
<path opacity="0.2" fill="#231F20" enable-background="new    " d="M333.435,100.989c0.69,0.279,1.37,0.56,2.06,0.85
	c-0.689,0.28-1.37,0.561-2.06,0.841C333.435,102.119,333.435,101.56,333.435,100.989z"/>
<path opacity="0.2" fill="#231F20" enable-background="new    " d="M395.535,117.489c12.73-5.221,25.471-10.44,38.2-15.65
	c0.689,0.29,1.369,0.57,2.062,0.851c0.101,0.04,0.198,0.061,0.289,0.061c-11.421,4.689-22.851,9.359-34.271,14.04
	c-5.59,2.3-11.19,4.59-16.78,6.88c-0.84,0.352-2.14-0.54-2.89-0.84c-2.97-1.22-5.94-2.438-8.91-3.648
	c-13.42-5.5-26.84-11-40.26-16.49c-0.83-0.34-0.83-1.351,0-1.689c0.13-0.05,0.27-0.109,0.4-0.16l0.06,0.15c0,0.569,0,1.13,0,1.689
	c0.69-0.279,1.37-0.561,2.06-0.841c10.28,4.21,20.57,8.421,30.84,12.631c6.02,2.46,12.03,4.931,18.05,7.391
	c0.1,0.04,0.17,0.079,0.22,0.109c-0.32,0.148,0.35,0.21,0,0c0.01-0.012,0.02-0.012,0.04-0.021c0.66-0.271,1.32-0.54,1.98-0.811
	C389.595,119.919,392.565,118.699,395.535,117.489z"/>
<path opacity="0.2" fill="#231F20" enable-background="new    " d="M297.085,103.449c0-0.971,0-1.931,0-2.9
	c1.18,0.48,2.36,0.971,3.54,1.45C299.445,102.479,298.265,102.97,297.085,103.449z"/>
<g opacity="0.2">
	<path fill="#E9202B" d="M385.785,139.159c-0.15,0.062-0.29,0.12-0.44,0.18c-1.439,0.592-3.66-0.908-4.939-1.438
		c-5.08-2.079-10.17-4.159-15.25-6.239c-22.72-9.32-45.45-18.62-68.18-27.931l0.11-0.279c1.18-0.479,2.36-0.971,3.54-1.45
		c17.58,7.21,35.16,14.399,52.74,21.61c10.29,4.21,20.58,8.43,30.87,12.64c0.16,0.07,0.28,0.13,0.37,0.17
		c-0.36,0.19,0.02,0.28,0.15,0.23L385.785,139.159z"/>
	<g>
		<path fill="#E9202B" d="M403.305,128.77c21.778-8.932,43.56-17.84,65.34-26.771c1.18,0.479,2.359,0.97,3.539,1.45
			c0.181,0.069,0.351,0.109,0.511,0.12c-19.55,8-39.091,16.01-58.64,24.01c-9.42,3.859-18.85,7.72-28.271,11.58l-1.03-2.511
			c0.07-0.029,0.07-0.102-0.14-0.229c0.021-0.01,0.04-0.021,0.07-0.028c1.12-0.46,2.25-0.92,3.38-1.382
			C393.145,132.93,398.225,130.85,403.305,128.77z"/>
		<path fill="#E9202B" d="M404.105,72.339c22.87,9.37,45.729,18.73,68.59,28.091c-0.16,0.01-0.33,0.05-0.511,0.119
			c-1.18,0.48-2.359,0.971-3.539,1.45c-17.58-7.21-35.171-14.399-52.75-21.609c-10.29-4.21-20.58-8.431-30.87-12.641
			c-0.16-0.069-0.28-0.13-0.37-0.17c0.55-0.28-0.62-0.37-0.01,0c-0.02,0.01-0.04,0.021-0.07,0.029c-1.12,0.46-2.25,0.921-3.37,1.381
			c-5.09,2.079-10.17,4.159-15.25,6.25c-21.78,8.92-43.55,17.829-65.33,26.76c-1.18-0.479-2.36-0.97-3.54-1.45
			c0,0.971,0,1.931,0,2.9l-0.11,0.279c-0.23-0.09-0.46-0.189-0.69-0.279c-1.42-0.591-1.42-2.311,0-2.9
			c19.64-8.04,39.28-16.09,58.92-24.13c9.57-3.92,19.14-7.84,28.71-11.76c1.45-0.591,3.66,0.909,4.94,1.439
			C393.945,68.18,399.025,70.259,404.105,72.339z"/>
	</g>
</g>
<path opacity="0.2" enable-background="new    " d="M259.205,101.329c0.55,0.22,1.09,0.45,1.64,0.67
	c-1.18,0.479-2.36,0.971-3.54,1.45c0-0.971,0-1.931,0-2.9C257.945,100.81,258.575,101.069,259.205,101.329z"/>
<g opacity="0.2">
	<path fill="#E9202B" d="M385.855,48.569c42.2,17.29,84.4,34.569,126.6,51.869c-0.148,0-0.318,0.04-0.5,0.109
		c-1.18,0.48-2.358,0.971-3.54,1.45c-23.47-9.62-46.938-19.229-70.409-28.84c-13.221-5.42-26.439-10.83-39.649-16.25
		c-3.81-1.551-7.61-3.11-11.42-4.67c-0.77-0.32-1.54-0.631-2.3-0.95c0.27-0.13,0.28-0.189,0.2-0.22L385.855,48.569z"/>
	<path fill="#E9202B" d="M436.075,134.859c-12.898,5.279-25.79,10.56-38.689,15.84c-3.49,1.43-6.97,2.858-10.46,4.29
		c-1.16,0.47-2.03,1.05-3.24,0.55c-0.09-0.04-0.19-0.08-0.28-0.12l1.02-2.487c0.15,0.039,0.62-0.053,0.39-0.149
		c-0.06-0.021-0.12-0.052-0.18-0.08c0.04-0.021,0.09-0.04,0.15-0.062c41.208-16.882,82.418-33.75,123.628-50.642
		c0.552,0.221,1.092,0.45,1.642,0.67c0.631,0.261,1.271,0.521,1.898,0.78c0.189,0.08,0.36,0.12,0.521,0.12
		c-0.812,0.329-1.619,0.659-2.43,0.989C485.396,114.659,460.735,124.759,436.075,134.859z"/>
	<path fill="#E9202B" d="M385.585,48.459c0.09,0.04,0.18,0.07,0.27,0.109l-1.02,2.5c-0.15-0.039-0.62,0.051-0.38,0.15
		c0.06,0.021,0.12,0.05,0.18,0.069c-0.04,0.021-0.1,0.04-0.16,0.069c-41.21,16.881-82.42,33.75-123.63,50.641
		c-0.55-0.22-1.09-0.45-1.64-0.67c-0.63-0.261-1.26-0.521-1.9-0.78l-0.11-0.27c0.67-0.28,1.35-0.551,2.02-0.83
		c24.66-10.101,49.32-20.2,73.97-30.301c12.9-5.29,25.8-10.569,38.69-15.851c3.49-1.43,6.98-2.859,10.46-4.279
		C383.495,48.539,384.365,47.97,385.585,48.459z"/>
	<path fill="#E9202B" d="M383.405,155.419c-42.3-17.33-84.6-34.648-126.89-51.97c-1.43-0.58-1.43-2.311,0-2.891
		c0.23-0.09,0.45-0.189,0.68-0.279l0.11,0.27c0,0.971,0,1.931,0,2.9c1.18-0.48,2.36-0.971,3.54-1.45
		c23.47,9.62,46.95,19.229,70.42,28.852c13.21,5.408,26.43,10.818,39.65,16.238c3.8,1.562,7.61,3.11,11.41,4.67
		c0.771,0.32,1.54,0.632,2.31,0.94c-0.28,0.14-0.29,0.198-0.21,0.229L383.405,155.419z"/>
</g>
<path opacity="0.2" fill="#E9202B" enable-background="new    " d="M765.256,101.999c-41.211,16.88-82.434,33.76-123.643,50.642
	c-0.062,0.021-0.107,0.041-0.148,0.062c-0.771-0.312-1.541-0.62-2.312-0.939c-3.801-1.561-7.609-3.108-11.41-4.671
	c-13.22-5.42-26.43-10.829-39.648-16.238c-23.471-9.619-46.95-19.229-70.42-28.852c41.21-16.88,82.43-33.76,123.641-50.64
	c0.061-0.021,0.108-0.04,0.149-0.062c0.771,0.312,1.527,0.62,2.299,0.94c3.812,1.56,7.609,3.12,11.42,4.67
	c13.212,5.42,26.431,10.83,39.65,16.25C718.305,82.77,741.785,92.379,765.256,101.999z M730.805,101.999
	c0.011-0.05,0-0.109-0.01-0.16c-0.029-0.75-0.512-1.439-1.279-1.399c-22.86-9.369-45.721-18.729-68.58-28.101
	c-5.079-2.08-10.159-4.159-15.239-6.239c-1.281-0.529-3.5-2.029-4.951-1.439c-0.148,0.061-0.289,0.12-0.438,0.18
	c-9.411,3.86-18.84,7.721-28.261,11.58c-19.409,7.95-38.829,15.9-58.239,23.86c-0.229,0.09-0.46,0.189-0.689,0.279
	c-1.42,0.58-1.42,2.311,0,2.891c22.96,9.399,45.92,18.81,68.88,28.21c5.08,2.08,10.16,4.16,15.24,6.239
	c1.279,0.53,3.5,2.04,4.939,1.438c9.568-3.92,19.142-7.84,28.711-11.76c19.549-8,39.09-16.011,58.646-24.011
	c0.764,0.011,1.24-0.67,1.264-1.409C730.805,102.109,730.814,102.06,730.805,101.999z"/>
<path opacity="0.2" enable-background="new    " d="M659.725,88.509c10.281,4.211,20.57,8.421,30.841,12.631
	c-12.729,5.21-25.47,10.42-38.199,15.641c-2.971,1.22-5.938,2.43-8.91,3.649c-0.658,0.271-1.318,0.54-1.979,0.811
	c-0.021,0.01-0.041,0.02-0.052,0.02c-0.051-0.028-0.119-0.06-0.209-0.1c-6.012-2.471-12.03-4.931-18.051-7.391
	c-10.271-4.221-20.561-8.431-30.83-12.63c12.729-5.221,25.471-10.431,38.199-15.649c2.972-1.221,5.939-2.431,8.91-3.65
	c0.661-0.27,1.311-0.54,1.969-0.81c0.021-0.011,0.041-0.021,0.053-0.03c0.051,0.03,0.119,0.07,0.221,0.109
	C647.695,83.579,653.715,86.039,659.725,88.509z"/>
<path opacity="0.2" enable-background="new    " d="M770.574,101.839c0.014,0.051,0.014,0.11,0.014,0.16
	C770.584,101.949,770.574,101.898,770.574,101.839z"/>
<path opacity="0.2" enable-background="new    " d="M770.584,101.999c0,0.061,0,0.109-0.01,0.16
	C770.574,102.109,770.584,102.049,770.584,101.999z"/>
<path opacity="0.2" enable-background="new    " d="M770.574,101.839c-0.066-0.52-0.379-1.04-0.986-1.279
	c-0.104-0.04-0.201-0.08-0.303-0.12C770.055,100.398,770.547,101.089,770.574,101.839z"/>
<path opacity="0.2" enable-background="new    " d="M769.584,103.449c0.609-0.25,0.922-0.761,0.99-1.29
	c-0.027,0.739-0.511,1.42-1.271,1.41C769.396,103.529,769.494,103.489,769.584,103.449z"/>
<path opacity="0.2" enable-background="new    " d="M765.256,101.999c1.18-0.49,2.351-0.97,3.527-1.45
	c0.182-0.069,0.352-0.109,0.5-0.109c0.102,0.04,0.198,0.08,0.301,0.12c0.609,0.239,0.922,0.761,0.988,1.279
	c0,0.061,0.012,0.11,0.012,0.16s-0.012,0.109-0.012,0.16c-0.066,0.529-0.379,1.04-0.988,1.29c-0.092,0.04-0.189,0.08-0.279,0.119
	c-0.159,0-0.33-0.039-0.521-0.119c-0.629-0.261-1.26-0.521-1.889-0.78C766.346,102.449,765.805,102.22,765.256,101.999z"/>
<path opacity="0.2" fill="#231F20" enable-background="new    " d="M730.797,101.839c0.01,0.051,0.021,0.11,0.01,0.16
	C730.805,101.949,730.797,101.898,730.797,101.839z"/>
<path opacity="0.2" fill="#231F20" enable-background="new    " d="M730.805,101.999c0.011,0.061,0,0.109-0.01,0.16
	C730.797,102.109,730.805,102.049,730.805,101.999z"/>
<path opacity="0.2" fill="#231F20" enable-background="new    " d="M730.797,101.839c-0.07-0.52-0.383-1.04-0.979-1.279
	c-0.101-0.04-0.201-0.08-0.302-0.12C730.285,100.398,730.766,101.089,730.797,101.839z"/>
<path opacity="0.2" fill="#231F20" enable-background="new    " d="M729.814,103.449c0.6-0.25,0.909-0.761,0.979-1.29
	c-0.021,0.739-0.5,1.42-1.262,1.41C729.625,103.529,729.725,103.489,729.814,103.449z"/>
<path opacity="0.2" fill="#231F20" enable-background="new    " d="M729.814,100.56c0.6,0.239,0.909,0.761,0.979,1.279
	c0,0.061,0.01,0.11,0.01,0.16s-0.01,0.109-0.01,0.16c-0.07,0.529-0.383,1.04-0.979,1.29c-0.091,0.04-0.189,0.08-0.279,0.12
	c-0.16,0-0.33-0.04-0.521-0.12c-1.182-0.479-2.36-0.971-3.541-1.45c1.181-0.479,2.359-0.97,3.541-1.45
	c0.181-0.069,0.351-0.109,0.5-0.109C729.615,100.479,729.715,100.52,729.814,100.56z"/>
<path opacity="0.2" fill="#231F20" enable-background="new    " d="M692.936,100.22c0.47-0.011,0.761,0.449,0.74,0.92
	c-0.014-0.341-0.184-0.681-0.58-0.851C693.047,100.27,692.984,100.249,692.936,100.22z"/>
<path opacity="0.2" fill="#231F20" enable-background="new    " d="M693.096,101.979c0.379-0.159,0.56-0.479,0.58-0.811
	c0,0.46-0.28,0.891-0.739,0.88C692.984,102.02,693.047,101.999,693.096,101.979z"/>
<path opacity="0.2" fill="#231F20" enable-background="new    " d="M693.096,100.289c0.396,0.17,0.566,0.51,0.58,0.851
	c0,0.011,0,0.021,0,0.029c-0.021,0.33-0.201,0.65-0.58,0.811c-0.051,0.021-0.11,0.04-0.159,0.069c-0.091,0-0.201-0.02-0.313-0.069
	c-0.688-0.279-1.367-0.561-2.061-0.84c0.69-0.29,1.37-0.569,2.061-0.851c0.109-0.05,0.223-0.069,0.313-0.069
	C692.984,100.249,693.047,100.27,693.096,100.289z"/>
<path opacity="0.2" enable-background="new    " d="M641.676,51.069c0.08,0.029,0.066,0.09-0.211,0.229
	c-0.063-0.029-0.119-0.06-0.182-0.079C641.047,51.119,641.525,51.029,641.676,51.069z"/>
<path opacity="0.2" enable-background="new    " d="M641.646,152.779c0.239,0.1-0.24,0.188-0.39,0.149
	c-0.08-0.031-0.069-0.093,0.209-0.229C641.525,152.729,641.584,152.759,641.646,152.779z"/>
<path opacity="0.2" fill="#231F20" enable-background="new    " d="M641.445,136.419c0.608,0.37-0.552,0.29-0.011,0
	C641.436,136.419,641.436,136.419,641.445,136.419z"/>
<path opacity="0.2" fill="#231F20" enable-background="new    " d="M641.465,80.999C641.104,80.799,641.775,80.85,641.465,80.999
	L641.465,80.999z"/>
<path opacity="0.2" fill="#231F20" enable-background="new    " d="M641.426,121.259
	C641.805,121.47,641.125,121.419,641.426,121.259L641.426,121.259z"/>
<path opacity="0.2" fill="#231F20" enable-background="new    " d="M641.484,67.579c-0.209-0.13-0.209-0.2-0.15-0.229
	c0.133-0.061,0.521,0.04,0.16,0.229C641.484,67.569,641.484,67.579,641.484,67.579z"/>
<path opacity="0.2" fill="#231F20" enable-background="new    " d="M623.165,113.77c6.021,2.46,12.04,4.92,18.052,7.391
	c0.09,0.04,0.158,0.069,0.209,0.1c-0.299,0.16,0.381,0.212,0,0c0.01,0,0.027-0.01,0.051-0.02c0.66-0.271,1.32-0.54,1.979-0.811
	c2.973-1.222,5.939-2.432,8.91-3.649c12.729-5.221,25.471-10.431,38.199-15.641c0.69,0.279,1.37,0.561,2.061,0.84
	c0.109,0.051,0.223,0.069,0.313,0.069c-11.43,4.671-22.852,9.36-34.291,14.04c-5.59,2.29-11.18,4.58-16.778,6.87
	c-0.84,0.352-2.142-0.528-2.891-0.84c-2.97-1.221-5.939-2.431-8.909-3.648c-13.29-5.451-26.57-10.881-39.86-16.331l0.07-0.16
	c0.689-0.279,1.37-0.561,2.061-0.84C602.604,105.339,612.896,109.549,623.165,113.77z"/>
<path opacity="0.2" fill="#231F20" enable-background="new    " d="M590.275,101.979c0-0.561,0-1.13,0-1.689
	c0.689,0.28,1.37,0.561,2.06,0.851C591.646,101.419,590.965,101.699,590.275,101.979z"/>
<path opacity="0.2" fill="#231F20" enable-background="new    " d="M641.035,79.31c0.838-0.351,2.141,0.529,2.891,0.84
	c2.972,1.21,5.938,2.431,8.908,3.649c13.369,5.48,26.729,10.95,40.102,16.421c-0.09,0-0.198,0.021-0.313,0.069
	c-0.688,0.279-1.367,0.561-2.06,0.851c-10.271-4.21-20.561-8.42-30.84-12.631c-6.01-2.47-12.03-4.93-18.041-7.399
	c-0.1-0.039-0.17-0.079-0.219-0.109c0.309-0.149-0.361-0.2,0,0c-0.014,0.011-0.031,0.021-0.053,0.03
	c-0.658,0.27-1.312,0.54-1.97,0.81c-2.971,1.221-5.938,2.431-8.91,3.65c-12.729,5.22-25.47,10.43-38.2,15.649
	c-0.688-0.29-1.368-0.569-2.061-0.851c0,0.561,0,1.13,0,1.689l-0.069,0.16c-0.13-0.051-0.271-0.109-0.398-0.16
	c-0.83-0.34-0.83-1.351,0-1.689c11.479-4.7,22.96-9.41,34.45-14.109C629.845,83.89,635.435,81.6,641.035,79.31z"/>
<path opacity="0.2" fill="#231F20" enable-background="new    " d="M557.455,101.999c-1.18,0.479-2.358,0.971-3.54,1.45
	c0-0.971,0-1.931,0-2.9C555.095,101.029,556.275,101.52,557.455,101.999z"/>
<g opacity="0.2">
	<path fill="#E9202B" d="M641.494,67.579c0.361-0.189-0.027-0.29-0.158-0.229l-1.029-2.511c0.148-0.06,0.289-0.119,0.438-0.18
		c1.451-0.59,3.67,0.91,4.951,1.439c5.08,2.08,10.16,4.159,15.239,6.239c22.859,9.37,45.72,18.73,68.58,28.101
		c-0.149,0-0.319,0.04-0.5,0.109c-1.18,0.48-2.36,0.971-3.541,1.45c-17.58-7.21-35.159-14.399-52.739-21.6
		c-10.289-4.221-20.58-8.44-30.879-12.65C641.695,67.68,641.574,67.619,641.494,67.579z"/>
	<path fill="#E9202B" d="M641.334,67.35c-0.059,0.029-0.059,0.101,0.15,0.229c-0.021,0.01-0.039,0.021-0.07,0.03
		c-1.129,0.46-2.259,0.92-3.378,1.38c-5.08,2.08-10.17,4.159-15.25,6.25c-21.778,8.92-43.55,17.83-65.33,26.76
		c-1.18-0.479-2.358-0.97-3.54-1.45l-0.108-0.27c19.41-7.96,38.83-15.91,58.239-23.86c9.421-3.859,18.852-7.72,28.26-11.58
		L641.334,67.35z"/>
	<path fill="#E9202B" d="M610.195,123.609c10.29,4.21,20.58,8.43,30.87,12.64c0.159,0.07,0.28,0.13,0.37,0.17
		c-0.541,0.29,0.619,0.37,0.011,0c0.021-0.01,0.039-0.021,0.069-0.028c1.13-0.46,2.25-0.92,3.38-1.382
		c5.079-2.078,10.159-4.158,15.239-6.238c21.777-8.932,43.562-17.84,65.34-26.771c1.181,0.479,2.359,0.971,3.541,1.45
		c0.188,0.08,0.357,0.12,0.521,0.12c-19.562,8-39.1,16.01-58.648,24.01c-9.569,3.92-19.143,7.84-28.709,11.76
		c-1.44,0.603-3.661-0.908-4.94-1.438c-5.08-2.08-10.16-4.16-15.24-6.24c-22.96-9.399-45.92-18.811-68.88-28.21
		c-1.42-0.58-1.42-2.311,0-2.891c0.229-0.09,0.46-0.189,0.689-0.279l0.108,0.27c0,0.972,0,1.932,0,2.9
		c1.182-0.479,2.36-0.97,3.54-1.45C575.035,109.209,592.615,116.398,610.195,123.609z"/>
</g>
<path opacity="0.2" enable-background="new    " d="M516.035,101.329c0.55,0.22,1.091,0.45,1.642,0.67
	c-1.182,0.49-2.352,0.971-3.529,1.45c0-0.971,0-1.931,0-2.9C514.775,100.81,515.405,101.069,516.035,101.329z"/>
<g opacity="0.2">
	<path fill="#E9202B" d="M641.465,51.299c0.277-0.14,0.291-0.199,0.211-0.229l1.021-2.49c42.199,17.29,84.393,34.57,126.59,51.859
		c-0.148,0-0.318,0.04-0.5,0.109c-1.18,0.48-2.35,0.96-3.527,1.45c-23.473-9.62-46.951-19.229-70.42-28.84
		c-13.223-5.42-26.44-10.83-39.649-16.25c-3.813-1.55-7.611-3.11-11.421-4.67C642.994,51.919,642.234,51.609,641.465,51.299z"/>
	<path fill="#E9202B" d="M641.256,152.93c0.148,0.041,0.629-0.052,0.389-0.148c-0.061-0.021-0.118-0.051-0.18-0.08
		c0.041-0.021,0.09-0.04,0.148-0.061c41.211-16.882,82.432-33.762,123.643-50.642c0.549,0.221,1.09,0.45,1.639,0.67
		c0.632,0.261,1.261,0.521,1.892,0.78c0.188,0.08,0.358,0.12,0.521,0.12c-0.813,0.329-1.61,0.659-2.42,0.989
		c-24.66,10.101-49.319,20.199-73.979,30.301c-12.892,5.279-25.791,10.56-38.688,15.84c-3.479,1.43-6.973,2.858-10.461,4.29
		c-1.149,0.47-2.021,1.05-3.24,0.55c-0.09-0.04-0.188-0.08-0.278-0.12L641.256,152.93z"/>
	<path fill="#E9202B" d="M641.676,51.069c-0.149-0.04-0.631,0.05-0.393,0.149c0.063,0.021,0.121,0.05,0.182,0.079
		c-0.039,0.021-0.092,0.04-0.149,0.062c-41.209,16.88-82.43,33.76-123.64,50.64c-0.552-0.22-1.092-0.45-1.642-0.67
		c-0.63-0.26-1.26-0.521-1.891-0.78l-0.109-0.27c0.67-0.28,1.34-0.551,2.011-0.83c24.659-10.101,49.319-20.2,73.979-30.301
		c12.89-5.289,25.789-10.569,38.689-15.851c3.479-1.43,6.97-2.859,10.448-4.279c1.16-0.479,2.031-1.05,3.25-0.561
		c0.094,0.04,0.19,0.08,0.281,0.12L641.676,51.069z"/>
	<path fill="#E9202B" d="M641.465,152.699c-0.278,0.14-0.291,0.198-0.209,0.229l-1.021,2.487
		c-42.301-17.33-84.59-34.648-126.891-51.97c-1.42-0.58-1.42-2.311,0-2.891c0.229-0.091,0.46-0.189,0.688-0.28l0.109,0.271
		c0,0.971,0,1.931,0,2.9c1.181-0.48,2.351-0.96,3.53-1.45c23.47,9.62,46.948,19.229,70.42,28.852
		c13.221,5.408,26.431,10.818,39.648,16.238c3.801,1.562,7.609,3.11,11.41,4.67C639.926,152.079,640.695,152.391,641.465,152.699z"
		/>
</g>
<path opacity="0.2" fill="#E9202B" enable-background="new    " d="M41.525,103.729c22.73,9.311,45.46,18.608,68.19,27.931
	c5.08,2.08,10.16,4.16,15.24,6.239c1.28,0.53,3.5,2.03,4.94,1.438c0.15-0.06,0.29-0.118,0.44-0.18
	c9.42-3.86,18.85-7.721,28.27-11.58c19.55-8,39.1-16.011,58.65-24.011c0.76,0.011,1.24-0.67,1.26-1.409
	c0.01-0.04,0.01-0.08,0.01-0.11c0-0.02,0-0.029,0-0.05c0.01-0.05,0-0.109-0.01-0.16c-0.02-0.739-0.5-1.42-1.26-1.409
	c-22.87-9.359-45.73-18.721-68.6-28.091c-5.08-2.08-10.16-4.159-15.24-6.239c-1.28-0.529-3.5-2.029-4.94-1.439
	c-9.57,3.92-19.14,7.84-28.71,11.76c-19.64,8.04-39.28,16.09-58.93,24.13c-1.42,0.591-1.42,2.312,0,2.9
	C41.065,103.539,41.295,103.64,41.525,103.729z M126.875,151.759c-3.8-1.56-7.6-3.108-11.41-4.67
	c-13.22-5.42-26.43-10.83-39.65-16.238c-23.47-9.62-46.95-19.229-70.42-28.852c41.21-16.88,82.43-33.76,123.64-50.64
	c0.06-0.021,0.11-0.04,0.15-0.062c0.77,0.312,1.54,0.62,2.31,0.94c3.8,1.56,7.61,3.119,11.41,4.67
	c13.22,5.42,26.43,10.83,39.65,16.25c23.47,9.609,46.95,19.22,70.42,28.84c-41.21,16.88-82.43,33.76-123.64,50.643
	c-0.06,0.021-0.11,0.039-0.15,0.061C128.415,152.391,127.645,152.079,126.875,151.759z"/>
<path opacity="0.2" fill="#231F20" enable-background="new    " d="M178.485,103.449c-12.73,5.21-25.47,10.43-38.2,15.649
	c-2.97,1.21-5.94,2.431-8.91,3.648c-0.66,0.271-1.32,0.53-1.98,0.8c-0.02,0.012-0.04,0.021-0.05,0.021
	c-0.05-0.03-0.12-0.063-0.21-0.102c-6.02-2.461-12.03-4.931-18.05-7.391c-10.27-4.21-20.55-8.41-30.83-12.63
	c12.73-5.221,25.46-10.431,38.19-15.65c2.97-1.21,5.94-2.43,8.92-3.649c0.65-0.271,1.31-0.54,1.97-0.811
	c0.01-0.01,0.03-0.01,0.04-0.021c0.05,0.03,0.12,0.07,0.22,0.11c6.021,2.46,12.03,4.93,18.05,7.39
	C157.925,95.029,168.205,99.239,178.485,103.449z"/>
<path opacity="0.2" fill="#231F20" enable-background="new    " d="M257.025,103.569c0.09-0.04,0.19-0.08,0.28-0.12
	c0.61-0.25,0.92-0.761,0.99-1.29C258.265,102.898,257.785,103.579,257.025,103.569z"/>
<path opacity="0.2" fill="#231F20" enable-background="new    " d="M256.505,103.449c-0.63-0.261-1.26-0.521-1.89-0.78
	c-0.55-0.22-1.09-0.449-1.64-0.67c1.18-0.49,2.35-0.97,3.53-1.45c0.18-0.069,0.35-0.109,0.5-0.109c0.1,0.04,0.2,0.08,0.3,0.12
	c0.61,0.239,0.92,0.761,0.99,1.279c0,0.061,0.01,0.11,0.01,0.16s-0.01,0.109-0.01,0.16c-0.07,0.529-0.38,1.04-0.99,1.29
	c-0.09,0.04-0.19,0.08-0.28,0.119C256.865,103.569,256.695,103.529,256.505,103.449z"/>
<path opacity="0.2" fill="#231F20" enable-background="new    " d="M258.295,101.839c-0.07-0.52-0.38-1.04-0.99-1.279
	c-0.1-0.04-0.2-0.08-0.3-0.12C257.775,100.398,258.265,101.089,258.295,101.839z"/>
<path opacity="0.2" fill="#231F20" enable-background="new    " d="M217.255,100.43c0.76-0.011,1.24,0.67,1.26,1.409
	c-0.07-0.529-0.38-1.04-0.98-1.29C217.445,100.509,217.345,100.47,217.255,100.43z"/>
<path opacity="0.2" fill="#231F20" enable-background="new    " d="M217.255,103.569c0.09-0.04,0.19-0.08,0.28-0.12
	c0.6-0.25,0.91-0.761,0.98-1.29C218.495,102.898,218.015,103.579,217.255,103.569z"/>
<path opacity="0.2" fill="#231F20" enable-background="new    " d="M218.515,101.839c0.01,0.051,0.02,0.11,0.01,0.16
	c0,0.021,0,0.03,0,0.05c0,0.03,0,0.07-0.01,0.11c-0.07,0.529-0.38,1.04-0.98,1.29c-0.09,0.04-0.19,0.08-0.28,0.119
	c-0.16,0-0.33-0.039-0.52-0.119c-1.18-0.479-2.36-0.971-3.54-1.45c1.18-0.479,2.36-0.97,3.54-1.45c0.19-0.079,0.36-0.119,0.52-0.119
	c0.09,0.04,0.19,0.079,0.28,0.119C218.135,100.799,218.445,101.31,218.515,101.839z"/>
<path opacity="0.2" fill="#231F20" enable-background="new    " d="M180.855,102.539c0.47-0.01,0.76,0.45,0.74,0.91
	c-0.01-0.34-0.19-0.681-0.58-0.84C180.965,102.589,180.905,102.569,180.855,102.539z"/>
<path opacity="0.2" fill="#231F20" enable-background="new    " d="M181.595,103.449c0.02,0.47-0.27,0.93-0.75,0.92
	c0.06-0.021,0.11-0.05,0.17-0.07C181.405,104.14,181.585,103.799,181.595,103.449z"/>
<path opacity="0.2" fill="#231F20" enable-background="new    " d="M180.545,104.299c-0.69-0.279-1.37-0.56-2.06-0.85
	c0.69-0.28,1.37-0.561,2.06-0.84c0.11-0.051,0.22-0.07,0.31-0.07c0.05,0.03,0.11,0.05,0.16,0.07c0.39,0.159,0.57,0.5,0.58,0.84
	c-0.01,0.35-0.19,0.689-0.58,0.85c-0.06,0.021-0.11,0.051-0.17,0.07C180.755,104.369,180.645,104.35,180.545,104.299z"/>
<path opacity="0.2" fill="#231F20" enable-background="new    " d="M129.345,123.569
	C129.715,123.779,129.035,123.729,129.345,123.569L129.345,123.569z"/>
<path opacity="0.2" fill="#231F20" enable-background="new    " d="M129.005,51.22c-0.24-0.101,0.24-0.189,0.39-0.149
	c0.08,0.029,0.07,0.09-0.21,0.229C129.125,51.27,129.065,51.239,129.005,51.22z"/>
<path opacity="0.2" fill="#231F20" enable-background="new    " d="M129.375,83.319C129.015,83.109,129.715,83.169,129.375,83.319
	L129.375,83.319z"/>
<path opacity="0.2" fill="#231F20" enable-background="new    " d="M129.305,136.648c-0.13,0.051-0.51-0.04-0.15-0.229
	c0,0,0,0,0.01,0C129.375,136.549,129.375,136.619,129.305,136.648z"/>
<path opacity="0.2" fill="#231F20" enable-background="new    " d="M129.205,67.579c-0.61-0.37,0.55-0.28,0.01,0
	C129.215,67.579,129.215,67.579,129.205,67.579z"/>
<path opacity="0.2" fill="#231F20" enable-background="new    " d="M129.365,152.779c0.24,0.1-0.24,0.188-0.39,0.149
	c-0.08-0.031-0.07-0.093,0.21-0.229C129.245,152.729,129.305,152.759,129.365,152.779z"/>
<path opacity="0.2" fill="#231F20" enable-background="new    " d="M127.365,84.148c-2.98,1.221-5.95,2.439-8.92,3.649
	c-12.73,5.221-25.46,10.431-38.19,15.65c-0.69-0.28-1.38-0.57-2.07-0.851l-0.06-0.149c11.35-4.66,22.69-9.301,34.04-13.95
	c5.6-2.3,11.19-4.59,16.78-6.88c0.85-0.341,2.15,0.54,2.89,0.84c2.97,1.221,5.94,2.439,8.92,3.649
	c13.37,5.479,26.73,10.96,40.1,16.431c-0.09,0-0.2,0.021-0.31,0.069c-0.69,0.28-1.37,0.561-2.06,0.841
	c-10.28-4.21-20.56-8.421-30.84-12.631c-6.02-2.46-12.03-4.93-18.05-7.391c-0.1-0.039-0.17-0.079-0.22-0.109
	c0.34-0.149-0.36-0.21,0,0c-0.01,0.011-0.03,0.011-0.04,0.021C128.675,83.609,128.015,83.879,127.365,84.148z"/>
<path opacity="0.2" fill="#231F20" enable-background="new    " d="M80.255,103.449c-0.69,0.279-1.38,0.569-2.07,0.85
	c0-0.569,0-1.13,0-1.699C78.875,102.879,79.565,103.169,80.255,103.449z"/>
<path opacity="0.2" fill="#231F20" enable-background="new    " d="M126.895,124.438c-2.97-1.22-5.94-2.439-8.91-3.659
	c-13.42-5.49-26.84-10.99-40.26-16.48c-0.83-0.34-0.83-1.35,0-1.689c0.13-0.05,0.27-0.109,0.4-0.159l0.06,0.149
	c0,0.569,0,1.13,0,1.699c0.69-0.279,1.38-0.569,2.07-0.85c10.28,4.22,20.56,8.42,30.83,12.63c6.02,2.46,12.03,4.93,18.05,7.392
	c0.09,0.038,0.16,0.068,0.21,0.101c-0.31,0.159,0.37,0.21,0,0c0.01,0,0.03-0.011,0.05-0.021c0.66-0.27,1.32-0.528,1.98-0.8
	c2.97-1.22,5.94-2.438,8.91-3.648c12.73-5.221,25.47-10.439,38.2-15.649c0.69,0.29,1.37,0.569,2.06,0.85
	c0.1,0.051,0.21,0.07,0.3,0.07c-11.43,4.68-22.86,9.351-34.28,14.03c-5.59,2.3-11.19,4.59-16.78,6.88
	C128.935,125.619,127.645,124.739,126.895,124.438z"/>
<path opacity="0.2" fill="#231F20" enable-background="new    " d="M45.175,101.999c-1.18,0.479-2.36,0.971-3.54,1.45
	c0-0.971,0-1.931,0-2.9C42.815,101.029,43.995,101.52,45.175,101.999z"/>
<g opacity="0.2">
	<path fill="#E9202B" d="M129.235,136.39c1.13-0.46,2.25-0.92,3.38-1.382c5.08-2.078,10.16-4.158,15.25-6.238
		c21.771-8.932,43.55-17.84,65.33-26.771c1.18,0.479,2.36,0.97,3.54,1.45c0.19,0.08,0.36,0.12,0.52,0.12
		c-19.55,8-39.1,16.01-58.65,24.01c-9.42,3.859-18.85,7.72-28.27,11.58l-1.03-2.511c0.07-0.029,0.07-0.102-0.14-0.229
		C129.185,136.409,129.205,136.398,129.235,136.39z"/>
	<path fill="#E9202B" d="M125.755,68.989c-5.08,2.079-10.16,4.159-15.25,6.25c-21.77,8.92-43.55,17.829-65.33,26.76
		c-1.18-0.479-2.36-0.97-3.54-1.45c0,0.971,0,1.931,0,2.9l-0.11,0.279c-0.23-0.09-0.46-0.189-0.69-0.279
		c-1.42-0.591-1.42-2.311,0-2.9c19.65-8.04,39.29-16.09,58.93-24.13c9.57-3.92,19.14-7.84,28.71-11.76
		c1.44-0.591,3.66,0.909,4.94,1.439c5.08,2.08,10.16,4.159,15.24,6.239c22.87,9.37,45.729,18.73,68.6,28.091
		c-0.16,0-0.33,0.04-0.52,0.119c-1.18,0.48-2.36,0.971-3.54,1.45c-17.58-7.21-35.16-14.399-52.74-21.609
		c-10.29-4.21-20.58-8.431-30.87-12.641c-0.16-0.07-0.28-0.13-0.37-0.17c0.54-0.28-0.62-0.37-0.01,0
		c-0.02,0.01-0.04,0.021-0.07,0.029C128.005,68.069,126.885,68.529,125.755,68.989z"/>
	<path fill="#E9202B" d="M97.915,123.609c10.29,4.21,20.58,8.43,30.87,12.64c0.16,0.07,0.28,0.13,0.37,0.17
		c-0.36,0.19,0.02,0.28,0.15,0.229l1.03,2.511c-0.15,0.062-0.29,0.12-0.44,0.18c-1.44,0.592-3.66-0.908-4.94-1.438
		c-5.08-2.08-10.16-4.16-15.24-6.24c-22.73-9.32-45.46-18.62-68.19-27.931l0.11-0.279c1.18-0.479,2.36-0.971,3.54-1.45
		C62.755,109.209,80.335,116.398,97.915,123.609z"/>
</g>
<path opacity="0.2" fill="#231F20" enable-background="new    " d="M3.755,101.329c0.55,0.22,1.09,0.45,1.64,0.67
	c-1.18,0.49-2.35,0.971-3.53,1.45c0-0.971,0-1.931,0-2.9C2.495,100.81,3.125,101.069,3.755,101.329z"/>
<g opacity="0.2">
	<path fill="#E9202B" d="M131.495,52.239c-0.77-0.32-1.54-0.631-2.31-0.94c0.28-0.14,0.29-0.199,0.21-0.229l1.02-2.49
		c42.2,17.29,84.39,34.569,126.59,51.859c-0.15,0-0.32,0.04-0.5,0.109c-1.18,0.48-2.35,0.96-3.53,1.45
		c-23.47-9.62-46.95-19.229-70.42-28.84c-13.22-5.42-26.43-10.83-39.65-16.25C139.105,55.359,135.295,53.799,131.495,52.239z"/>
	<path fill="#E9202B" d="M131.485,154.989c-1.16,0.47-2.03,1.05-3.25,0.55c-0.09-0.04-0.19-0.08-0.28-0.12l1.02-2.487
		c0.15,0.039,0.63-0.053,0.39-0.149c-0.06-0.021-0.12-0.052-0.18-0.08c0.04-0.021,0.09-0.04,0.15-0.062
		c41.21-16.882,82.43-33.762,123.64-50.642c0.55,0.221,1.09,0.45,1.64,0.67c0.63,0.261,1.26,0.521,1.89,0.78
		c0.19,0.08,0.36,0.12,0.52,0.12c-0.81,0.329-1.61,0.659-2.42,0.989c-24.66,10.101-49.32,20.199-73.98,30.3
		c-12.89,5.28-25.79,10.561-38.69,15.841C138.455,152.129,134.965,153.561,131.485,154.989z"/>
	<path fill="#E9202B" d="M129.035,51.359c-41.21,16.88-82.43,33.76-123.64,50.64c-0.55-0.22-1.09-0.45-1.64-0.67
		c-0.63-0.26-1.26-0.521-1.89-0.78l-0.11-0.27c0.67-0.28,1.34-0.551,2.01-0.83c24.66-10.101,49.32-20.2,73.98-30.301
		c12.9-5.289,25.79-10.569,38.69-15.851c3.48-1.43,6.97-2.859,10.46-4.279c1.15-0.479,2.02-1.05,3.24-0.561
		c0.09,0.04,0.19,0.08,0.28,0.12l-1.02,2.49c-0.15-0.04-0.63,0.05-0.39,0.149c0.06,0.021,0.12,0.05,0.18,0.079
		C129.145,51.319,129.095,51.339,129.035,51.359z"/>
	<path fill="#E9202B" d="M115.465,147.089c3.81,1.562,7.61,3.11,11.41,4.67c0.77,0.32,1.54,0.632,2.31,0.94
		c-0.28,0.14-0.29,0.198-0.21,0.229l-1.02,2.487c-42.3-17.329-84.59-34.648-126.89-51.969c-1.42-0.58-1.42-2.311,0-2.891
		c0.23-0.09,0.46-0.189,0.69-0.279l0.11,0.27c0,0.971,0,1.931,0,2.9c1.18-0.48,2.35-0.96,3.53-1.45
		c23.47,9.62,46.95,19.229,70.42,28.852C89.035,136.259,102.245,141.669,115.465,147.089z"/>
</g>
<path opacity="0.2" fill="#E9202B" enable-background="new    " d="M1020.865,101.999c-41.211,16.892-82.42,33.76-123.631,50.642
	c-0.06,0.028-0.119,0.051-0.16,0.068c-0.771-0.318-1.527-0.63-2.299-0.95c-3.812-1.56-7.609-3.108-11.421-4.67
	c-13.211-5.42-26.43-10.83-39.647-16.238c-23.473-9.62-46.939-19.229-70.422-28.852c41.209-16.88,82.432-33.76,123.643-50.641
	c0.06-0.021,0.107-0.04,0.146-0.061c0.771,0.311,1.541,0.62,2.313,0.94c3.802,1.56,7.607,3.119,11.41,4.67
	c13.222,5.42,26.438,10.83,39.648,16.25C973.914,82.77,997.396,92.379,1020.865,101.999z M986.414,101.999
	c0.014-0.05,0-0.109-0.01-0.16c-0.027-0.75-0.511-1.439-1.277-1.399c-22.858-9.369-45.723-18.729-68.58-28.101
	c-5.08-2.08-10.16-4.159-15.24-6.239c-1.278-0.529-3.5-2.029-4.938-1.439c-0.148,0.061-0.291,0.12-0.438,0.18
	c-9.42,3.86-18.854,7.721-28.271,11.58c-19.41,7.95-38.83,15.9-58.238,23.86c-0.229,0.09-0.449,0.189-0.682,0.279
	c-1.42,0.58-1.42,2.311,0,2.891c22.949,9.399,45.91,18.81,68.869,28.21c5.08,2.08,10.16,4.16,15.239,6.239
	c1.279,0.53,3.5,2.04,4.938,1.438c9.57-3.92,19.143-7.84,28.711-11.76c19.563-8,39.102-16.011,58.65-24.011
	c0.76,0.011,1.239-0.67,1.26-1.409C986.414,102.109,986.426,102.06,986.414,101.999z"/>
<path opacity="0.2" enable-background="new    " d="M946.187,101.839c-12.73,5.21-25.48,10.431-38.212,15.65
	c-2.969,1.21-5.938,2.43-8.909,3.649c-0.66,0.271-1.31,0.54-1.97,0.811c-0.012,0.01-0.03,0.01-0.041,0.021
	c-0.049-0.03-0.118-0.07-0.219-0.11c-6.021-2.46-12.041-4.93-18.053-7.39c-10.277-4.21-20.562-8.41-30.83-12.631
	c12.729-5.22,25.461-10.43,38.188-15.649c2.972-1.21,5.941-2.43,8.91-3.649c0.66-0.271,1.318-0.54,1.979-0.8
	c0.021-0.011,0.041-0.021,0.053-0.021c0.051,0.029,0.119,0.061,0.211,0.101c6.021,2.46,12.027,4.93,18.049,7.39
	C925.615,93.419,935.904,97.629,946.187,101.839z"/>
<path opacity="0.2" enable-background="new    " d="M1026.187,101.85c0.01,0.05,0.01,0.101,0.01,0.159
	C1026.195,101.959,1026.187,101.898,1026.187,101.85z"/>
<path opacity="0.2" enable-background="new    " d="M1026.195,102.009c0,0.051,0,0.102-0.011,0.15
	C1026.187,102.109,1026.195,102.06,1026.195,102.009z"/>
<path opacity="0.2" enable-background="new    " d="M1026.187,101.85c-0.07-0.529-0.382-1.051-0.99-1.29
	c-0.101-0.04-0.201-0.08-0.301-0.12C1025.676,100.398,1026.164,101.1,1026.187,101.85z"/>
<path opacity="0.2" enable-background="new    " d="M1025.195,103.449c0.608-0.25,0.92-0.771,0.989-1.29
	c-0.021,0.739-0.51,1.43-1.271,1.41C1025.006,103.529,1025.104,103.489,1025.195,103.449z"/>
<path opacity="0.2" enable-background="new    " d="M1025.195,100.56c0.608,0.239,0.92,0.761,0.989,1.29
	c0,0.05,0.011,0.109,0.011,0.159c0,0.051-0.011,0.102-0.011,0.15c-0.069,0.521-0.381,1.04-0.989,1.29
	c-0.091,0.04-0.188,0.08-0.281,0.12c-0.156-0.011-0.326-0.051-0.51-0.12c-0.63-0.261-1.271-0.521-1.896-0.78
	c-0.553-0.22-1.094-0.449-1.643-0.67c1.182-0.479,2.358-0.97,3.539-1.45c0.184-0.069,0.34-0.109,0.489-0.109
	C1024.994,100.479,1025.096,100.52,1025.195,100.56z"/>
<path opacity="0.2" fill="#231F20" enable-background="new    " d="M986.404,101.839c0.01,0.051,0.021,0.11,0.01,0.16
	C986.414,101.949,986.404,101.898,986.404,101.839z"/>
<path opacity="0.2" fill="#231F20" enable-background="new    " d="M986.414,101.999c0.014,0.061,0,0.109-0.01,0.16
	C986.404,102.109,986.414,102.049,986.414,101.999z"/>
<path opacity="0.2" fill="#231F20" enable-background="new    " d="M986.404,101.839c-0.066-0.52-0.38-1.04-0.979-1.279
	c-0.102-0.04-0.199-0.08-0.301-0.12C985.896,100.398,986.377,101.089,986.404,101.839z"/>
<path opacity="0.2" fill="#231F20" enable-background="new    " d="M985.426,103.449c0.601-0.25,0.908-0.761,0.979-1.29
	c-0.021,0.739-0.5,1.42-1.26,1.41C985.234,103.529,985.336,103.489,985.426,103.449z"/>
<path opacity="0.2" fill="#231F20" enable-background="new    " d="M985.426,100.56c0.601,0.239,0.908,0.761,0.979,1.279
	c0,0.061,0.01,0.11,0.01,0.16s-0.01,0.109-0.01,0.16c-0.068,0.529-0.381,1.04-0.979,1.29c-0.092,0.04-0.19,0.08-0.28,0.12
	c-0.16,0-0.33-0.04-0.521-0.12c-1.18-0.479-2.357-0.971-3.537-1.45c1.18-0.479,2.357-0.97,3.537-1.45
	c0.184-0.069,0.354-0.109,0.5-0.109C985.225,100.479,985.324,100.52,985.426,100.56z"/>
<path opacity="0.2" fill="#231F20" enable-background="new    " d="M948.547,100.93c0.479-0.011,0.76,0.449,0.736,0.92
	c-0.011-0.351-0.188-0.689-0.58-0.851C948.654,100.979,948.596,100.959,948.547,100.93z"/>
<path opacity="0.2" fill="#231F20" enable-background="new    " d="M949.285,101.85c0.021,0.46-0.271,0.92-0.738,0.909
	c0.051-0.029,0.107-0.05,0.158-0.069C949.096,102.529,949.266,102.188,949.285,101.85z"/>
<path opacity="0.2" fill="#231F20" enable-background="new    " d="M948.244,102.688c-0.688-0.279-1.367-0.561-2.06-0.851
	c0.688-0.279,1.369-0.56,2.06-0.84c0.11-0.05,0.211-0.069,0.303-0.069c0.051,0.029,0.107,0.05,0.158,0.069
	c0.393,0.16,0.57,0.5,0.58,0.851c-0.021,0.34-0.188,0.681-0.58,0.84c-0.051,0.021-0.107,0.04-0.158,0.069
	C948.455,102.759,948.354,102.739,948.244,102.688z"/>
<path opacity="0.2" enable-background="new    " d="M897.285,51.069c0.08,0.029,0.069,0.09-0.211,0.229
	c-0.06-0.029-0.119-0.06-0.181-0.079C896.664,51.119,897.135,51.029,897.285,51.069z"/>
<path opacity="0.2" enable-background="new    " d="M897.256,152.779c0.236,0.1-0.229,0.188-0.383,0.149
	c-0.078-0.031-0.068-0.093,0.199-0.223C897.135,152.729,897.195,152.759,897.256,152.779z"/>
<path opacity="0.2" fill="#231F20" enable-background="new    " d="M897.055,136.419c0.621,0.37-0.549,0.29-0.01,0
	C897.047,136.419,897.047,136.419,897.055,136.419z"/>
<path opacity="0.2" fill="#231F20" enable-background="new    " d="M897.055,121.97C897.414,122.18,896.715,122.119,897.055,121.97
	L897.055,121.97z"/>
<path opacity="0.2" fill="#231F20" enable-background="new    " d="M897.086,81.72C896.715,81.509,897.385,81.56,897.086,81.72
	L897.086,81.72z"/>
<path opacity="0.2" fill="#231F20" enable-background="new    " d="M897.096,67.579c-0.211-0.13-0.211-0.2-0.143-0.229
	c0.131-0.051,0.512,0.04,0.149,0.229C897.104,67.569,897.104,67.569,897.096,67.579z"/>
<path opacity="0.2" fill="#231F20" enable-background="new    " d="M897.035,81.739c-0.658,0.26-1.318,0.529-1.979,0.8
	c-2.971,1.22-5.94,2.439-8.91,3.649c-12.729,5.221-25.461,10.431-38.19,15.649c-0.688-0.279-1.379-0.569-2.066-0.85l-0.063-0.16
	c11.342-4.649,22.699-9.301,34.039-13.939c5.59-2.301,11.19-4.591,16.78-6.881c0.841-0.34,2.14,0.54,2.89,0.841
	c2.973,1.22,5.94,2.439,8.91,3.649c13.37,5.479,26.729,10.96,40.104,16.43c-0.094,0-0.19,0.021-0.303,0.07
	c-0.688,0.279-1.369,0.561-2.062,0.84c-10.278-4.21-20.569-8.42-30.84-12.63c-6.021-2.46-12.028-4.931-18.049-7.391
	c-0.092-0.04-0.16-0.069-0.211-0.101c0.301-0.159-0.369-0.21,0,0C897.074,81.72,897.055,81.729,897.035,81.739z"/>
<path opacity="0.2" fill="#231F20" enable-background="new    " d="M847.955,101.839c-0.688,0.28-1.381,0.57-2.068,0.851
	c0-0.569,0-1.13,0-1.699C846.574,101.27,847.266,101.56,847.955,101.839z"/>
<path opacity="0.2" fill="#231F20" enable-background="new    " d="M897.475,123.669c-0.84,0.352-2.141-0.54-2.879-0.84
	c-2.973-1.22-5.95-2.438-8.92-3.648c-13.42-5.5-26.842-11-40.262-16.49c-0.83-0.34-0.83-1.351,0-1.689
	c0.141-0.061,0.271-0.109,0.408-0.17l0.063,0.16c0,0.569,0,1.13,0,1.699c0.688-0.279,1.381-0.569,2.068-0.851
	c10.271,4.221,20.551,8.421,30.83,12.631c6.012,2.46,12.028,4.93,18.051,7.391c0.103,0.04,0.17,0.079,0.221,0.109
	c-0.34,0.148,0.357,0.21,0,0c0.011-0.012,0.029-0.012,0.041-0.021c0.658-0.271,1.31-0.54,1.97-0.811
	c2.971-1.222,5.938-2.439,8.909-3.649c12.729-5.221,25.479-10.44,38.212-15.65c0.688,0.29,1.368,0.57,2.059,0.852
	c0.111,0.05,0.211,0.069,0.303,0.069c-11.432,4.67-22.852,9.351-34.279,14.029C908.664,119.089,903.074,121.379,897.475,123.669z"/>
<path opacity="0.2" fill="#231F20" enable-background="new    " d="M813.063,101.999c-1.18,0.479-2.358,0.971-3.538,1.45
	c0-0.971,0-1.931,0-2.9C810.705,101.029,811.885,101.52,813.063,101.999z"/>
<g opacity="0.2">
	<path fill="#E9202B" d="M897.104,67.579c0.359-0.189-0.021-0.28-0.149-0.229l-1.027-2.511c0.146-0.06,0.289-0.119,0.438-0.18
		c1.438-0.59,3.66,0.91,4.938,1.439c5.08,2.08,10.16,4.159,15.24,6.239c22.857,9.37,45.721,18.73,68.578,28.101
		c-0.148,0-0.318,0.04-0.5,0.109c-1.18,0.48-2.357,0.971-3.539,1.45c-17.58-7.21-35.158-14.399-52.738-21.6
		c-10.291-4.221-20.58-8.44-30.87-12.65C897.313,67.68,897.195,67.619,897.104,67.579z"/>
	<path fill="#E9202B" d="M897.025,67.609c-1.132,0.46-2.25,0.92-3.382,1.38c-5.08,2.08-10.159,4.159-15.239,6.25
		c-21.777,8.92-43.56,17.83-65.34,26.76c-1.181-0.479-2.359-0.97-3.539-1.45l-0.109-0.27c19.408-7.96,38.828-15.91,58.238-23.86
		c9.42-3.859,18.854-7.72,28.271-11.58l1.027,2.511c-0.066,0.029-0.066,0.101,0.143,0.229
		C897.074,67.589,897.055,67.6,897.025,67.609z"/>
	<path fill="#E9202B" d="M865.805,123.609c10.291,4.21,20.58,8.43,30.882,12.64c0.159,0.07,0.278,0.13,0.358,0.17
		c-0.539,0.29,0.631,0.37,0.01,0c0.021-0.01,0.041-0.021,0.068-0.028c1.131-0.46,2.262-0.92,3.381-1.382
		c5.08-2.078,10.172-4.158,15.25-6.238c21.771-8.932,43.551-17.84,65.33-26.771c1.182,0.479,2.359,0.971,3.539,1.45
		c0.188,0.08,0.358,0.12,0.521,0.12c-19.551,8-39.09,16.01-58.649,24.01c-9.568,3.92-19.142,7.84-28.711,11.76
		c-1.438,0.603-3.658-0.908-4.938-1.438c-5.08-2.08-10.16-4.16-15.24-6.24c-22.959-9.399-45.92-18.811-68.868-28.21
		c-1.421-0.58-1.421-2.311,0-2.891c0.229-0.09,0.448-0.189,0.68-0.279l0.108,0.27c0,0.972,0,1.932,0,2.9
		c1.181-0.479,2.361-0.97,3.541-1.45C830.646,109.209,848.225,116.398,865.805,123.609z"/>
</g>
<path opacity="0.2" enable-background="new    " d="M771.646,101.329c0.551,0.22,1.09,0.45,1.641,0.67
	c-1.18,0.49-2.35,0.971-3.527,1.45c0-0.971,0-1.931,0-2.9C770.385,100.81,771.016,101.069,771.646,101.329z"/>
<g opacity="0.2">
	<path fill="#E9202B" d="M899.385,52.239c-0.771-0.32-1.539-0.631-2.313-0.94c0.28-0.14,0.291-0.199,0.211-0.229l1.021-2.49
		c42.199,17.29,84.39,34.569,126.59,51.859c-0.149,0-0.313,0.04-0.489,0.109c-1.181,0.48-2.357,0.971-3.541,1.45
		c-23.47-9.62-46.949-19.229-70.42-28.84c-13.209-5.42-26.431-10.83-39.646-16.25C906.994,55.359,903.187,53.799,899.385,52.239z"/>
	<path fill="#E9202B" d="M896.877,152.93c0.148,0.041,0.617-0.052,0.381-0.148c-0.063-0.021-0.121-0.051-0.184-0.07
		c0.041-0.021,0.104-0.04,0.159-0.067c41.212-16.883,82.421-33.75,123.632-50.643c0.549,0.221,1.09,0.45,1.643,0.67
		c0.629,0.261,1.271,0.521,1.896,0.78c0.184,0.069,0.354,0.109,0.51,0.12c-0.81,0.329-1.607,0.659-2.42,0.989
		c-24.656,10.101-49.316,20.199-73.97,30.301c-12.899,5.279-25.801,10.56-38.688,15.84c-3.49,1.43-6.98,2.859-10.463,4.29
		c-1.158,0.47-2.027,1.05-3.25,0.55c-0.09-0.04-0.18-0.067-0.27-0.108L896.877,152.93z"/>
	<path fill="#E9202B" d="M894.785,49.02c1.149-0.479,2.021-1.05,3.239-0.561c0.091,0.04,0.189,0.08,0.279,0.12l-1.021,2.489
		c-0.146-0.039-0.619,0.051-0.39,0.15c0.06,0.021,0.119,0.05,0.181,0.079c-0.041,0.021-0.091,0.04-0.148,0.061
		c-41.209,16.881-82.432,33.761-123.643,50.641c-0.549-0.22-1.09-0.45-1.64-0.67c-0.631-0.261-1.26-0.521-1.891-0.78l-0.109-0.27
		c0.67-0.28,1.341-0.551,2.011-0.83c24.659-10.101,49.319-20.2,73.979-30.301c12.896-5.29,25.789-10.569,38.688-15.851
		C887.813,51.869,891.297,50.438,894.785,49.02z"/>
	<path fill="#E9202B" d="M768.955,103.449c-1.42-0.58-1.42-2.311,0-2.891c0.229-0.09,0.459-0.189,0.688-0.279l0.111,0.27
		c0,0.971,0,1.931,0,2.9c1.18-0.48,2.351-0.96,3.527-1.45c23.479,9.62,46.949,19.229,70.42,28.852
		c13.223,5.408,26.439,10.818,39.65,16.238c3.809,1.562,7.608,3.11,11.42,4.67c0.771,0.32,1.528,0.632,2.299,0.95
		c-0.271,0.13-0.277,0.188-0.199,0.223l-1.02,2.5C853.555,138.1,811.256,120.77,768.955,103.449z"/>
</g>
<path opacity="0.2" fill="#E9202B" enable-background="new    " d="M1276.313,101.999c-41.209,16.88-82.43,33.76-123.639,50.642
	c-0.063,0.021-0.111,0.041-0.15,0.062c-0.771-0.312-1.541-0.62-2.311-0.939c-3.803-1.561-7.609-3.108-11.41-4.671
	c-13.221-5.42-26.432-10.829-39.65-16.238c-23.469-9.619-46.948-19.229-70.42-28.852c41.222-16.89,82.42-33.76,123.642-50.64
	c0.063-0.021,0.108-0.04,0.149-0.062c0.771,0.312,1.539,0.62,2.299,0.94c3.813,1.56,7.611,3.12,11.421,4.67
	c13.223,5.42,26.434,10.83,39.649,16.239C1229.365,82.77,1252.846,92.379,1276.313,101.999z M1241.865,101.999
	c0-0.061,0-0.109-0.011-0.16c-0.03-0.739-0.51-1.43-1.271-1.409c-22.859-9.359-45.721-18.729-68.592-28.091
	c-5.08-2.08-10.158-4.159-15.238-6.239c-1.279-0.529-3.5-2.029-4.938-1.439c-9.57,3.92-19.14,7.84-28.709,11.76
	c-19.642,8.04-39.281,16.09-58.931,24.13c-1.422,0.58-1.422,2.312,0,2.9c0.229,0.09,0.459,0.189,0.688,0.279
	c22.729,9.311,45.459,18.608,68.188,27.931c5.08,2.08,10.16,4.16,15.24,6.239c1.276,0.53,3.5,2.03,4.938,1.438
	c0.15-0.061,0.291-0.118,0.439-0.18c9.422-3.86,18.852-7.721,28.271-11.58c19.549-8,39.09-16.011,58.642-24.011
	c0.762,0.021,1.237-0.67,1.271-1.409C1241.865,102.109,1241.865,102.06,1241.865,101.999z"/>
<path opacity="0.2" enable-background="new    " d="M1170.785,88.509c10.279,4.211,20.569,8.421,30.84,12.631
	c-12.729,5.21-25.471,10.42-38.197,15.641c-2.973,1.22-5.94,2.43-8.91,3.649c-0.659,0.271-1.319,0.54-1.971,0.811
	c-0.021,0.01-0.039,0.02-0.053,0.029c-0.049-0.029-0.119-0.069-0.219-0.109c-6.011-2.471-12.031-4.931-18.041-7.391
	c-10.279-4.221-20.57-8.431-30.841-12.63c12.729-5.221,25.472-10.431,38.201-15.649c2.97-1.221,5.938-2.431,8.91-3.65
	c0.658-0.27,1.31-0.54,1.969-0.81c0.021-0.011,0.041-0.021,0.052-0.03c0.049,0.03,0.119,0.07,0.219,0.11
	C1158.756,83.579,1164.775,86.039,1170.785,88.509z"/>
<path opacity="0.2" enable-background="new    " d="M1281.635,101.839c0.011,0.051,0.011,0.11,0.011,0.16
	C1281.646,101.949,1281.635,101.89,1281.635,101.839z"/>
<path opacity="0.2" enable-background="new    " d="M1281.646,101.999c0,0.05,0,0.109-0.011,0.16
	C1281.635,102.109,1281.646,102.049,1281.646,101.999z"/>
<path opacity="0.2" enable-background="new    " d="M1281.635,101.839c-0.069-0.529-0.379-1.04-0.989-1.29
	c-0.091-0.04-0.189-0.079-0.279-0.119C1281.125,100.419,1281.604,101.1,1281.635,101.839z"/>
<path opacity="0.2" enable-background="new    " d="M1280.646,103.449c0.61-0.25,0.92-0.761,0.989-1.29
	c-0.028,0.739-0.512,1.42-1.271,1.41C1280.455,103.529,1280.555,103.489,1280.646,103.449z"/>
<path opacity="0.2" enable-background="new    " d="M1276.313,101.999c1.181-0.49,2.351-0.97,3.531-1.45
	c0.188-0.079,0.357-0.119,0.521-0.119c0.09,0.04,0.188,0.079,0.278,0.119c0.611,0.25,0.921,0.761,0.99,1.29
	c0,0.051,0.01,0.11,0.01,0.16s-0.01,0.109-0.01,0.16c-0.069,0.529-0.379,1.04-0.99,1.29c-0.09,0.04-0.188,0.08-0.278,0.12
	c-0.16,0-0.33-0.04-0.521-0.12c-0.631-0.261-1.262-0.521-1.893-0.78C1277.404,102.449,1276.865,102.22,1276.313,101.999z"/>
<path opacity="0.2" fill="#231F20" enable-background="new    " d="M1241.854,101.839c0.011,0.051,0.011,0.101,0.011,0.16
	C1241.865,101.949,1241.854,101.898,1241.854,101.839z"/>
<path opacity="0.2" fill="#231F20" enable-background="new    " d="M1241.865,101.999c0,0.061,0,0.109-0.011,0.16
	C1241.854,102.1,1241.865,102.049,1241.865,101.999z"/>
<path opacity="0.2" fill="#231F20" enable-background="new    " d="M1241.854,101.839c-0.069-0.52-0.381-1.04-0.989-1.29
	c-0.09-0.04-0.188-0.079-0.277-0.119C1241.346,100.409,1241.824,101.1,1241.854,101.839z"/>
<path opacity="0.2" fill="#231F20" enable-background="new    " d="M1240.865,103.449c0.608-0.25,0.92-0.771,0.989-1.29
	c-0.03,0.739-0.51,1.43-1.271,1.41C1240.676,103.529,1240.775,103.489,1240.865,103.449z"/>
<path opacity="0.2" fill="#231F20" enable-background="new    " d="M1240.865,100.549c0.608,0.25,0.92,0.771,0.989,1.29
	c0,0.062,0.011,0.11,0.011,0.16s-0.011,0.101-0.011,0.16c-0.069,0.521-0.381,1.04-0.989,1.29c-0.09,0.04-0.188,0.08-0.277,0.12
	c-0.16-0.011-0.33-0.051-0.514-0.12c-1.181-0.479-2.357-0.971-3.539-1.45c1.182-0.479,2.358-0.97,3.539-1.45
	c0.184-0.069,0.354-0.109,0.514-0.119C1240.676,100.47,1240.775,100.509,1240.865,100.549z"/>
<path opacity="0.2" fill="#231F20" enable-background="new    " d="M1203.994,100.22c0.473-0.011,0.764,0.449,0.74,0.92
	c-0.011-0.341-0.181-0.681-0.58-0.851C1204.104,100.27,1204.047,100.249,1203.994,100.22z"/>
<path opacity="0.2" fill="#231F20" enable-background="new    " d="M1204.154,101.979c0.381-0.159,0.563-0.479,0.58-0.811
	c0,0.46-0.279,0.891-0.74,0.88C1204.047,102.02,1204.104,101.999,1204.154,101.979z"/>
<path opacity="0.2" fill="#231F20" enable-background="new    " d="M1204.154,100.289c0.399,0.17,0.569,0.51,0.58,0.851
	c0,0.011,0,0.021,0,0.029c-0.021,0.33-0.199,0.65-0.58,0.811c-0.049,0.021-0.107,0.04-0.16,0.069c-0.09,0-0.197-0.02-0.31-0.069
	c-0.69-0.279-1.37-0.561-2.063-0.84c0.689-0.29,1.369-0.569,2.063-0.851c0.109-0.05,0.22-0.069,0.31-0.069
	C1204.047,100.249,1204.104,100.27,1204.154,100.289z"/>
<path opacity="0.2" enable-background="new    " d="M1152.734,51.069c0.079,0.029,0.069,0.09-0.209,0.229
	c-0.062-0.029-0.121-0.06-0.181-0.079C1152.104,51.119,1152.586,51.029,1152.734,51.069z"/>
<path opacity="0.2" enable-background="new    " d="M1152.705,152.779c0.24,0.1-0.238,0.188-0.392,0.149
	c-0.079-0.031-0.069-0.093,0.212-0.229C1152.586,152.729,1152.646,152.759,1152.705,152.779z"/>
<path opacity="0.2" fill="#231F20" enable-background="new    " d="M1152.506,136.419c0.209,0.13,0.209,0.2,0.14,0.229
	c-0.13,0.051-0.511-0.039-0.15-0.229C1152.494,136.419,1152.494,136.419,1152.506,136.419z"/>
<path opacity="0.2" fill="#231F20" enable-background="new    " d="M1152.494,121.27
	C1152.854,121.47,1152.187,121.419,1152.494,121.27L1152.494,121.27z"/>
<path opacity="0.2" fill="#231F20" enable-background="new    " d="M1152.525,80.999
	C1152.164,80.799,1152.836,80.85,1152.525,80.999L1152.525,80.999z"/>
<path opacity="0.2" fill="#231F20" enable-background="new    " d="M1152.547,67.579c-0.61-0.37,0.549-0.28,0.01,0
	C1152.555,67.569,1152.555,67.569,1152.547,67.579z"/>
<path opacity="0.2" fill="#231F20" enable-background="new    " d="M1141.125,118.47c-13.287-5.451-26.568-10.881-39.857-16.331
	l0.068-0.16c0.688-0.279,1.369-0.561,2.062-0.84c10.271,4.199,20.561,8.409,30.84,12.63c6.01,2.46,12.03,4.92,18.041,7.391
	c0.1,0.04,0.17,0.08,0.219,0.109c-0.309,0.148,0.361,0.2,0,0c0.014-0.012,0.031-0.021,0.053-0.029
	c0.648-0.271,1.312-0.54,1.971-0.811c2.97-1.222,5.938-2.432,8.91-3.649c12.729-5.221,25.469-10.431,38.197-15.641
	c0.689,0.279,1.369,0.561,2.063,0.84c0.109,0.051,0.22,0.069,0.31,0.069c-11.431,4.671-22.851,9.36-34.287,14.04
	c-5.592,2.29-11.182,4.58-16.779,6.87c-0.84,0.352-2.143-0.528-2.893-0.84C1147.063,120.898,1144.096,119.688,1141.125,118.47z"/>
<path opacity="0.2" fill="#231F20" enable-background="new    " d="M1101.336,101.979c0-0.561,0-1.13,0-1.689
	c0.688,0.28,1.367,0.561,2.062,0.851C1102.705,101.419,1102.025,101.699,1101.336,101.979z"/>
<path opacity="0.2" fill="#231F20" enable-background="new    " d="M1100.865,100.289c11.479-4.7,22.959-9.41,34.448-14.109
	c5.591-2.29,11.181-4.58,16.781-6.87c0.84-0.351,2.14,0.529,2.89,0.84c2.971,1.21,5.94,2.431,8.909,3.649
	c13.371,5.48,26.729,10.95,40.101,16.421c-0.09,0-0.197,0.021-0.31,0.069c-0.69,0.279-1.37,0.561-2.063,0.851
	c-10.27-4.21-20.561-8.42-30.84-12.631c-6.01-2.47-12.029-4.93-18.041-7.399c-0.1-0.039-0.17-0.079-0.219-0.109
	c0.311-0.149-0.361-0.2,0,0c-0.011,0.011-0.031,0.021-0.052,0.03c-0.659,0.27-1.313,0.54-1.971,0.81
	c-2.971,1.221-5.938,2.431-8.908,3.65c-12.729,5.22-25.473,10.43-38.2,15.649c-0.689-0.29-1.369-0.569-2.062-0.851
	c0,0.561,0,1.13,0,1.689l-0.068,0.16c-0.131-0.051-0.271-0.109-0.399-0.16C1100.035,101.64,1100.035,100.629,1100.865,100.289z"/>
<path opacity="0.2" fill="#231F20" enable-background="new    " d="M1064.975,103.449c0-0.971,0-1.931,0-2.9
	c1.181,0.48,2.359,0.971,3.541,1.45C1067.336,102.479,1066.154,102.97,1064.975,103.449z"/>
<g opacity="0.2">
	<path fill="#E9202B" d="M1181.945,127.579c-9.421,3.859-18.851,7.72-28.271,11.58l-1.031-2.511c0.07-0.029,0.07-0.102-0.141-0.229
		c0.021-0.01,0.041-0.021,0.068-0.028c1.131-0.46,2.25-0.921,3.381-1.382c5.08-2.078,10.16-4.158,15.24-6.238
		c21.778-8.932,43.561-17.84,65.34-26.771c1.182,0.479,2.358,0.97,3.539,1.45c0.182,0.069,0.352,0.109,0.512,0.12
		C1221.035,111.569,1201.494,119.579,1181.945,127.579z"/>
	<path fill="#E9202B" d="M1133.055,131.659c-22.729-9.32-45.459-18.62-68.188-27.931l0.109-0.279c1.18-0.479,2.358-0.971,3.541-1.45
		c17.579,7.21,35.159,14.399,52.739,21.61c10.289,4.21,20.578,8.43,30.867,12.64c0.16,0.07,0.279,0.13,0.369,0.17
		c-0.357,0.19,0.021,0.28,0.149,0.229l1.031,2.511c-0.149,0.062-0.291,0.12-0.44,0.18c-1.438,0.592-3.66-0.908-4.938-1.438
		C1143.215,135.819,1138.135,133.739,1133.055,131.659z"/>
	<path fill="#E9202B" d="M1133.846,75.229c-21.771,8.931-43.551,17.841-65.33,26.771c-1.182-0.479-2.36-0.97-3.541-1.45
		c0,0.971,0,1.931,0,2.9l-0.108,0.279c-0.229-0.09-0.461-0.189-0.688-0.279c-1.42-0.591-1.42-2.32,0-2.9
		c19.646-8.04,39.289-16.09,58.931-24.13c9.569-3.92,19.141-7.84,28.709-11.76c1.44-0.591,3.66,0.909,4.94,1.439
		c5.08,2.079,10.156,4.159,15.236,6.239c22.871,9.36,45.729,18.73,68.594,28.09c-0.16,0.011-0.33,0.051-0.514,0.12
		c-1.181,0.48-2.357,0.971-3.539,1.45c-17.58-7.21-35.16-14.399-52.738-21.609c-10.289-4.21-20.58-8.431-30.869-12.641
		c-0.16-0.07-0.28-0.13-0.371-0.17c0.541-0.28-0.618-0.37-0.01,0c-0.021,0.01-0.039,0.021-0.069,0.029
		c-1.13,0.46-2.25,0.921-3.38,1.381C1144.016,71.069,1138.937,73.148,1133.846,75.229z"/>
</g>
<path opacity="0.2" enable-background="new    " d="M1027.096,101.329c0.549,0.22,1.09,0.45,1.64,0.67
	c-1.181,0.479-2.357,0.971-3.539,1.45c0-0.971,0-1.931,0-2.9C1025.836,100.81,1026.465,101.069,1027.096,101.329z"/>
<g opacity="0.2">
	<path fill="#E9202B" d="M1152.525,51.299c0.278-0.14,0.288-0.199,0.209-0.229l1.021-2.49c42.197,17.29,84.408,34.57,126.607,51.851
		c-0.16,0-0.33,0.04-0.521,0.119c-1.182,0.48-2.352,0.96-3.528,1.45c-23.472-9.62-46.951-19.229-70.421-28.85
		c-13.221-5.41-26.432-10.82-39.649-16.24c-3.812-1.55-7.607-3.11-11.42-4.67C1154.063,51.919,1153.297,51.609,1152.525,51.299z"/>
	<path fill="#E9202B" d="M1152.313,152.93c0.15,0.041,0.632-0.052,0.392-0.148c-0.062-0.021-0.117-0.051-0.181-0.08
		c0.039-0.021,0.091-0.04,0.15-0.061c41.209-16.883,82.43-33.763,123.639-50.643c0.552,0.221,1.091,0.45,1.642,0.67
		c0.633,0.261,1.262,0.521,1.893,0.78c0.188,0.08,0.357,0.12,0.521,0.12c-0.812,0.319-1.607,0.649-2.42,0.979
		c-24.66,10.101-49.32,20.2-73.979,30.311c-12.899,5.28-25.791,10.561-38.69,15.841c-3.479,1.43-6.97,2.859-10.459,4.29
		c-1.15,0.47-2.021,1.05-3.24,0.55c-0.09-0.04-0.188-0.08-0.277-0.12L1152.313,152.93z"/>
	<path fill="#E9202B" d="M1099.154,130.85c13.221,5.408,26.434,10.818,39.649,16.238c3.802,1.563,7.609,3.11,11.41,4.67
		c0.771,0.32,1.541,0.633,2.312,0.94c-0.281,0.14-0.291,0.199-0.211,0.229l-1.021,2.488c-42.07-17.229-84.143-34.46-126.209-51.688
		l0.107-0.279c1.182-0.479,2.358-0.971,3.539-1.45C1052.205,111.619,1075.687,121.229,1099.154,130.85z"/>
	<path fill="#E9202B" d="M1101.086,69.148c12.892-5.29,25.787-10.569,38.688-15.851c3.479-1.43,6.971-2.859,10.451-4.279
		c1.159-0.479,2.028-1.061,3.25-0.561c0.09,0.04,0.188,0.08,0.278,0.12l-1.021,2.489c-0.148-0.04-0.629,0.051-0.39,0.15
		c0.06,0.021,0.119,0.05,0.181,0.079c-0.041,0.021-0.09,0.04-0.15,0.061c-41.221,16.881-82.42,33.75-123.641,50.641
		c-0.549-0.22-1.09-0.45-1.64-0.67c-0.631-0.261-1.262-0.521-1.899-0.78c0,0.971,0,1.931,0,2.9l-0.109,0.279
		c-0.229-0.09-0.449-0.189-0.682-0.279c-1.42-0.591-1.42-2.311,0-2.9c0.899-0.359,1.801-0.729,2.701-1.1
		C1051.766,89.35,1076.426,79.249,1101.086,69.148z"/>
</g>
</svg>
