<?xml version="1.0" encoding="utf-8"?>
<!-- Generator: Adobe Illustrator 16.0.3, SVG Export Plug-In . SVG Version: 6.00 Build 0)  -->
<!DOCTYPE svg PUBLIC "-//W3C//DTD SVG 1.1//EN" "http://www.w3.org/Graphics/SVG/1.1/DTD/svg11.dtd">
<svg version="1.1" id="Layer_1" xmlns="http://www.w3.org/2000/svg" xmlns:xlink="http://www.w3.org/1999/xlink" x="0px" y="0px"
	 width="1280px" height="200px" viewBox="0 0 1280 200" enable-background="new 0 0 1280 200" xml:space="preserve">
<rect x="-6.5" opacity="0.2" fill="#132A87" width="1291" height="20.094"/>
<rect x="-6.5" y="179.906" opacity="0.2" fill="#132A87" width="1291" height="20.094"/>
<rect x="-6.5" y="20.094" opacity="0.2" fill="#C30E22" width="1291" height="159.812"/>
<g opacity="0.2">
	<g id="XMLID_1_">
		<g>
			<g id="XMLID_4_">
				<g>
					<path fill="#FFFFFF" d="M144.62,35.09v127.5H17.12V35.09H144.62z M133.06,151.03V98.12V46.65H81.01H28.68v51.47v52.91h52.33
						H133.06z"/>
					<polygon fill="#EA5418" points="133.06,98.12 133.06,151.03 81.01,151.03 81.01,149.45 132.34,98.12 					"/>
					<polygon fill="#EA5418" points="133.06,46.65 133.06,98.12 132.34,98.12 81.01,46.79 81.01,46.65 					"/>
					<polygon fill="#EA5418" points="81.01,149.45 81.01,151.03 28.68,151.03 28.68,98.12 29.68,98.12 					"/>
					<polygon fill="#EA5418" points="81.01,46.65 81.01,46.79 29.68,98.12 28.68,98.12 28.68,46.65 					"/>
				</g>
				<g>
					
						<rect x="17.12" y="35.09" fill="none" stroke="#132A87" stroke-width="3" stroke-miterlimit="10" width="127.5" height="127.5"/>
					<polygon fill="none" stroke="#132A87" stroke-width="3" stroke-miterlimit="10" points="133.06,98.12 133.06,151.03 
						81.01,151.03 28.68,151.03 28.68,98.12 28.68,46.65 81.01,46.65 133.06,46.65 					"/>
					
						<rect x="44.714" y="61.824" transform="matrix(0.7071 -0.7071 0.7071 0.7071 -45.6541 86.0214)" fill="none" stroke="#132A87" stroke-width="3" stroke-miterlimit="10" width="72.592" height="72.591"/>
				</g>
			</g>
		</g>
		<rect x="54.845" y="72.385" fill="#132A87" width="52.19" height="52.19"/>
		
			<rect x="62.905" y="80.027" transform="matrix(0.7071 -0.7071 0.7071 0.7071 -45.8069 86.3742)" fill="#FFFFFF" width="36.904" height="36.905"/>
		<circle fill="#FFFFFF" stroke="#132A87" stroke-miterlimit="10" cx="81.356" cy="98.12" r="11.25"/>
	</g>
	<rect x="17.12" y="35.09" fill="#132A87" stroke="#132A87" stroke-miterlimit="10" width="11.56" height="11.56"/>
	<rect x="132.34" y="35.09" fill="#132A87" stroke="#132A87" stroke-miterlimit="10" width="11.56" height="11.56"/>
	<rect x="17.12" y="149.45" fill="#132A87" stroke="#132A87" stroke-miterlimit="10" width="11.56" height="11.56"/>
	<rect x="132.34" y="149.45" fill="#132A87" stroke="#132A87" stroke-miterlimit="10" width="11.56" height="11.56"/>
</g>
<g opacity="0.2">
	<g id="XMLID_5_">
		<g>
			<g id="XMLID_6_">
				<g>
					<path fill="#FFFFFF" d="M301.856,35.37v127.5h-127.5V35.37H301.856z M290.296,151.311V98.4V46.93h-52.05h-52.33V98.4v52.91
						h52.33H290.296z"/>
					<polygon fill="#EA5418" points="290.296,98.4 290.296,151.311 238.246,151.311 238.246,149.73 289.576,98.4 					"/>
					<polygon fill="#EA5418" points="290.296,46.93 290.296,98.4 289.576,98.4 238.246,47.07 238.246,46.93 					"/>
					<polygon fill="#EA5418" points="238.246,149.73 238.246,151.311 185.917,151.311 185.917,98.4 186.917,98.4 					"/>
					<polygon fill="#EA5418" points="238.246,46.93 238.246,47.07 186.917,98.4 185.917,98.4 185.917,46.93 					"/>
				</g>
				<g>
					
						<rect x="174.356" y="35.37" fill="none" stroke="#132A87" stroke-width="3" stroke-miterlimit="10" width="127.5" height="127.5"/>
					<polygon fill="none" stroke="#132A87" stroke-width="3" stroke-miterlimit="10" points="290.296,98.4 290.296,151.311 
						238.246,151.311 185.917,151.311 185.917,98.4 185.917,46.93 238.246,46.93 290.296,46.93 					"/>
					
						<rect x="201.951" y="62.105" transform="matrix(0.7071 -0.7071 0.7071 0.7071 0.2012 197.2864)" fill="none" stroke="#132A87" stroke-width="3" stroke-miterlimit="10" width="72.592" height="72.591"/>
				</g>
			</g>
		</g>
		<rect x="212.081" y="72.665" fill="#132A87" width="52.19" height="52.19"/>
		
			<rect x="220.141" y="80.307" transform="matrix(0.7071 -0.7071 0.7071 0.7071 0.0504 197.6413)" fill="#FFFFFF" width="36.904" height="36.905"/>
		<circle fill="#FFFFFF" stroke="#132A87" stroke-miterlimit="10" cx="238.593" cy="98.4" r="11.25"/>
	</g>
	<rect x="174.356" y="35.37" fill="#132A87" stroke="#132A87" stroke-miterlimit="10" width="11.56" height="11.56"/>
	<rect x="289.576" y="35.37" fill="#132A87" stroke="#132A87" stroke-miterlimit="10" width="11.56" height="11.56"/>
	<rect x="174.356" y="149.73" fill="#132A87" stroke="#132A87" stroke-miterlimit="10" width="11.56" height="11.56"/>
	<rect x="289.576" y="149.73" fill="#132A87" stroke="#132A87" stroke-miterlimit="10" width="11.56" height="11.56"/>
</g>
<g opacity="0.2">
	<g id="XMLID_9_">
		<g>
			<g id="XMLID_10_">
				<g>
					<path fill="#FFFFFF" d="M459.129,34.229v127.5h-127.5v-127.5H459.129z M447.569,150.17V97.26V45.79h-52.05h-52.33v51.47v52.91
						h52.33H447.569z"/>
					<polygon fill="#EA5418" points="447.569,97.26 447.569,150.17 395.519,150.17 395.519,148.59 446.849,97.26 					"/>
					<polygon fill="#EA5418" points="447.569,45.79 447.569,97.26 446.849,97.26 395.519,45.93 395.519,45.79 					"/>
					<polygon fill="#EA5418" points="395.519,148.59 395.519,150.17 343.189,150.17 343.189,97.26 344.189,97.26 					"/>
					<polygon fill="#EA5418" points="395.519,45.79 395.519,45.93 344.189,97.26 343.189,97.26 343.189,45.79 					"/>
				</g>
				<g>
					
						<rect x="331.629" y="34.229" fill="none" stroke="#132A87" stroke-width="3" stroke-miterlimit="10" width="127.5" height="127.5"/>
					<polygon fill="none" stroke="#132A87" stroke-width="3" stroke-miterlimit="10" points="447.569,97.26 447.569,150.17 
						395.519,150.17 343.189,150.17 343.189,97.26 343.189,45.79 395.519,45.79 447.569,45.79 					"/>
					
						<rect x="359.223" y="60.964" transform="matrix(0.7071 -0.7071 0.7071 0.7071 47.0717 308.1607)" fill="none" stroke="#132A87" stroke-width="3" stroke-miterlimit="10" width="72.592" height="72.591"/>
				</g>
			</g>
		</g>
		<rect x="369.354" y="71.524" fill="#132A87" width="52.19" height="52.19"/>
		
			<rect x="377.413" y="79.167" transform="matrix(0.7071 -0.7071 0.7071 0.7071 46.9231 308.5177)" fill="#FFFFFF" width="36.904" height="36.905"/>
		<circle fill="#FFFFFF" stroke="#132A87" stroke-miterlimit="10" cx="395.865" cy="97.26" r="11.25"/>
	</g>
	<rect x="331.629" y="34.229" fill="#132A87" stroke="#132A87" stroke-miterlimit="10" width="11.56" height="11.56"/>
	<rect x="446.849" y="34.229" fill="#132A87" stroke="#132A87" stroke-miterlimit="10" width="11.56" height="11.56"/>
	<rect x="331.629" y="148.59" fill="#132A87" stroke="#132A87" stroke-miterlimit="10" width="11.56" height="11.56"/>
	<rect x="446.849" y="148.59" fill="#132A87" stroke="#132A87" stroke-miterlimit="10" width="11.56" height="11.56"/>
</g>
<g opacity="0.2">
	<g id="XMLID_7_">
		<g>
			<g id="XMLID_8_">
				<g>
					<path fill="#FFFFFF" d="M617.365,34.51v127.5h-127.5V34.51H617.365z M605.806,150.45V97.54V46.07h-52.051h-52.33v51.47v52.91
						h52.33H605.806z"/>
					<polygon fill="#EA5418" points="605.806,97.54 605.806,150.45 553.755,150.45 553.755,148.87 605.085,97.54 					"/>
					<polygon fill="#EA5418" points="605.806,46.07 605.806,97.54 605.085,97.54 553.755,46.21 553.755,46.07 					"/>
					<polygon fill="#EA5418" points="553.755,148.87 553.755,150.45 501.425,150.45 501.425,97.54 502.425,97.54 					"/>
					<polygon fill="#EA5418" points="553.755,46.07 553.755,46.21 502.425,97.54 501.425,97.54 501.425,46.07 					"/>
				</g>
				<g>
					
						<rect x="489.865" y="34.51" fill="none" stroke="#132A87" stroke-width="3" stroke-miterlimit="10" width="127.5" height="127.5"/>
					<polygon fill="none" stroke="#132A87" stroke-width="3" stroke-miterlimit="10" points="605.806,97.54 605.806,150.45 
						553.755,150.45 501.425,150.45 501.425,97.54 501.425,46.07 553.755,46.07 605.806,46.07 					"/>
					
						<rect x="517.459" y="61.244" transform="matrix(0.7071 -0.7071 0.7071 0.7071 93.2198 420.1326)" fill="none" stroke="#132A87" stroke-width="3" stroke-miterlimit="10" width="72.592" height="72.592"/>
				</g>
			</g>
		</g>
		<rect x="527.59" y="71.805" fill="#132A87" width="52.19" height="52.19"/>
		
			<rect x="535.65" y="79.447" transform="matrix(0.7071 -0.7071 0.7071 0.7071 93.0793 420.5003)" fill="#FFFFFF" width="36.904" height="36.905"/>
		<circle fill="#FFFFFF" stroke="#132A87" stroke-miterlimit="10" cx="554.102" cy="97.54" r="11.25"/>
	</g>
	<rect x="489.865" y="34.51" fill="#132A87" stroke="#132A87" stroke-miterlimit="10" width="11.56" height="11.56"/>
	<rect x="605.085" y="34.51" fill="#132A87" stroke="#132A87" stroke-miterlimit="10" width="11.561" height="11.56"/>
	<rect x="489.865" y="148.87" fill="#132A87" stroke="#132A87" stroke-miterlimit="10" width="11.56" height="11.56"/>
	<rect x="605.085" y="148.87" fill="#132A87" stroke="#132A87" stroke-miterlimit="10" width="11.561" height="11.56"/>
</g>
<g opacity="0.2">
	<g id="XMLID_17_">
		<g>
			<g id="XMLID_18_">
				<g>
					<path fill="#FFFFFF" d="M775.797,34.541v127.5h-127.5v-127.5H775.797z M764.236,150.48v-52.91v-51.47h-52.05h-52.329v51.47
						v52.91h52.329H764.236z"/>
					<polygon fill="#EA5418" points="764.236,97.571 764.236,150.48 712.187,150.48 712.187,148.9 763.517,97.571 					"/>
					<polygon fill="#EA5418" points="764.236,46.101 764.236,97.571 763.517,97.571 712.187,46.241 712.187,46.101 					"/>
					<polygon fill="#EA5418" points="712.187,148.9 712.187,150.48 659.857,150.48 659.857,97.571 660.857,97.571 					"/>
					<polygon fill="#EA5418" points="712.187,46.101 712.187,46.241 660.857,97.571 659.857,97.571 659.857,46.101 					"/>
				</g>
				<g>
					
						<rect x="648.297" y="34.541" fill="none" stroke="#132A87" stroke-width="3" stroke-miterlimit="10" width="127.5" height="127.5"/>
					<polygon fill="none" stroke="#132A87" stroke-width="3" stroke-miterlimit="10" points="764.236,97.571 764.236,150.48 
						712.187,150.48 659.857,150.48 659.857,97.571 659.857,46.101 712.187,46.101 764.236,46.101 					"/>
					
						<rect x="675.891" y="61.275" transform="matrix(0.7071 -0.7071 0.7071 0.7071 139.5997 532.1674)" fill="none" stroke="#132A87" stroke-width="3" stroke-miterlimit="10" width="72.591" height="72.591"/>
				</g>
			</g>
		</g>
		<rect x="686.021" y="71.835" fill="#132A87" width="52.19" height="52.19"/>
		
			<rect x="694.081" y="79.478" transform="matrix(0.7071 -0.7071 0.7071 0.7071 139.4451 532.5151)" fill="#FFFFFF" width="36.905" height="36.904"/>
		<circle fill="#FFFFFF" stroke="#132A87" stroke-miterlimit="10" cx="712.533" cy="97.571" r="11.25"/>
	</g>
	<rect x="648.297" y="34.541" fill="#132A87" stroke="#132A87" stroke-miterlimit="10" width="11.561" height="11.56"/>
	<rect x="763.517" y="34.541" fill="#132A87" stroke="#132A87" stroke-miterlimit="10" width="11.56" height="11.56"/>
	<rect x="648.297" y="148.9" fill="#132A87" stroke="#132A87" stroke-miterlimit="10" width="11.561" height="11.561"/>
	<rect x="763.517" y="148.9" fill="#132A87" stroke="#132A87" stroke-miterlimit="10" width="11.56" height="11.561"/>
</g>
<g opacity="0.2">
	<g id="XMLID_15_">
		<g>
			<g id="XMLID_16_">
				<g>
					<path fill="#FFFFFF" d="M933.033,34.821v127.5h-127.5v-127.5H933.033z M921.473,150.762V97.851v-51.47h-52.05h-52.329v51.47
						v52.911h52.329H921.473z"/>
					<polygon fill="#EA5418" points="921.473,97.851 921.473,150.762 869.423,150.762 869.423,149.182 920.753,97.851 					"/>
					<polygon fill="#EA5418" points="921.473,46.381 921.473,97.851 920.753,97.851 869.423,46.521 869.423,46.381 					"/>
					<polygon fill="#EA5418" points="869.423,149.182 869.423,150.762 817.094,150.762 817.094,97.851 818.094,97.851 					"/>
					<polygon fill="#EA5418" points="869.423,46.381 869.423,46.521 818.094,97.851 817.094,97.851 817.094,46.381 					"/>
				</g>
				<g>
					
						<rect x="805.533" y="34.821" fill="none" stroke="#132A87" stroke-width="3" stroke-miterlimit="10" width="127.5" height="127.5"/>
					<polygon fill="none" stroke="#132A87" stroke-width="3" stroke-miterlimit="10" points="921.473,97.851 921.473,150.762 
						869.423,150.762 817.094,150.762 817.094,97.851 817.094,46.381 869.423,46.381 921.473,46.381 					"/>
					
						<rect x="833.127" y="61.555" transform="matrix(0.7071 -0.7071 0.7071 0.7071 185.4597 643.4382)" fill="none" stroke="#132A87" stroke-width="3" stroke-miterlimit="10" width="72.592" height="72.591"/>
				</g>
			</g>
		</g>
		<rect x="843.258" y="72.116" fill="#132A87" width="52.19" height="52.191"/>
		
			<rect x="851.317" y="79.758" transform="matrix(0.7071 -0.7071 0.7071 0.7071 185.3096 643.7918)" fill="#FFFFFF" width="36.905" height="36.905"/>
		<circle fill="#FFFFFF" stroke="#132A87" stroke-miterlimit="10" cx="869.77" cy="97.851" r="11.25"/>
	</g>
	<rect x="805.533" y="34.821" fill="#132A87" stroke="#132A87" stroke-miterlimit="10" width="11.561" height="11.56"/>
	<rect x="920.753" y="34.821" fill="#132A87" stroke="#132A87" stroke-miterlimit="10" width="11.56" height="11.56"/>
	<rect x="805.533" y="149.182" fill="#132A87" stroke="#132A87" stroke-miterlimit="10" width="11.561" height="11.559"/>
	<rect x="920.753" y="149.182" fill="#132A87" stroke="#132A87" stroke-miterlimit="10" width="11.56" height="11.559"/>
</g>
<g opacity="0.2">
	<g id="XMLID_13_">
		<g>
			<g id="XMLID_14_">
				<g>
					<path fill="#FFFFFF" d="M1096.306,33.68v127.5h-127.5V33.68H1096.306z M1084.745,149.621V96.71V45.24h-52.05h-52.329v51.47
						v52.911h52.329H1084.745z"/>
					<polygon fill="#EA5418" points="1084.745,96.71 1084.745,149.621 1032.695,149.621 1032.695,148.041 1084.025,96.71 					"/>
					<polygon fill="#EA5418" points="1084.745,45.24 1084.745,96.71 1084.025,96.71 1032.695,45.38 1032.695,45.24 					"/>
					<polygon fill="#EA5418" points="1032.695,148.041 1032.695,149.621 980.366,149.621 980.366,96.71 981.366,96.71 					"/>
					<polygon fill="#EA5418" points="1032.695,45.24 1032.695,45.38 981.366,96.71 980.366,96.71 980.366,45.24 					"/>
				</g>
				<g>
					
						<rect x="968.806" y="33.68" fill="none" stroke="#132A87" stroke-width="3" stroke-miterlimit="10" width="127.5" height="127.5"/>
					<polygon fill="none" stroke="#132A87" stroke-width="3" stroke-miterlimit="10" points="1084.745,96.71 1084.745,149.621 
						1032.695,149.621 980.366,149.621 980.366,96.71 980.366,45.24 1032.695,45.24 1084.745,45.24 					"/>
					
						<rect x="996.4" y="60.415" transform="matrix(0.7071 -0.7071 0.7071 0.7071 234.0881 758.5558)" fill="none" stroke="#132A87" stroke-width="3" stroke-miterlimit="10" width="72.592" height="72.591"/>
				</g>
			</g>
		</g>
		<rect x="1006.53" y="70.975" fill="#132A87" width="52.19" height="52.191"/>
		
			<rect x="1014.59" y="78.618" transform="matrix(0.7071 -0.7071 0.7071 0.7071 233.9386 758.9099)" fill="#FFFFFF" width="36.905" height="36.905"/>
		<circle fill="#FFFFFF" stroke="#132A87" stroke-miterlimit="10" cx="1033.042" cy="96.71" r="11.25"/>
	</g>
	<rect x="968.806" y="33.68" fill="#132A87" stroke="#132A87" stroke-miterlimit="10" width="11.561" height="11.56"/>
	<rect x="1084.025" y="33.68" fill="#132A87" stroke="#132A87" stroke-miterlimit="10" width="11.56" height="11.56"/>
	<rect x="968.806" y="148.041" fill="#132A87" stroke="#132A87" stroke-miterlimit="10" width="11.561" height="11.559"/>
	<rect x="1084.025" y="148.041" fill="#132A87" stroke="#132A87" stroke-miterlimit="10" width="11.56" height="11.559"/>
</g>
<g opacity="0.2">
	<g id="XMLID_11_">
		<g>
			<g id="XMLID_12_">
				<g>
					<path fill="#FFFFFF" d="M1253.542,33.96v127.5h-127.5V33.96H1253.542z M1241.982,149.9v-52.91v-51.47h-52.051h-52.33v51.47
						v52.91h52.33H1241.982z"/>
					<polygon fill="#EA5418" points="1241.982,96.991 1241.982,149.9 1189.932,149.9 1189.932,148.32 1241.262,96.991 					"/>
					<polygon fill="#EA5418" points="1241.982,45.521 1241.982,96.991 1241.262,96.991 1189.932,45.661 1189.932,45.521 					"/>
					<polygon fill="#EA5418" points="1189.932,148.32 1189.932,149.9 1137.602,149.9 1137.602,96.991 1138.602,96.991 					"/>
					<polygon fill="#EA5418" points="1189.932,45.521 1189.932,45.661 1138.602,96.991 1137.602,96.991 1137.602,45.521 					"/>
				</g>
				<g>
					
						<rect x="1126.042" y="33.96" fill="none" stroke="#132A87" stroke-width="3" stroke-miterlimit="10" width="127.5" height="127.5"/>
					<polygon fill="none" stroke="#132A87" stroke-width="3" stroke-miterlimit="10" points="1241.982,96.991 1241.982,149.9 
						1189.932,149.9 1137.602,149.9 1137.602,96.991 1137.602,45.521 1189.932,45.521 1241.982,45.521 					"/>
					
						<rect x="1153.636" y="60.695" transform="matrix(0.7071 -0.7071 0.7071 0.7071 279.9364 869.8123)" fill="none" stroke="#132A87" stroke-width="3" stroke-miterlimit="10" width="72.591" height="72.591"/>
				</g>
			</g>
		</g>
		<rect x="1163.767" y="71.255" fill="#132A87" width="52.19" height="52.19"/>
		
			<rect x="1171.827" y="78.898" transform="matrix(0.7071 -0.7071 0.7071 0.7071 279.8092 870.1927)" fill="#FFFFFF" width="36.903" height="36.905"/>
		<circle fill="#FFFFFF" stroke="#132A87" stroke-miterlimit="10" cx="1190.278" cy="96.991" r="11.25"/>
	</g>
	<rect x="1126.042" y="33.96" fill="#132A87" stroke="#132A87" stroke-miterlimit="10" width="11.56" height="11.56"/>
	<rect x="1241.262" y="33.96" fill="#132A87" stroke="#132A87" stroke-miterlimit="10" width="11.561" height="11.56"/>
	<rect x="1126.042" y="148.32" fill="#132A87" stroke="#132A87" stroke-miterlimit="10" width="11.56" height="11.561"/>
	<rect x="1241.262" y="148.32" fill="#132A87" stroke="#132A87" stroke-miterlimit="10" width="11.561" height="11.561"/>
</g>
</svg>
